<svg width="235" height="224" viewBox="0 0 235 224" fill="none" xmlns="http://www.w3.org/2000/svg">
<mask id="path-1-inside-1_5_220" fill="white">
<path d="M0 0H234.6V234.6H0V0Z"/>
</mask>
<path d="M234.6 234H0V235.2H234.6V234Z" fill="#C4C4C4" mask="url(#path-1-inside-1_5_220)"/>
<g clip-path="url(#clip0_5_220)">
<path d="M151.899 97.6213L149.427 95.276C149.303 95.4073 149.167 95.5246 149.041 95.6541L134.872 49.2838C136.662 46.9775 137.738 44.0925 137.738 40.955C137.738 33.442 131.625 27.3293 124.112 27.3293V21.075C124.566 21.1447 125.015 21.1926 125.468 21.276L126.09 17.9256C125.39 17.7961 124.691 17.7128 123.991 17.6155C123.422 14.4304 120.646 12 117.299 12C113.952 12 111.177 14.4308 110.608 17.6159C109.908 17.7146 109.21 17.7965 108.51 17.926L109.131 21.2763C109.584 21.193 110.034 21.1451 110.487 21.0753V27.3297C102.974 27.3297 96.8611 33.4423 96.8611 40.9553C96.8611 44.0925 97.9377 46.9779 99.7261 49.2824L85.5567 95.6523C85.4308 95.5228 85.2946 95.4055 85.1701 95.2742L82.6985 97.6195C83.2554 98.2054 83.8481 98.7605 84.4358 99.321L81.6051 108.587L81.5318 117.6L91.5145 110.113L92.8583 105.715C93.221 105.933 93.5755 106.173 93.9399 106.378L95.6074 103.407C95.0266 103.08 94.4579 102.709 93.8838 102.351L100.155 81.8324H134.442L140.712 102.353C140.138 102.71 139.571 103.082 138.989 103.408L140.656 106.379C141.022 106.173 141.375 105.933 141.738 105.717L143.081 110.114L153.067 117.6V108.83L150.162 99.3228C150.749 98.7623 151.344 98.2072 151.899 97.6213ZM124.113 30.7358C129.749 30.7358 134.332 35.3191 134.332 40.955C134.332 44.2352 132.772 47.1531 130.362 49.0231C129.364 45.6491 127.093 42.8235 124.106 41.0912C124.106 41.0451 124.113 41.0011 124.113 40.955C124.113 37.2795 122.643 33.9463 120.269 31.4919C121.457 31.0084 122.754 30.7358 124.113 30.7358ZM123.547 44.8097C125.4 46.2472 126.746 48.3031 127.271 50.6687C126.276 50.9939 125.216 51.1745 124.113 51.1745C122.754 51.1745 121.457 50.902 120.269 50.4184C121.778 48.8582 122.917 46.9439 123.547 44.8097ZM117.3 48.5513C115.74 47.1496 114.609 45.2829 114.14 43.164C115.137 42.8389 116.196 42.6582 117.3 42.6582C118.404 42.6582 119.463 42.8389 120.459 43.164C119.991 45.2829 118.86 47.1496 117.3 48.5513ZM117.3 39.2517C116.153 39.2517 115.046 39.4102 113.982 39.6774C114.295 37.179 115.515 34.9632 117.3 33.3586C119.085 34.9614 120.304 37.1772 120.618 39.6759C119.553 39.4102 118.446 39.2517 117.3 39.2517ZM114.331 50.4184C113.142 50.902 111.846 51.1745 110.487 51.1745C109.383 51.1745 108.324 50.9939 107.327 50.6687C107.852 48.3031 109.198 46.2472 111.051 44.8097C111.682 46.9436 112.822 48.8582 114.331 50.4184ZM110.487 54.5807C112.97 54.5807 115.293 53.9029 117.3 52.7379C119.306 53.9029 121.629 54.5807 124.113 54.5807C125.259 54.5807 126.366 54.4222 127.431 54.155C126.799 59.1882 122.501 63.0969 117.3 63.0969C112.098 63.0969 107.801 59.1879 107.169 54.155C108.233 54.4226 109.34 54.5807 110.487 54.5807ZM113.893 18.8134C113.893 16.9349 115.421 15.4069 117.3 15.4069C119.179 15.4069 120.706 16.9345 120.706 18.8134V27.7775C119.497 28.0908 118.354 28.5608 117.3 29.1724C116.245 28.5593 115.103 28.0908 113.893 27.7775V18.8134ZM110.487 30.7358C111.846 30.7358 113.142 31.0084 114.331 31.4919C111.957 33.9463 110.487 37.2795 110.487 40.955C110.487 41.0011 110.494 41.0451 110.494 41.0912C107.506 42.8235 105.236 45.6491 104.238 49.0231C101.828 47.1528 100.268 44.2352 100.268 40.955C100.268 35.3191 104.851 30.7358 110.487 30.7358ZM88.582 108.054L84.9387 110.787V109.338L102.473 51.9492C102.862 52.2336 103.264 52.4975 103.681 52.7397C103.681 52.7873 103.674 52.8316 103.674 52.8778C103.674 54.2334 103.88 55.5399 104.25 56.7764L88.582 108.054ZM101.198 78.4259L106.483 61.1297C108.975 64.3881 112.89 66.5034 117.3 66.5034C121.71 66.5034 125.625 64.3881 128.117 61.1297L133.402 78.4259H101.198ZM149.661 110.787L146.018 108.055L130.35 56.7779C130.719 55.5396 130.926 54.2334 130.926 52.8774C130.926 52.8313 130.919 52.7873 130.919 52.7411C131.336 52.4993 131.738 52.2336 132.127 51.9507L149.661 109.337V110.787Z" fill="black"/>
<path d="M139.004 22.3305C136.989 21.3018 134.88 20.4058 132.74 19.6719L131.638 22.896C133.625 23.5756 135.582 24.4068 137.454 25.3639L139.004 22.3305Z" fill="black"/>
<path d="M158.528 40.8173C157.389 38.8655 156.098 36.973 154.689 35.1968L152.02 37.3121C153.33 38.9642 154.529 40.7204 155.587 42.5324L158.528 40.8173Z" fill="black"/>
<path d="M150.088 30.1752C148.441 28.6168 146.672 27.1639 144.825 25.8591L142.858 28.6404C144.572 29.8529 146.217 31.2021 147.747 32.65L150.088 30.1752Z" fill="black"/>
<path d="M160.313 54.2247L163.621 53.4157C163.082 51.2135 162.377 49.0334 161.528 46.9299L158.37 48.2072C159.16 50.1594 159.814 52.1846 160.313 54.2247Z" fill="black"/>
<path d="M164.763 60.1282L161.374 60.4569C161.512 61.8944 161.584 63.3541 161.584 64.8001C161.584 65.4643 161.57 66.1235 161.541 66.781L164.944 66.9308C164.975 66.2241 164.99 65.5137 164.99 64.8001C164.99 63.245 164.915 61.673 164.763 60.1282Z" fill="black"/>
<path d="M159.201 79.172L162.424 80.2758C163.159 78.1334 163.743 75.9172 164.164 73.6928L160.816 73.0608C160.425 75.1267 159.882 77.1827 159.201 79.172Z" fill="black"/>
<path d="M153.444 90.3927L156.223 92.3617C157.536 90.5104 158.725 88.5532 159.756 86.5434L156.726 84.9868C155.767 86.8553 154.663 88.6745 153.444 90.3927Z" fill="black"/>
<path d="M126.926 108.033L127.666 111.359C129.936 110.853 132.181 110.179 134.341 109.349L133.119 106.17C131.116 106.938 129.033 107.565 126.926 108.033Z" fill="black"/>
<path d="M117.298 109.084C116.215 109.059 115.135 109.047 114.055 108.968L113.806 112.364C114.947 112.45 116.101 112.49 117.233 112.49C118.467 112.512 119.609 112.451 120.771 112.366L120.525 108.97C119.466 109.047 118.38 109.084 117.298 109.084Z" fill="black"/>
<path d="M100.24 109.343C102.41 110.176 104.655 110.852 106.914 111.352L107.651 108.026C105.556 107.563 103.473 106.934 101.462 106.163L100.24 109.343Z" fill="black"/>
<path d="M103.015 22.8786L101.916 19.6545C99.7722 20.3835 97.6602 21.2759 95.6418 22.3081L97.1916 25.3416C99.0651 24.3845 101.024 23.5568 103.015 22.8786Z" fill="black"/>
<path d="M82.6102 37.2778L79.943 35.1589C78.5309 36.9369 77.2365 38.8276 76.0987 40.7762L79.0402 42.4967C80.0964 40.6843 81.2989 38.9299 82.6102 37.2778Z" fill="black"/>
<path d="M74.8214 86.4994C75.8519 88.5128 77.039 90.4696 78.3488 92.3228L81.1301 90.3538C79.9122 88.6351 78.8102 86.8163 77.8549 84.946L74.8214 86.4994Z" fill="black"/>
<path d="M73.7756 73.0132L70.4271 73.6416C70.8459 75.871 71.4286 78.0854 72.1611 80.2279L75.3852 79.1277C74.7042 77.1401 74.1623 75.0827 73.7756 73.0132Z" fill="black"/>
<path d="M73.0163 64.7984C73.0163 63.3355 73.0878 61.8551 73.2309 60.4058L69.8415 60.0703C69.6866 61.6337 69.6097 63.2247 69.6097 64.8002C69.6097 65.4952 69.6251 66.1866 69.6541 66.8783L73.057 66.7285C73.0298 66.0879 73.0163 65.4458 73.0163 64.7984Z" fill="black"/>
<path d="M91.7803 28.6119L89.8149 25.8306C87.9686 27.1336 86.1956 28.5829 84.5467 30.1399L86.8852 32.6182C88.4182 31.1717 90.0653 29.8244 91.7803 28.6119Z" fill="black"/>
<path d="M76.2471 48.1632L73.091 46.8823C72.2412 48.9772 71.5344 51.1573 70.9911 53.3598L74.2971 54.1757C74.8028 52.1334 75.4585 50.11 76.2471 48.1632Z" fill="black"/>
</g>
<path d="M35.8679 135.002V143.6H35.2859C35.1939 143.6 35.1159 143.584 35.0519 143.552C34.9919 143.52 34.9319 143.466 34.8719 143.39L29.8979 136.91C29.9059 137.01 29.9119 137.108 29.9159 137.204C29.9199 137.3 29.9219 137.39 29.9219 137.474V143.6H28.9019V135.002H29.5019C29.5539 135.002 29.5979 135.006 29.6339 135.014C29.6699 135.018 29.7019 135.028 29.7299 135.044C29.7579 135.056 29.7859 135.076 29.8139 135.104C29.8419 135.128 29.8719 135.16 29.9039 135.2L34.8779 141.674C34.8699 141.57 34.8619 141.47 34.8539 141.374C34.8499 141.274 34.8479 141.18 34.8479 141.092V135.002H35.8679ZM39.23 143.6H38.066V135.002H39.23V143.6ZM43.8113 139.166C44.1473 139.166 44.4433 139.126 44.6993 139.046C44.9593 138.962 45.1753 138.846 45.3473 138.698C45.5233 138.546 45.6553 138.366 45.7433 138.158C45.8313 137.95 45.8753 137.72 45.8753 137.468C45.8753 136.956 45.7073 136.57 45.3713 136.31C45.0353 136.05 44.5313 135.92 43.8593 135.92H42.5873V139.166H43.8113ZM47.7833 143.6H46.7513C46.5393 143.6 46.3833 143.518 46.2833 143.354L44.0513 140.282C43.9833 140.186 43.9093 140.118 43.8293 140.078C43.7533 140.034 43.6333 140.012 43.4693 140.012H42.5873V143.6H41.4293V135.002H43.8593C44.4033 135.002 44.8733 135.058 45.2693 135.17C45.6653 135.278 45.9913 135.436 46.2473 135.644C46.5073 135.852 46.6993 136.104 46.8233 136.4C46.9473 136.692 47.0093 137.02 47.0093 137.384C47.0093 137.688 46.9613 137.972 46.8653 138.236C46.7693 138.5 46.6293 138.738 46.4453 138.95C46.2653 139.158 46.0433 139.336 45.7793 139.484C45.5193 139.632 45.2233 139.744 44.8913 139.82C45.0393 139.904 45.1673 140.026 45.2753 140.186L47.7833 143.6ZM50.1167 135.95V138.956H53.6507V139.904H50.1167V143.6H48.9527V135.002H54.2507V135.95H50.1167ZM60.9089 139.166C61.2449 139.166 61.5409 139.126 61.7969 139.046C62.0569 138.962 62.2729 138.846 62.4449 138.698C62.6209 138.546 62.7529 138.366 62.8409 138.158C62.9289 137.95 62.9729 137.72 62.9729 137.468C62.9729 136.956 62.8049 136.57 62.4689 136.31C62.1329 136.05 61.6289 135.92 60.9569 135.92H59.6849V139.166H60.9089ZM64.8809 143.6H63.8489C63.6369 143.6 63.4809 143.518 63.3809 143.354L61.1489 140.282C61.0809 140.186 61.0069 140.118 60.9269 140.078C60.8509 140.034 60.7309 140.012 60.5669 140.012H59.6849V143.6H58.5269V135.002H60.9569C61.5009 135.002 61.9709 135.058 62.3669 135.17C62.7629 135.278 63.0889 135.436 63.3449 135.644C63.6049 135.852 63.7969 136.104 63.9209 136.4C64.0449 136.692 64.1069 137.02 64.1069 137.384C64.1069 137.688 64.0589 137.972 63.9629 138.236C63.8669 138.5 63.7269 138.738 63.5429 138.95C63.3629 139.158 63.1409 139.336 62.8769 139.484C62.6169 139.632 62.3209 139.744 61.9889 139.82C62.1369 139.904 62.2649 140.026 62.3729 140.186L64.8809 143.6ZM70.6163 140.408L69.2663 136.91C69.2263 136.806 69.1843 136.686 69.1403 136.55C69.0963 136.41 69.0543 136.262 69.0143 136.106C68.9303 136.43 68.8443 136.7 68.7563 136.916L67.4063 140.408H70.6163ZM73.0403 143.6H72.1403C72.0363 143.6 71.9523 143.574 71.8883 143.522C71.8243 143.47 71.7763 143.404 71.7443 143.324L70.9403 141.248H67.0823L66.2783 143.324C66.2543 143.396 66.2083 143.46 66.1403 143.516C66.0723 143.572 65.9883 143.6 65.8883 143.6H64.9883L68.4263 135.002H69.6023L73.0403 143.6ZM81.1374 135.002V143.6H80.5554C80.4634 143.6 80.3854 143.584 80.3214 143.552C80.2614 143.52 80.2014 143.466 80.1414 143.39L75.1674 136.91C75.1754 137.01 75.1814 137.108 75.1854 137.204C75.1894 137.3 75.1914 137.39 75.1914 137.474V143.6H74.1714V135.002H74.7714C74.8234 135.002 74.8674 135.006 74.9034 135.014C74.9394 135.018 74.9714 135.028 74.9994 135.044C75.0274 135.056 75.0554 135.076 75.0834 135.104C75.1114 135.128 75.1414 135.16 75.1734 135.2L80.1474 141.674C80.1394 141.57 80.1314 141.47 80.1234 141.374C80.1194 141.274 80.1174 141.18 80.1174 141.092V135.002H81.1374ZM84.4935 138.77H84.9315C85.0835 138.77 85.2055 138.752 85.2975 138.716C85.3895 138.676 85.4735 138.61 85.5495 138.518L88.4115 135.278C88.4915 135.174 88.5755 135.102 88.6635 135.062C88.7515 135.022 88.8595 135.002 88.9875 135.002H89.9715L86.6955 138.704C86.6155 138.8 86.5375 138.88 86.4615 138.944C86.3895 139.004 86.3115 139.054 86.2275 139.094C86.3355 139.13 86.4335 139.184 86.5215 139.256C86.6095 139.324 86.6955 139.414 86.7795 139.526L90.1995 143.6H89.1915C89.1155 143.6 89.0495 143.596 88.9935 143.588C88.9415 143.576 88.8955 143.56 88.8555 143.54C88.8155 143.516 88.7795 143.49 88.7475 143.462C88.7195 143.43 88.6915 143.394 88.6635 143.354L85.6995 139.94C85.6195 139.84 85.5335 139.77 85.4415 139.73C85.3495 139.686 85.2095 139.664 85.0215 139.664H84.4935V143.6H83.3355V135.002H84.4935V138.77ZM99.3611 142.784V143.6H94.7531V142.784H96.5951V136.922C96.5951 136.746 96.6011 136.568 96.6131 136.388L95.0831 137.702C95.0311 137.746 94.9791 137.774 94.9271 137.786C94.8751 137.794 94.8271 137.794 94.7831 137.786C94.7391 137.778 94.6971 137.762 94.6571 137.738C94.6211 137.714 94.5931 137.688 94.5731 137.66L94.2371 137.198L96.7991 134.984H97.6691V142.784H99.3611ZM105.546 143.6H104.382V135.002H105.546V143.6ZM114.712 135.002V143.6H114.13C114.038 143.6 113.96 143.584 113.896 143.552C113.836 143.52 113.776 143.466 113.716 143.39L108.742 136.91C108.75 137.01 108.756 137.108 108.76 137.204C108.764 137.3 108.766 137.39 108.766 137.474V143.6H107.746V135.002H108.346C108.398 135.002 108.442 135.006 108.478 135.014C108.514 135.018 108.546 135.028 108.574 135.044C108.602 135.056 108.63 135.076 108.658 135.104C108.686 135.128 108.716 135.16 108.748 135.2L113.722 141.674C113.714 141.57 113.706 141.47 113.698 141.374C113.694 141.274 113.692 141.18 113.692 141.092V135.002H114.712ZM124.148 140.408L122.798 136.91C122.758 136.806 122.716 136.686 122.672 136.55C122.628 136.41 122.586 136.262 122.546 136.106C122.462 136.43 122.376 136.7 122.288 136.916L120.938 140.408H124.148ZM126.572 143.6H125.672C125.568 143.6 125.484 143.574 125.42 143.522C125.356 143.47 125.308 143.404 125.276 143.324L124.472 141.248H120.614L119.81 143.324C119.786 143.396 119.74 143.46 119.672 143.516C119.604 143.572 119.52 143.6 119.42 143.6H118.52L121.958 135.002H123.134L126.572 143.6ZM130.085 139.166C130.421 139.166 130.717 139.126 130.973 139.046C131.233 138.962 131.449 138.846 131.621 138.698C131.797 138.546 131.929 138.366 132.017 138.158C132.105 137.95 132.149 137.72 132.149 137.468C132.149 136.956 131.981 136.57 131.645 136.31C131.309 136.05 130.805 135.92 130.133 135.92H128.861V139.166H130.085ZM134.057 143.6H133.025C132.813 143.6 132.657 143.518 132.557 143.354L130.325 140.282C130.257 140.186 130.183 140.118 130.103 140.078C130.027 140.034 129.907 140.012 129.743 140.012H128.861V143.6H127.703V135.002H130.133C130.677 135.002 131.147 135.058 131.543 135.17C131.939 135.278 132.265 135.436 132.521 135.644C132.781 135.852 132.973 136.104 133.097 136.4C133.221 136.692 133.283 137.02 133.283 137.384C133.283 137.688 133.235 137.972 133.139 138.236C133.043 138.5 132.903 138.738 132.719 138.95C132.539 139.158 132.317 139.336 132.053 139.484C131.793 139.632 131.497 139.744 131.165 139.82C131.313 139.904 131.441 140.026 131.549 140.186L134.057 143.6ZM141.18 141.824C141.244 141.824 141.3 141.85 141.348 141.902L141.81 142.4C141.458 142.808 141.03 143.126 140.526 143.354C140.026 143.582 139.42 143.696 138.708 143.696C138.092 143.696 137.532 143.59 137.028 143.378C136.524 143.162 136.094 142.862 135.738 142.478C135.382 142.09 135.106 141.626 134.91 141.086C134.714 140.546 134.616 139.952 134.616 139.304C134.616 138.656 134.718 138.062 134.922 137.522C135.126 136.982 135.412 136.518 135.78 136.13C136.152 135.742 136.596 135.442 137.112 135.23C137.628 135.014 138.198 134.906 138.822 134.906C139.434 134.906 139.974 135.004 140.442 135.2C140.91 135.396 141.322 135.662 141.678 135.998L141.294 136.532C141.27 136.572 141.238 136.606 141.198 136.634C141.162 136.658 141.112 136.67 141.048 136.67C140.976 136.67 140.888 136.632 140.784 136.556C140.68 136.476 140.544 136.388 140.376 136.292C140.208 136.196 139.998 136.11 139.746 136.034C139.494 135.954 139.184 135.914 138.816 135.914C138.372 135.914 137.966 135.992 137.598 136.148C137.23 136.3 136.912 136.522 136.644 136.814C136.38 137.106 136.174 137.462 136.026 137.882C135.878 138.302 135.804 138.776 135.804 139.304C135.804 139.84 135.88 140.318 136.032 140.738C136.188 141.158 136.398 141.514 136.662 141.806C136.93 142.094 137.244 142.314 137.604 142.466C137.968 142.618 138.36 142.694 138.78 142.694C139.036 142.694 139.266 142.68 139.47 142.652C139.678 142.62 139.868 142.572 140.04 142.508C140.216 142.444 140.378 142.364 140.526 142.268C140.678 142.168 140.828 142.05 140.976 141.914C141.044 141.854 141.112 141.824 141.18 141.824ZM150.126 135.002V143.6H148.962V139.688H144.324V143.6H143.16V135.002H144.324V138.836H148.962V135.002H150.126ZM153.488 143.6H152.324V135.002H153.488V143.6ZM161.501 135.98H158.717V143.6H157.559V135.98H154.769V135.002H161.501V135.98ZM168.081 142.652L168.075 143.6H162.777V135.002H168.075V135.95H163.941V138.806H167.289V139.718H163.941V142.652H168.081ZM175.551 141.824C175.615 141.824 175.671 141.85 175.719 141.902L176.181 142.4C175.829 142.808 175.401 143.126 174.897 143.354C174.397 143.582 173.791 143.696 173.079 143.696C172.463 143.696 171.903 143.59 171.399 143.378C170.895 143.162 170.465 142.862 170.109 142.478C169.753 142.09 169.477 141.626 169.281 141.086C169.085 140.546 168.987 139.952 168.987 139.304C168.987 138.656 169.089 138.062 169.293 137.522C169.497 136.982 169.783 136.518 170.151 136.13C170.523 135.742 170.967 135.442 171.483 135.23C171.999 135.014 172.569 134.906 173.193 134.906C173.805 134.906 174.345 135.004 174.813 135.2C175.281 135.396 175.693 135.662 176.049 135.998L175.665 136.532C175.641 136.572 175.609 136.606 175.569 136.634C175.533 136.658 175.483 136.67 175.419 136.67C175.347 136.67 175.259 136.632 175.155 136.556C175.051 136.476 174.915 136.388 174.747 136.292C174.579 136.196 174.369 136.11 174.117 136.034C173.865 135.954 173.555 135.914 173.187 135.914C172.743 135.914 172.337 135.992 171.969 136.148C171.601 136.3 171.283 136.522 171.015 136.814C170.751 137.106 170.545 137.462 170.397 137.882C170.249 138.302 170.175 138.776 170.175 139.304C170.175 139.84 170.251 140.318 170.403 140.738C170.559 141.158 170.769 141.514 171.033 141.806C171.301 142.094 171.615 142.314 171.975 142.466C172.339 142.618 172.731 142.694 173.151 142.694C173.407 142.694 173.637 142.68 173.841 142.652C174.049 142.62 174.239 142.572 174.411 142.508C174.587 142.444 174.749 142.364 174.897 142.268C175.049 142.168 175.199 142.05 175.347 141.914C175.415 141.854 175.483 141.824 175.551 141.824ZM183.345 135.98H180.561V143.6H179.403V135.98H176.613V135.002H183.345V135.98ZM187.939 142.676C188.295 142.676 188.613 142.616 188.893 142.496C189.173 142.376 189.409 142.208 189.601 141.992C189.797 141.776 189.945 141.518 190.045 141.218C190.149 140.918 190.201 140.588 190.201 140.228V135.002H191.359V140.228C191.359 140.724 191.279 141.184 191.119 141.608C190.963 142.032 190.737 142.4 190.441 142.712C190.149 143.02 189.791 143.262 189.367 143.438C188.943 143.614 188.467 143.702 187.939 143.702C187.411 143.702 186.935 143.614 186.511 143.438C186.087 143.262 185.727 143.02 185.431 142.712C185.135 142.4 184.907 142.032 184.747 141.608C184.591 141.184 184.513 140.724 184.513 140.228V135.002H185.671V140.222C185.671 140.582 185.721 140.912 185.821 141.212C185.925 141.512 186.073 141.77 186.265 141.986C186.461 142.202 186.699 142.372 186.979 142.496C187.263 142.616 187.583 142.676 187.939 142.676ZM195.827 139.166C196.163 139.166 196.459 139.126 196.715 139.046C196.975 138.962 197.191 138.846 197.363 138.698C197.539 138.546 197.671 138.366 197.759 138.158C197.847 137.95 197.891 137.72 197.891 137.468C197.891 136.956 197.723 136.57 197.387 136.31C197.051 136.05 196.547 135.92 195.875 135.92H194.603V139.166H195.827ZM199.799 143.6H198.767C198.555 143.6 198.399 143.518 198.299 143.354L196.067 140.282C195.999 140.186 195.925 140.118 195.845 140.078C195.769 140.034 195.649 140.012 195.485 140.012H194.603V143.6H193.445V135.002H195.875C196.419 135.002 196.889 135.058 197.285 135.17C197.681 135.278 198.007 135.436 198.263 135.644C198.523 135.852 198.715 136.104 198.839 136.4C198.963 136.692 199.025 137.02 199.025 137.384C199.025 137.688 198.977 137.972 198.881 138.236C198.785 138.5 198.645 138.738 198.461 138.95C198.281 139.158 198.059 139.336 197.795 139.484C197.535 139.632 197.239 139.744 196.907 139.82C197.055 139.904 197.183 140.026 197.291 140.186L199.799 143.6ZM206.272 142.652L206.266 143.6H200.968V135.002H206.266V135.95H202.132V138.806H205.48V139.718H202.132V142.652H206.272Z" fill="#232323"/>
<g clip-path="url(#clip1_5_220)">
<path d="M109.206 194.645H105.279L104.313 200.042H108.24L109.206 194.645ZM118.698 190.529L118.257 192.923C118.145 193.511 117.9 193.945 117.522 194.225C117.144 194.505 116.542 194.645 115.716 194.645H113.973L113.007 200.042H115.653C116.241 200.042 116.654 200.217 116.892 200.567C117.144 200.917 117.207 201.512 117.081 202.352L116.787 204.158H112.419L110.865 212.6H108.198C107.932 212.6 107.68 212.537 107.442 212.411C107.218 212.285 107.022 212.117 106.854 211.907C106.7 211.683 106.588 211.431 106.518 211.151C106.462 210.871 106.469 210.57 106.539 210.248L107.652 204.158H103.746L102.612 210.542C102.472 211.284 102.157 211.816 101.667 212.138C101.177 212.446 100.624 212.6 100.008 212.6H97.4457L98.9787 204.158H96.8157C96.2277 204.158 95.8077 203.99 95.5557 203.654C95.3177 203.304 95.2617 202.709 95.3877 201.869L95.6817 200.042H99.5667L100.533 194.645H96.1857L96.6267 192.251C96.7387 191.663 96.9837 191.229 97.3617 190.949C97.7537 190.669 98.3627 190.529 99.1887 190.529H101.1L102.318 184.04C102.43 183.452 102.71 182.99 103.158 182.654C103.62 182.304 104.152 182.129 104.754 182.129H107.4L105.846 190.529H109.773L111.327 182.129H113.91C114.512 182.129 114.988 182.318 115.338 182.696C115.702 183.06 115.835 183.522 115.737 184.082L114.54 190.529H118.698ZM140.982 208.337V212.6H123.888V208.337H129.936V191.663C129.936 191.299 129.943 190.928 129.957 190.55C129.971 190.172 129.992 189.787 130.02 189.395L126.03 192.713C125.75 192.923 125.477 193.056 125.211 193.112C124.945 193.168 124.693 193.175 124.455 193.133C124.217 193.077 124.007 192.993 123.825 192.881C123.643 192.755 123.503 192.629 123.405 192.503L121.578 190.046L130.944 182.108H135.711V208.337H140.982ZM109.206 245.645H105.279L104.313 251.042H108.24L109.206 245.645ZM118.698 241.529L118.257 243.923C118.145 244.511 117.9 244.945 117.522 245.225C117.144 245.505 116.542 245.645 115.716 245.645H113.973L113.007 251.042H115.653C116.241 251.042 116.654 251.217 116.892 251.567C117.144 251.917 117.207 252.512 117.081 253.352L116.787 255.158H112.419L110.865 263.6H108.198C107.932 263.6 107.68 263.537 107.442 263.411C107.218 263.285 107.022 263.117 106.854 262.907C106.7 262.683 106.588 262.431 106.518 262.151C106.462 261.871 106.469 261.57 106.539 261.248L107.652 255.158H103.746L102.612 261.542C102.472 262.284 102.157 262.816 101.667 263.138C101.177 263.446 100.624 263.6 100.008 263.6H97.4457L98.9787 255.158H96.8157C96.2277 255.158 95.8077 254.99 95.5557 254.654C95.3177 254.304 95.2617 253.709 95.3877 252.869L95.6817 251.042H99.5667L100.533 245.645H96.1857L96.6267 243.251C96.7387 242.663 96.9837 242.229 97.3617 241.949C97.7537 241.669 98.3627 241.529 99.1887 241.529H101.1L102.318 235.04C102.43 234.452 102.71 233.99 103.158 233.654C103.62 233.304 104.152 233.129 104.754 233.129H107.4L105.846 241.529H109.773L111.327 233.129H113.91C114.512 233.129 114.988 233.318 115.338 233.696C115.702 234.06 115.835 234.522 115.737 235.082L114.54 241.529H118.698ZM139.659 258.287C140.289 258.287 140.779 258.462 141.129 258.812C141.493 259.162 141.675 259.624 141.675 260.198V263.6H120.549V261.71C120.549 261.346 120.626 260.954 120.78 260.534C120.934 260.1 121.193 259.708 121.557 259.358L130.587 250.307C131.357 249.537 132.036 248.802 132.624 248.102C133.212 247.388 133.702 246.695 134.094 246.023C134.486 245.337 134.78 244.644 134.976 243.944C135.172 243.244 135.27 242.509 135.27 241.739C135.27 240.381 134.92 239.352 134.22 238.652C133.52 237.938 132.533 237.581 131.259 237.581C130.699 237.581 130.181 237.665 129.705 237.833C129.243 237.987 128.823 238.204 128.445 238.484C128.081 238.764 127.766 239.093 127.5 239.471C127.234 239.849 127.038 240.262 126.912 240.71C126.66 241.41 126.317 241.879 125.883 242.117C125.463 242.341 124.861 242.39 124.077 242.264L121.011 241.718C121.235 240.234 121.655 238.932 122.271 237.812C122.887 236.692 123.657 235.761 124.581 235.019C125.505 234.277 126.562 233.724 127.752 233.36C128.942 232.982 130.223 232.793 131.595 232.793C133.037 232.793 134.346 233.01 135.522 233.444C136.712 233.864 137.727 234.459 138.567 235.229C139.407 235.985 140.058 236.902 140.52 237.98C140.982 239.058 141.213 240.248 141.213 241.55C141.213 242.67 141.052 243.706 140.73 244.658C140.408 245.61 139.967 246.52 139.407 247.388C138.861 248.242 138.224 249.075 137.496 249.887C136.768 250.699 135.998 251.518 135.186 252.344L128.718 258.959C129.432 258.749 130.139 258.588 130.839 258.476C131.539 258.35 132.197 258.287 132.813 258.287H139.659ZM109.206 295.645H105.279L104.313 301.042H108.24L109.206 295.645ZM118.698 291.529L118.257 293.923C118.145 294.511 117.9 294.945 117.522 295.225C117.144 295.505 116.542 295.645 115.716 295.645H113.973L113.007 301.042H115.653C116.241 301.042 116.654 301.217 116.892 301.567C117.144 301.917 117.207 302.512 117.081 303.352L116.787 305.158H112.419L110.865 313.6H108.198C107.932 313.6 107.68 313.537 107.442 313.411C107.218 313.285 107.022 313.117 106.854 312.907C106.7 312.683 106.588 312.431 106.518 312.151C106.462 311.871 106.469 311.57 106.539 311.248L107.652 305.158H103.746L102.612 311.542C102.472 312.284 102.157 312.816 101.667 313.138C101.177 313.446 100.624 313.6 100.008 313.6H97.4457L98.9787 305.158H96.8157C96.2277 305.158 95.8077 304.99 95.5557 304.654C95.3177 304.304 95.2617 303.709 95.3877 302.869L95.6817 301.042H99.5667L100.533 295.645H96.1857L96.6267 293.251C96.7387 292.663 96.9837 292.229 97.3617 291.949C97.7537 291.669 98.3627 291.529 99.1887 291.529H101.1L102.318 285.04C102.43 284.452 102.71 283.99 103.158 283.654C103.62 283.304 104.152 283.129 104.754 283.129H107.4L105.846 291.529H109.773L111.327 283.129H113.91C114.512 283.129 114.988 283.318 115.338 283.696C115.702 284.06 115.835 284.522 115.737 285.082L114.54 291.529H118.698ZM121.179 291.718C121.403 290.234 121.823 288.932 122.439 287.812C123.055 286.692 123.825 285.761 124.749 285.019C125.673 284.277 126.723 283.724 127.899 283.36C129.089 282.982 130.37 282.793 131.742 282.793C133.198 282.793 134.5 283.003 135.648 283.423C136.81 283.829 137.79 284.389 138.588 285.103C139.386 285.817 139.995 286.65 140.415 287.602C140.849 288.554 141.066 289.576 141.066 290.668C141.066 291.634 140.961 292.488 140.751 293.23C140.555 293.958 140.254 294.595 139.848 295.141C139.456 295.687 138.966 296.149 138.378 296.527C137.804 296.905 137.139 297.22 136.383 297.472C139.883 298.62 141.633 300.951 141.633 304.465C141.633 306.019 141.346 307.391 140.772 308.581C140.198 309.757 139.428 310.744 138.462 311.542C137.496 312.34 136.369 312.942 135.081 313.348C133.807 313.74 132.47 313.936 131.07 313.936C129.586 313.936 128.277 313.768 127.143 313.432C126.009 313.096 125.008 312.592 124.14 311.92C123.286 311.248 122.551 310.408 121.935 309.4C121.319 308.378 120.78 307.188 120.318 305.83L122.88 304.78C123.552 304.5 124.175 304.423 124.749 304.549C125.337 304.675 125.757 304.983 126.009 305.473C126.289 306.005 126.583 306.495 126.891 306.943C127.213 307.391 127.57 307.783 127.962 308.119C128.354 308.441 128.795 308.693 129.285 308.875C129.789 309.057 130.363 309.148 131.007 309.148C131.819 309.148 132.526 309.015 133.128 308.749C133.73 308.483 134.234 308.14 134.64 307.72C135.046 307.286 135.347 306.803 135.543 306.271C135.753 305.725 135.858 305.186 135.858 304.654C135.858 303.954 135.795 303.324 135.669 302.764C135.543 302.19 135.249 301.707 134.787 301.315C134.339 300.909 133.667 300.601 132.771 300.391C131.889 300.167 130.685 300.055 129.159 300.055V295.981C130.433 295.981 131.476 295.876 132.288 295.666C133.1 295.456 133.737 295.162 134.199 294.784C134.661 294.406 134.976 293.951 135.144 293.419C135.326 292.887 135.417 292.306 135.417 291.676C135.417 290.346 135.067 289.331 134.367 288.631C133.681 287.931 132.701 287.581 131.427 287.581C130.867 287.581 130.349 287.665 129.873 287.833C129.411 287.987 128.991 288.204 128.613 288.484C128.249 288.764 127.934 289.093 127.668 289.471C127.402 289.849 127.206 290.262 127.08 290.71C126.814 291.41 126.471 291.879 126.051 292.117C125.631 292.341 125.022 292.39 124.224 292.264L121.179 291.718ZM109.206 346.645H105.279L104.313 352.042H108.24L109.206 346.645ZM118.698 342.529L118.257 344.923C118.145 345.511 117.9 345.945 117.522 346.225C117.144 346.505 116.542 346.645 115.716 346.645H113.973L113.007 352.042H115.653C116.241 352.042 116.654 352.217 116.892 352.567C117.144 352.917 117.207 353.512 117.081 354.352L116.787 356.158H112.419L110.865 364.6H108.198C107.932 364.6 107.68 364.537 107.442 364.411C107.218 364.285 107.022 364.117 106.854 363.907C106.7 363.683 106.588 363.431 106.518 363.151C106.462 362.871 106.469 362.57 106.539 362.248L107.652 356.158H103.746L102.612 362.542C102.472 363.284 102.157 363.816 101.667 364.138C101.177 364.446 100.624 364.6 100.008 364.6H97.4457L98.9787 356.158H96.8157C96.2277 356.158 95.8077 355.99 95.5557 355.654C95.3177 355.304 95.2617 354.709 95.3877 353.869L95.6817 352.042H99.5667L100.533 346.645H96.1857L96.6267 344.251C96.7387 343.663 96.9837 343.229 97.3617 342.949C97.7537 342.669 98.3627 342.529 99.1887 342.529H101.1L102.318 336.04C102.43 335.452 102.71 334.99 103.158 334.654C103.62 334.304 104.152 334.129 104.754 334.129H107.4L105.846 342.529H109.773L111.327 334.129H113.91C114.512 334.129 114.988 334.318 115.338 334.696C115.702 335.06 115.835 335.522 115.737 336.082L114.54 342.529H118.698ZM133.884 352.966V343.894C133.884 343.418 133.898 342.914 133.926 342.382C133.968 341.836 134.024 341.269 134.094 340.681L125.274 352.966H133.884ZM142.452 352.966V356.242C142.452 356.55 142.347 356.816 142.137 357.04C141.941 357.25 141.661 357.355 141.297 357.355H138.924V364.6H133.884V357.355H121.305C120.941 357.355 120.605 357.243 120.297 357.019C120.003 356.795 119.821 356.501 119.751 356.137L119.142 353.239L133.422 334.108H138.924V352.966H142.452ZM109.206 396.645H105.279L104.313 402.042H108.24L109.206 396.645ZM118.698 392.529L118.257 394.923C118.145 395.511 117.9 395.945 117.522 396.225C117.144 396.505 116.542 396.645 115.716 396.645H113.973L113.007 402.042H115.653C116.241 402.042 116.654 402.217 116.892 402.567C117.144 402.917 117.207 403.512 117.081 404.352L116.787 406.158H112.419L110.865 414.6H108.198C107.932 414.6 107.68 414.537 107.442 414.411C107.218 414.285 107.022 414.117 106.854 413.907C106.7 413.683 106.588 413.431 106.518 413.151C106.462 412.871 106.469 412.57 106.539 412.248L107.652 406.158H103.746L102.612 412.542C102.472 413.284 102.157 413.816 101.667 414.138C101.177 414.446 100.624 414.6 100.008 414.6H97.4457L98.9787 406.158H96.8157C96.2277 406.158 95.8077 405.99 95.5557 405.654C95.3177 405.304 95.2617 404.709 95.3877 403.869L95.6817 402.042H99.5667L100.533 396.645H96.1857L96.6267 394.251C96.7387 393.663 96.9837 393.229 97.3617 392.949C97.7537 392.669 98.3627 392.529 99.1887 392.529H101.1L102.318 386.04C102.43 385.452 102.71 384.99 103.158 384.654C103.62 384.304 104.152 384.129 104.754 384.129H107.4L105.846 392.529H109.773L111.327 384.129H113.91C114.512 384.129 114.988 384.318 115.338 384.696C115.702 385.06 115.835 385.522 115.737 386.082L114.54 392.529H118.698ZM127.983 395.049C128.613 394.923 129.215 394.832 129.789 394.776C130.377 394.72 130.944 394.692 131.49 394.692C133.086 394.692 134.493 394.937 135.711 395.427C136.943 395.903 137.972 396.561 138.798 397.401C139.638 398.241 140.268 399.228 140.688 400.362C141.108 401.496 141.318 402.714 141.318 404.016C141.318 405.64 141.031 407.124 140.457 408.468C139.883 409.798 139.085 410.946 138.063 411.912C137.055 412.864 135.844 413.606 134.43 414.138C133.03 414.67 131.497 414.936 129.831 414.936C128.865 414.936 127.941 414.831 127.059 414.621C126.177 414.425 125.351 414.159 124.581 413.823C123.825 413.473 123.118 413.074 122.46 412.626C121.802 412.178 121.214 411.709 120.696 411.219L122.481 408.783C122.859 408.265 123.349 408.006 123.951 408.006C124.329 408.006 124.7 408.118 125.064 408.342C125.428 408.566 125.841 408.818 126.303 409.098C126.765 409.364 127.304 409.609 127.92 409.833C128.536 410.057 129.285 410.169 130.167 410.169C131.077 410.169 131.868 410.022 132.54 409.728C133.212 409.42 133.765 409.007 134.199 408.489C134.647 407.957 134.976 407.334 135.186 406.62C135.41 405.892 135.522 405.115 135.522 404.289C135.522 402.707 135.067 401.489 134.157 400.635C133.261 399.767 131.952 399.333 130.23 399.333C128.816 399.333 127.395 399.599 125.967 400.131L122.376 399.123L124.938 384.129H140.226V386.565C140.226 386.971 140.163 387.342 140.037 387.678C139.925 388 139.729 388.287 139.449 388.539C139.183 388.777 138.833 388.966 138.399 389.106C137.979 389.232 137.461 389.295 136.845 389.295H128.97L127.983 395.049Z" fill="#FBD880"/>
</g>
<g clip-path="url(#clip2_5_220)">
<path d="M105.606 191.645H101.679L100.713 197.042H104.64L105.606 191.645ZM115.098 187.529L114.657 189.923C114.545 190.511 114.3 190.945 113.922 191.225C113.544 191.505 112.942 191.645 112.116 191.645H110.373L109.407 197.042H112.053C112.641 197.042 113.054 197.217 113.292 197.567C113.544 197.917 113.607 198.512 113.481 199.352L113.187 201.158H108.819L107.265 209.6H104.598C104.332 209.6 104.08 209.537 103.842 209.411C103.618 209.285 103.422 209.117 103.254 208.907C103.1 208.683 102.988 208.431 102.918 208.151C102.862 207.871 102.869 207.57 102.939 207.248L104.052 201.158H100.146L99.0117 207.542C98.8717 208.284 98.5567 208.816 98.0667 209.138C97.5767 209.446 97.0237 209.6 96.4077 209.6H93.8457L95.3787 201.158H93.2157C92.6277 201.158 92.2077 200.99 91.9557 200.654C91.7177 200.304 91.6617 199.709 91.7877 198.869L92.0817 197.042H95.9667L96.9327 191.645H92.5857L93.0267 189.251C93.1387 188.663 93.3837 188.229 93.7617 187.949C94.1537 187.669 94.7627 187.529 95.5887 187.529H97.4997L98.7177 181.04C98.8297 180.452 99.1097 179.99 99.5577 179.654C100.02 179.304 100.552 179.129 101.154 179.129H103.8L102.246 187.529H106.173L107.727 179.129H110.31C110.912 179.129 111.388 179.318 111.738 179.696C112.102 180.06 112.235 180.522 112.137 181.082L110.94 187.529H115.098ZM137.382 205.337V209.6H120.288V205.337H126.336V188.663C126.336 188.299 126.343 187.928 126.357 187.55C126.371 187.172 126.392 186.787 126.42 186.395L122.43 189.713C122.15 189.923 121.877 190.056 121.611 190.112C121.345 190.168 121.093 190.175 120.855 190.133C120.617 190.077 120.407 189.993 120.225 189.881C120.043 189.755 119.903 189.629 119.805 189.503L117.978 187.046L127.344 179.108H132.111V205.337H137.382ZM105.606 242.645H101.679L100.713 248.042H104.64L105.606 242.645ZM115.098 238.529L114.657 240.923C114.545 241.511 114.3 241.945 113.922 242.225C113.544 242.505 112.942 242.645 112.116 242.645H110.373L109.407 248.042H112.053C112.641 248.042 113.054 248.217 113.292 248.567C113.544 248.917 113.607 249.512 113.481 250.352L113.187 252.158H108.819L107.265 260.6H104.598C104.332 260.6 104.08 260.537 103.842 260.411C103.618 260.285 103.422 260.117 103.254 259.907C103.1 259.683 102.988 259.431 102.918 259.151C102.862 258.871 102.869 258.57 102.939 258.248L104.052 252.158H100.146L99.0117 258.542C98.8717 259.284 98.5567 259.816 98.0667 260.138C97.5767 260.446 97.0237 260.6 96.4077 260.6H93.8457L95.3787 252.158H93.2157C92.6277 252.158 92.2077 251.99 91.9557 251.654C91.7177 251.304 91.6617 250.709 91.7877 249.869L92.0817 248.042H95.9667L96.9327 242.645H92.5857L93.0267 240.251C93.1387 239.663 93.3837 239.229 93.7617 238.949C94.1537 238.669 94.7627 238.529 95.5887 238.529H97.4997L98.7177 232.04C98.8297 231.452 99.1097 230.99 99.5577 230.654C100.02 230.304 100.552 230.129 101.154 230.129H103.8L102.246 238.529H106.173L107.727 230.129H110.31C110.912 230.129 111.388 230.318 111.738 230.696C112.102 231.06 112.235 231.522 112.137 232.082L110.94 238.529H115.098ZM136.059 255.287C136.689 255.287 137.179 255.462 137.529 255.812C137.893 256.162 138.075 256.624 138.075 257.198V260.6H116.949V258.71C116.949 258.346 117.026 257.954 117.18 257.534C117.334 257.1 117.593 256.708 117.957 256.358L126.987 247.307C127.757 246.537 128.436 245.802 129.024 245.102C129.612 244.388 130.102 243.695 130.494 243.023C130.886 242.337 131.18 241.644 131.376 240.944C131.572 240.244 131.67 239.509 131.67 238.739C131.67 237.381 131.32 236.352 130.62 235.652C129.92 234.938 128.933 234.581 127.659 234.581C127.099 234.581 126.581 234.665 126.105 234.833C125.643 234.987 125.223 235.204 124.845 235.484C124.481 235.764 124.166 236.093 123.9 236.471C123.634 236.849 123.438 237.262 123.312 237.71C123.06 238.41 122.717 238.879 122.283 239.117C121.863 239.341 121.261 239.39 120.477 239.264L117.411 238.718C117.635 237.234 118.055 235.932 118.671 234.812C119.287 233.692 120.057 232.761 120.981 232.019C121.905 231.277 122.962 230.724 124.152 230.36C125.342 229.982 126.623 229.793 127.995 229.793C129.437 229.793 130.746 230.01 131.922 230.444C133.112 230.864 134.127 231.459 134.967 232.229C135.807 232.985 136.458 233.902 136.92 234.98C137.382 236.058 137.613 237.248 137.613 238.55C137.613 239.67 137.452 240.706 137.13 241.658C136.808 242.61 136.367 243.52 135.807 244.388C135.261 245.242 134.624 246.075 133.896 246.887C133.168 247.699 132.398 248.518 131.586 249.344L125.118 255.959C125.832 255.749 126.539 255.588 127.239 255.476C127.939 255.35 128.597 255.287 129.213 255.287H136.059ZM105.606 292.645H101.679L100.713 298.042H104.64L105.606 292.645ZM115.098 288.529L114.657 290.923C114.545 291.511 114.3 291.945 113.922 292.225C113.544 292.505 112.942 292.645 112.116 292.645H110.373L109.407 298.042H112.053C112.641 298.042 113.054 298.217 113.292 298.567C113.544 298.917 113.607 299.512 113.481 300.352L113.187 302.158H108.819L107.265 310.6H104.598C104.332 310.6 104.08 310.537 103.842 310.411C103.618 310.285 103.422 310.117 103.254 309.907C103.1 309.683 102.988 309.431 102.918 309.151C102.862 308.871 102.869 308.57 102.939 308.248L104.052 302.158H100.146L99.0117 308.542C98.8717 309.284 98.5567 309.816 98.0667 310.138C97.5767 310.446 97.0237 310.6 96.4077 310.6H93.8457L95.3787 302.158H93.2157C92.6277 302.158 92.2077 301.99 91.9557 301.654C91.7177 301.304 91.6617 300.709 91.7877 299.869L92.0817 298.042H95.9667L96.9327 292.645H92.5857L93.0267 290.251C93.1387 289.663 93.3837 289.229 93.7617 288.949C94.1537 288.669 94.7627 288.529 95.5887 288.529H97.4997L98.7177 282.04C98.8297 281.452 99.1097 280.99 99.5577 280.654C100.02 280.304 100.552 280.129 101.154 280.129H103.8L102.246 288.529H106.173L107.727 280.129H110.31C110.912 280.129 111.388 280.318 111.738 280.696C112.102 281.06 112.235 281.522 112.137 282.082L110.94 288.529H115.098ZM117.579 288.718C117.803 287.234 118.223 285.932 118.839 284.812C119.455 283.692 120.225 282.761 121.149 282.019C122.073 281.277 123.123 280.724 124.299 280.36C125.489 279.982 126.77 279.793 128.142 279.793C129.598 279.793 130.9 280.003 132.048 280.423C133.21 280.829 134.19 281.389 134.988 282.103C135.786 282.817 136.395 283.65 136.815 284.602C137.249 285.554 137.466 286.576 137.466 287.668C137.466 288.634 137.361 289.488 137.151 290.23C136.955 290.958 136.654 291.595 136.248 292.141C135.856 292.687 135.366 293.149 134.778 293.527C134.204 293.905 133.539 294.22 132.783 294.472C136.283 295.62 138.033 297.951 138.033 301.465C138.033 303.019 137.746 304.391 137.172 305.581C136.598 306.757 135.828 307.744 134.862 308.542C133.896 309.34 132.769 309.942 131.481 310.348C130.207 310.74 128.87 310.936 127.47 310.936C125.986 310.936 124.677 310.768 123.543 310.432C122.409 310.096 121.408 309.592 120.54 308.92C119.686 308.248 118.951 307.408 118.335 306.4C117.719 305.378 117.18 304.188 116.718 302.83L119.28 301.78C119.952 301.5 120.575 301.423 121.149 301.549C121.737 301.675 122.157 301.983 122.409 302.473C122.689 303.005 122.983 303.495 123.291 303.943C123.613 304.391 123.97 304.783 124.362 305.119C124.754 305.441 125.195 305.693 125.685 305.875C126.189 306.057 126.763 306.148 127.407 306.148C128.219 306.148 128.926 306.015 129.528 305.749C130.13 305.483 130.634 305.14 131.04 304.72C131.446 304.286 131.747 303.803 131.943 303.271C132.153 302.725 132.258 302.186 132.258 301.654C132.258 300.954 132.195 300.324 132.069 299.764C131.943 299.19 131.649 298.707 131.187 298.315C130.739 297.909 130.067 297.601 129.171 297.391C128.289 297.167 127.085 297.055 125.559 297.055V292.981C126.833 292.981 127.876 292.876 128.688 292.666C129.5 292.456 130.137 292.162 130.599 291.784C131.061 291.406 131.376 290.951 131.544 290.419C131.726 289.887 131.817 289.306 131.817 288.676C131.817 287.346 131.467 286.331 130.767 285.631C130.081 284.931 129.101 284.581 127.827 284.581C127.267 284.581 126.749 284.665 126.273 284.833C125.811 284.987 125.391 285.204 125.013 285.484C124.649 285.764 124.334 286.093 124.068 286.471C123.802 286.849 123.606 287.262 123.48 287.71C123.214 288.41 122.871 288.879 122.451 289.117C122.031 289.341 121.422 289.39 120.624 289.264L117.579 288.718ZM105.606 343.645H101.679L100.713 349.042H104.64L105.606 343.645ZM115.098 339.529L114.657 341.923C114.545 342.511 114.3 342.945 113.922 343.225C113.544 343.505 112.942 343.645 112.116 343.645H110.373L109.407 349.042H112.053C112.641 349.042 113.054 349.217 113.292 349.567C113.544 349.917 113.607 350.512 113.481 351.352L113.187 353.158H108.819L107.265 361.6H104.598C104.332 361.6 104.08 361.537 103.842 361.411C103.618 361.285 103.422 361.117 103.254 360.907C103.1 360.683 102.988 360.431 102.918 360.151C102.862 359.871 102.869 359.57 102.939 359.248L104.052 353.158H100.146L99.0117 359.542C98.8717 360.284 98.5567 360.816 98.0667 361.138C97.5767 361.446 97.0237 361.6 96.4077 361.6H93.8457L95.3787 353.158H93.2157C92.6277 353.158 92.2077 352.99 91.9557 352.654C91.7177 352.304 91.6617 351.709 91.7877 350.869L92.0817 349.042H95.9667L96.9327 343.645H92.5857L93.0267 341.251C93.1387 340.663 93.3837 340.229 93.7617 339.949C94.1537 339.669 94.7627 339.529 95.5887 339.529H97.4997L98.7177 333.04C98.8297 332.452 99.1097 331.99 99.5577 331.654C100.02 331.304 100.552 331.129 101.154 331.129H103.8L102.246 339.529H106.173L107.727 331.129H110.31C110.912 331.129 111.388 331.318 111.738 331.696C112.102 332.06 112.235 332.522 112.137 333.082L110.94 339.529H115.098ZM130.284 349.966V340.894C130.284 340.418 130.298 339.914 130.326 339.382C130.368 338.836 130.424 338.269 130.494 337.681L121.674 349.966H130.284ZM138.852 349.966V353.242C138.852 353.55 138.747 353.816 138.537 354.04C138.341 354.25 138.061 354.355 137.697 354.355H135.324V361.6H130.284V354.355H117.705C117.341 354.355 117.005 354.243 116.697 354.019C116.403 353.795 116.221 353.501 116.151 353.137L115.542 350.239L129.822 331.108H135.324V349.966H138.852ZM105.606 393.645H101.679L100.713 399.042H104.64L105.606 393.645ZM115.098 389.529L114.657 391.923C114.545 392.511 114.3 392.945 113.922 393.225C113.544 393.505 112.942 393.645 112.116 393.645H110.373L109.407 399.042H112.053C112.641 399.042 113.054 399.217 113.292 399.567C113.544 399.917 113.607 400.512 113.481 401.352L113.187 403.158H108.819L107.265 411.6H104.598C104.332 411.6 104.08 411.537 103.842 411.411C103.618 411.285 103.422 411.117 103.254 410.907C103.1 410.683 102.988 410.431 102.918 410.151C102.862 409.871 102.869 409.57 102.939 409.248L104.052 403.158H100.146L99.0117 409.542C98.8717 410.284 98.5567 410.816 98.0667 411.138C97.5767 411.446 97.0237 411.6 96.4077 411.6H93.8457L95.3787 403.158H93.2157C92.6277 403.158 92.2077 402.99 91.9557 402.654C91.7177 402.304 91.6617 401.709 91.7877 400.869L92.0817 399.042H95.9667L96.9327 393.645H92.5857L93.0267 391.251C93.1387 390.663 93.3837 390.229 93.7617 389.949C94.1537 389.669 94.7627 389.529 95.5887 389.529H97.4997L98.7177 383.04C98.8297 382.452 99.1097 381.99 99.5577 381.654C100.02 381.304 100.552 381.129 101.154 381.129H103.8L102.246 389.529H106.173L107.727 381.129H110.31C110.912 381.129 111.388 381.318 111.738 381.696C112.102 382.06 112.235 382.522 112.137 383.082L110.94 389.529H115.098ZM124.383 392.049C125.013 391.923 125.615 391.832 126.189 391.776C126.777 391.72 127.344 391.692 127.89 391.692C129.486 391.692 130.893 391.937 132.111 392.427C133.343 392.903 134.372 393.561 135.198 394.401C136.038 395.241 136.668 396.228 137.088 397.362C137.508 398.496 137.718 399.714 137.718 401.016C137.718 402.64 137.431 404.124 136.857 405.468C136.283 406.798 135.485 407.946 134.463 408.912C133.455 409.864 132.244 410.606 130.83 411.138C129.43 411.67 127.897 411.936 126.231 411.936C125.265 411.936 124.341 411.831 123.459 411.621C122.577 411.425 121.751 411.159 120.981 410.823C120.225 410.473 119.518 410.074 118.86 409.626C118.202 409.178 117.614 408.709 117.096 408.219L118.881 405.783C119.259 405.265 119.749 405.006 120.351 405.006C120.729 405.006 121.1 405.118 121.464 405.342C121.828 405.566 122.241 405.818 122.703 406.098C123.165 406.364 123.704 406.609 124.32 406.833C124.936 407.057 125.685 407.169 126.567 407.169C127.477 407.169 128.268 407.022 128.94 406.728C129.612 406.42 130.165 406.007 130.599 405.489C131.047 404.957 131.376 404.334 131.586 403.62C131.81 402.892 131.922 402.115 131.922 401.289C131.922 399.707 131.467 398.489 130.557 397.635C129.661 396.767 128.352 396.333 126.63 396.333C125.216 396.333 123.795 396.599 122.367 397.131L118.776 396.123L121.338 381.129H136.626V383.565C136.626 383.971 136.563 384.342 136.437 384.678C136.325 385 136.129 385.287 135.849 385.539C135.583 385.777 135.233 385.966 134.799 386.106C134.379 386.232 133.861 386.295 133.245 386.295H125.37L124.383 392.049Z" fill="#232323"/>
</g>
<defs>
<clipPath id="clip0_5_220">
<rect width="105.6" height="105.6" fill="white" transform="translate(64.5 12)"/>
</clipPath>
<clipPath id="clip1_5_220">
<rect width="106.8" height="51" fill="white" transform="translate(65.7 171.6)"/>
</clipPath>
<clipPath id="clip2_5_220">
<rect width="106.8" height="51" fill="white" transform="translate(62.1 168.6)"/>
</clipPath>
</defs>
</svg>
