<svg width="234" height="235" viewBox="0 0 234 235" fill="none" xmlns="http://www.w3.org/2000/svg">
<mask id="path-1-inside-1_5_185" fill="white">
<path d="M0 0H233.818V234.416H0V0Z"/>
</mask>
<path d="M233.818 233.818H0V235.014H233.818V233.818Z" fill="#C4C4C4" mask="url(#path-1-inside-1_5_185)"/>
<g clip-path="url(#clip0_5_185)">
<path d="M153.417 47.2587H149.984V41.1334C149.984 40.3175 149.323 39.6561 148.507 39.6561H146.31V33.5307C146.31 32.7149 145.649 32.0535 144.833 32.0535H138.342V20.7098C138.342 19.8939 137.681 19.2326 136.865 19.2326H128.529V18.1803C128.529 17.6578 128.253 17.1742 127.803 16.9085L119.774 12.1654C119.546 12.0309 119.287 11.96 119.023 11.96H114.795C114.531 11.96 114.272 12.0309 114.044 12.1654L106.015 16.9085C105.565 17.1742 105.289 17.6578 105.289 18.1803V19.2326H96.9527C96.1368 19.2326 95.4755 19.8939 95.4755 20.7098V32.0535H88.9851C88.1692 32.0535 87.5079 32.7149 87.5079 33.5307V39.6561H85.3111C84.4952 39.6561 83.8339 40.3175 83.8339 41.1334V47.2587H80.401C79.5851 47.2587 78.9237 47.9201 78.9237 48.736C78.9237 49.5518 79.5851 50.2132 80.401 50.2132H83.257V116.329C83.257 117.145 83.9184 117.806 84.7343 117.806H103.391C104.207 117.806 104.869 117.145 104.869 116.329V76.2771H105.395C106.211 76.2771 106.873 75.6157 106.873 74.7998C106.873 73.984 106.211 73.3226 105.395 73.3226H104.869V71.0942C104.869 64.4555 110.27 59.0542 116.909 59.0542C120.126 59.0542 123.15 60.3062 125.424 62.5794C127.697 64.8525 128.949 67.8766 128.949 71.0942V73.3226H128.423C127.607 73.3226 126.945 73.984 126.945 74.7998C126.945 75.6157 127.607 76.2771 128.423 76.2771H128.949V116.329C128.949 117.145 129.61 117.806 130.426 117.806H149.083C149.899 117.806 150.561 117.145 150.561 116.329V50.2132H153.417C154.233 50.2132 154.894 49.5518 154.894 48.736C154.894 47.9201 154.233 47.2587 153.417 47.2587ZM108.243 19.0233L115.199 14.9145H118.619L125.575 19.0233V19.2326H108.243V19.0233ZM98.4302 22.1871H135.388V32.0535H98.4302V22.1871ZM90.4626 35.008H143.355V39.6561H90.4626V35.008ZM86.7886 42.6106H147.029V47.2587H86.7886V42.6106ZM86.2118 114.851V89.0042H101.914V114.851H86.2118ZM101.914 86.0497H86.2118V76.2771H101.914V86.0497ZM127.513 60.4901C124.682 57.6588 120.916 56.0997 116.909 56.0997C108.641 56.0997 101.914 62.8262 101.914 71.0942V73.3226H86.2118V50.2139H147.606V73.3226H131.904V71.0942C131.904 67.0872 130.344 63.3214 127.513 60.4901ZM147.606 76.2771V86.0497H131.903V76.2771H147.606ZM131.904 114.851V89.0042H147.606V114.851H131.904Z" fill="black"/>
<path d="M94.0637 56.9592C91.3694 56.9592 89.1774 59.1512 89.1774 61.8455C89.1774 64.5398 91.3694 66.7318 94.0637 66.7318C96.758 66.7318 98.95 64.5398 98.95 61.8455C98.95 59.1512 96.758 56.9592 94.0637 56.9592ZM94.0637 63.7773C92.9985 63.7773 92.1319 62.9107 92.1319 61.8455C92.1319 60.7803 92.9985 59.9137 94.0637 59.9137C95.1289 59.9137 95.9955 60.7803 95.9955 61.8455C95.9955 62.9107 95.1287 63.7773 94.0637 63.7773Z" fill="black"/>
<path d="M102.624 23.4841C100.619 23.4841 98.9879 25.1152 98.9879 27.1202C98.9879 29.1252 100.619 30.7563 102.624 30.7563C104.629 30.7563 106.26 29.1252 106.26 27.1202C106.26 25.1152 104.629 23.4841 102.624 23.4841ZM102.624 27.8018C102.248 27.8018 101.942 27.4961 101.942 27.1202C101.942 26.7443 102.248 26.4386 102.624 26.4386C103 26.4386 103.306 26.7443 103.306 27.1202C103.306 27.4961 103 27.8018 102.624 27.8018Z" fill="black"/>
<path d="M131.194 23.4841C129.189 23.4841 127.558 25.1152 127.558 27.1202C127.558 29.1252 129.189 30.7563 131.194 30.7563C133.199 30.7563 134.83 29.1252 134.83 27.1202C134.83 25.1152 133.199 23.4841 131.194 23.4841ZM131.194 27.8018C130.819 27.8018 130.513 27.4961 130.513 27.1202C130.513 26.7443 130.819 26.4386 131.194 26.4386C131.57 26.4386 131.876 26.7443 131.876 27.1202C131.876 27.4961 131.57 27.8018 131.194 27.8018Z" fill="black"/>
<path d="M139.754 66.7318C142.449 66.7318 144.641 64.5398 144.641 61.8455C144.641 59.1512 142.449 56.9592 139.754 56.9592C137.06 56.9592 134.868 59.1512 134.868 61.8455C134.868 64.5398 137.06 66.7318 139.754 66.7318ZM139.754 59.9137C140.82 59.9137 141.686 60.7803 141.686 61.8455C141.686 62.9107 140.82 63.7773 139.754 63.7773C138.689 63.7773 137.823 62.9107 137.823 61.8455C137.823 60.7803 138.689 59.9137 139.754 59.9137Z" fill="black"/>
</g>
<path d="M73.466 139.347C73.8008 139.347 74.0958 139.307 74.351 139.227C74.6101 139.143 74.8254 139.028 74.9968 138.88C75.1722 138.729 75.3038 138.549 75.3915 138.342C75.4792 138.135 75.5231 137.905 75.5231 137.654C75.5231 137.144 75.3556 136.759 75.0208 136.5C74.6859 136.241 74.1836 136.111 73.5138 136.111H72.246V139.347H73.466ZM77.4247 143.766H76.3962C76.1849 143.766 76.0294 143.684 75.9297 143.521L73.7052 140.459C73.6374 140.363 73.5636 140.295 73.4839 140.256C73.4081 140.212 73.2885 140.19 73.1251 140.19H72.246V143.766H71.0919V135.197H73.5138C74.056 135.197 74.5244 135.252 74.9191 135.364C75.3138 135.472 75.6387 135.629 75.8938 135.836C76.153 136.044 76.3443 136.295 76.4679 136.59C76.5915 136.881 76.6533 137.208 76.6533 137.571C76.6533 137.874 76.6055 138.157 76.5098 138.42C76.4141 138.683 76.2746 138.92 76.0912 139.131C75.9118 139.339 75.6905 139.516 75.4274 139.664C75.1683 139.811 74.8732 139.923 74.5424 139.998C74.6899 140.082 74.8174 140.204 74.9251 140.363L77.4247 143.766ZM83.141 140.585L81.7955 137.098C81.7557 136.995 81.7138 136.875 81.67 136.739C81.6261 136.6 81.5842 136.452 81.5444 136.297C81.4607 136.62 81.3749 136.889 81.2872 137.104L79.9417 140.585H83.141ZM85.557 143.766H84.66C84.5563 143.766 84.4726 143.74 84.4088 143.688C84.345 143.636 84.2972 143.571 84.2653 143.491L83.464 141.422H79.6188L78.8175 143.491C78.7936 143.563 78.7477 143.626 78.68 143.682C78.6122 143.738 78.5285 143.766 78.4288 143.766H77.5318L80.9583 135.197H82.1304L85.557 143.766ZM93.6271 135.197V143.766H93.047C92.9553 143.766 92.8776 143.75 92.8138 143.718C92.754 143.686 92.6942 143.632 92.6344 143.557L87.677 137.098C87.6849 137.198 87.6909 137.296 87.6949 137.391C87.6989 137.487 87.7009 137.577 87.7009 137.66V143.766H86.6843V135.197H87.2823C87.3341 135.197 87.378 135.201 87.4138 135.208C87.4497 135.212 87.4816 135.222 87.5095 135.238C87.5374 135.25 87.5653 135.27 87.5932 135.298C87.6211 135.322 87.651 135.354 87.6829 135.394L92.6404 141.846C92.6324 141.743 92.6244 141.643 92.6164 141.547C92.6124 141.448 92.6105 141.354 92.6105 141.266V135.197H93.6271ZM96.9719 138.952H97.4085C97.56 138.952 97.6816 138.934 97.7733 138.898C97.8649 138.858 97.9487 138.793 98.0244 138.701L100.877 135.472C100.957 135.368 101.04 135.296 101.128 135.256C101.216 135.216 101.323 135.197 101.451 135.197H102.432L99.1666 138.886C99.0869 138.982 99.0091 139.062 98.9334 139.125C98.8616 139.185 98.7839 139.235 98.7001 139.275C98.8078 139.311 98.9055 139.365 98.9932 139.436C99.0809 139.504 99.1666 139.594 99.2503 139.705L102.659 143.766H101.654C101.579 143.766 101.513 143.762 101.457 143.754C101.405 143.742 101.359 143.726 101.319 143.706C101.28 143.682 101.244 143.656 101.212 143.628C101.184 143.596 101.156 143.561 101.128 143.521L98.1739 140.118C98.0942 140.018 98.0085 139.949 97.9168 139.909C97.8251 139.865 97.6855 139.843 97.4982 139.843H96.9719V143.766H95.8178V135.197H96.9719V138.952ZM111.79 142.953V143.766H107.197V142.953H109.033V137.11C109.033 136.935 109.039 136.757 109.051 136.578L107.526 137.888C107.474 137.931 107.423 137.959 107.371 137.971C107.319 137.979 107.271 137.979 107.227 137.971C107.183 137.963 107.142 137.947 107.102 137.923C107.066 137.899 107.038 137.874 107.018 137.846L106.683 137.385L109.237 135.179H110.104V142.953H111.79ZM117.005 140.674V137.14C117.005 137.036 117.009 136.923 117.017 136.799C117.025 136.676 117.037 136.55 117.053 136.422L113.932 140.674H117.005ZM119.236 140.674V141.284C119.236 141.348 119.216 141.402 119.176 141.446C119.14 141.489 119.083 141.511 119.003 141.511H117.938V143.766H117.005V141.511H113.202C113.122 141.511 113.053 141.489 112.993 141.446C112.937 141.398 112.901 141.34 112.885 141.272L112.778 140.728L116.946 135.197H117.938V140.674H119.236ZM124.892 143.766H123.732V135.197H124.892V143.766ZM134.027 135.197V143.766H133.447C133.355 143.766 133.278 143.75 133.214 143.718C133.154 143.686 133.094 143.632 133.034 143.557L128.077 137.098C128.085 137.198 128.091 137.296 128.095 137.391C128.099 137.487 128.101 137.577 128.101 137.66V143.766H127.084V135.197H127.682C127.734 135.197 127.778 135.201 127.814 135.208C127.85 135.212 127.882 135.222 127.91 135.238C127.937 135.25 127.965 135.27 127.993 135.298C128.021 135.322 128.051 135.354 128.083 135.394L133.04 141.846C133.032 141.743 133.024 141.643 133.016 141.547C133.012 141.448 133.01 141.354 133.01 141.266V135.197H134.027ZM143.432 140.585L142.086 137.098C142.046 136.995 142.004 136.875 141.961 136.739C141.917 136.6 141.875 136.452 141.835 136.297C141.751 136.62 141.665 136.889 141.578 137.104L140.232 140.585H143.432ZM145.848 143.766H144.951C144.847 143.766 144.763 143.74 144.699 143.688C144.636 143.636 144.588 143.571 144.556 143.491L143.755 141.422H139.909L139.108 143.491C139.084 143.563 139.038 143.626 138.971 143.682C138.903 143.738 138.819 143.766 138.719 143.766H137.822L141.249 135.197H142.421L145.848 143.766ZM151.358 136.536C151.322 136.596 151.282 136.642 151.239 136.674C151.199 136.701 151.149 136.715 151.089 136.715C151.021 136.715 150.942 136.682 150.85 136.614C150.758 136.546 150.643 136.472 150.503 136.393C150.367 136.309 150.202 136.233 150.007 136.165C149.815 136.098 149.582 136.064 149.307 136.064C149.048 136.064 148.819 136.1 148.619 136.171C148.424 136.239 148.259 136.333 148.123 136.452C147.991 136.572 147.892 136.713 147.824 136.877C147.756 137.036 147.722 137.21 147.722 137.397C147.722 137.636 147.78 137.836 147.896 137.995C148.015 138.151 148.171 138.284 148.362 138.396C148.558 138.507 148.777 138.605 149.02 138.689C149.267 138.769 149.518 138.852 149.773 138.94C150.033 139.028 150.284 139.127 150.527 139.239C150.774 139.347 150.993 139.484 151.185 139.652C151.38 139.819 151.536 140.024 151.651 140.268C151.771 140.511 151.831 140.81 151.831 141.165C151.831 141.539 151.767 141.892 151.639 142.223C151.512 142.55 151.324 142.835 151.077 143.078C150.834 143.321 150.533 143.513 150.174 143.652C149.819 143.792 149.415 143.862 148.96 143.862C148.402 143.862 147.896 143.762 147.441 143.563C146.987 143.359 146.598 143.086 146.275 142.743L146.61 142.193C146.642 142.149 146.68 142.113 146.724 142.085C146.771 142.054 146.823 142.038 146.879 142.038C146.931 142.038 146.989 142.06 147.053 142.103C147.12 142.143 147.196 142.195 147.28 142.259C147.364 142.323 147.459 142.392 147.567 142.468C147.674 142.544 147.796 142.614 147.932 142.678C148.071 142.741 148.229 142.795 148.404 142.839C148.579 142.879 148.777 142.899 148.996 142.899C149.271 142.899 149.516 142.861 149.732 142.785C149.947 142.709 150.128 142.604 150.276 142.468C150.427 142.329 150.543 142.163 150.623 141.972C150.702 141.781 150.742 141.567 150.742 141.332C150.742 141.073 150.682 140.862 150.563 140.698C150.447 140.531 150.294 140.391 150.102 140.28C149.911 140.168 149.692 140.074 149.445 139.998C149.197 139.919 148.946 139.839 148.691 139.759C148.436 139.676 148.185 139.58 147.938 139.472C147.69 139.365 147.471 139.225 147.28 139.054C147.088 138.882 146.933 138.669 146.813 138.414C146.698 138.155 146.64 137.836 146.64 137.457C146.64 137.154 146.698 136.861 146.813 136.578C146.933 136.295 147.104 136.044 147.328 135.824C147.555 135.605 147.832 135.43 148.159 135.298C148.49 135.167 148.868 135.101 149.295 135.101C149.773 135.101 150.208 135.177 150.599 135.328C150.993 135.48 151.34 135.699 151.639 135.986L151.358 136.536ZM154.629 143.766H153.469V135.197H154.629V143.766ZM161.372 140.585L160.026 137.098C159.986 136.995 159.944 136.875 159.9 136.739C159.857 136.6 159.815 136.452 159.775 136.297C159.691 136.62 159.605 136.889 159.518 137.104L158.172 140.585H161.372ZM163.787 143.766H162.89C162.787 143.766 162.703 143.74 162.639 143.688C162.576 143.636 162.528 143.571 162.496 143.491L161.694 141.422H157.849L157.048 143.491C157.024 143.563 156.978 143.626 156.91 143.682C156.843 143.738 156.759 143.766 156.659 143.766H155.762L159.189 135.197H160.361L163.787 143.766Z" fill="#232323"/>
<g clip-path="url(#clip1_5_185)">
<path d="M96.7007 194.731H92.7868L91.824 200.11H95.7379L96.7007 194.731ZM106.161 190.629L105.722 193.015C105.61 193.601 105.366 194.033 104.989 194.312C104.612 194.591 104.012 194.731 103.189 194.731H101.452L100.489 200.11H103.126C103.712 200.11 104.124 200.284 104.361 200.633C104.612 200.982 104.675 201.575 104.549 202.412L104.256 204.212H99.903L98.3541 212.626H95.696C95.4309 212.626 95.1798 212.563 94.9426 212.438C94.7193 212.312 94.524 212.145 94.3565 211.935C94.203 211.712 94.0914 211.461 94.0216 211.182C93.9658 210.903 93.9728 210.603 94.0426 210.282L95.1518 204.212H91.2589L90.1287 210.575C89.9891 211.314 89.6752 211.845 89.1868 212.166C88.6984 212.472 88.1473 212.626 87.5333 212.626H84.9799L86.5078 204.212H84.352C83.7659 204.212 83.3473 204.045 83.0962 203.71C82.859 203.361 82.8031 202.768 82.9287 201.931L83.2217 200.11H87.0938L88.0566 194.731H83.7241L84.1636 192.345C84.2752 191.759 84.5194 191.326 84.8961 191.047C85.2868 190.768 85.8938 190.629 86.7171 190.629H88.6217L89.8356 184.161C89.9473 183.575 90.2263 183.115 90.6728 182.78C91.1333 182.431 91.6635 182.257 92.2635 182.257H94.9007L93.3519 190.629H97.2658L98.8146 182.257H101.389C101.989 182.257 102.463 182.445 102.812 182.822C103.175 183.184 103.308 183.645 103.21 184.203L102.017 190.629H106.161ZM128.371 208.377V212.626H111.334V208.377H117.362V191.759C117.362 191.396 117.369 191.026 117.383 190.649C117.397 190.273 117.418 189.889 117.446 189.498L113.469 192.805C113.19 193.015 112.918 193.147 112.653 193.203C112.387 193.259 112.136 193.266 111.899 193.224C111.662 193.168 111.453 193.084 111.271 192.973C111.09 192.847 110.95 192.722 110.853 192.596L109.032 190.147L118.366 182.236H123.118V208.377H128.371ZM145.579 201.031V191.989C145.579 191.515 145.593 191.012 145.621 190.482C145.662 189.938 145.718 189.373 145.788 188.787L136.997 201.031H145.579ZM154.118 201.031V204.296C154.118 204.603 154.014 204.868 153.804 205.091C153.609 205.3 153.33 205.405 152.967 205.405H150.602V212.626H145.579V205.405H133.042C132.679 205.405 132.344 205.293 132.037 205.07C131.744 204.847 131.563 204.554 131.493 204.191L130.886 201.303L145.118 182.236H150.602V201.031H154.118ZM96.7007 245.731H92.7868L91.824 251.11H95.7379L96.7007 245.731ZM106.161 241.629L105.722 244.015C105.61 244.601 105.366 245.033 104.989 245.312C104.612 245.591 104.012 245.731 103.189 245.731H101.452L100.489 251.11H103.126C103.712 251.11 104.124 251.284 104.361 251.633C104.612 251.982 104.675 252.575 104.549 253.412L104.256 255.212H99.903L98.3541 263.626H95.696C95.4309 263.626 95.1798 263.563 94.9426 263.438C94.7193 263.312 94.524 263.145 94.3565 262.935C94.203 262.712 94.0914 262.461 94.0216 262.182C93.9658 261.903 93.9728 261.603 94.0426 261.282L95.1518 255.212H91.2589L90.1287 261.575C89.9891 262.314 89.6752 262.845 89.1868 263.166C88.6984 263.472 88.1473 263.626 87.5333 263.626H84.9799L86.5078 255.212H84.352C83.7659 255.212 83.3473 255.045 83.0962 254.71C82.859 254.361 82.8031 253.768 82.9287 252.931L83.2217 251.11H87.0938L88.0566 245.731H83.7241L84.1636 243.345C84.2752 242.759 84.5194 242.326 84.8961 242.047C85.2868 241.768 85.8938 241.629 86.7171 241.629H88.6217L89.8356 235.161C89.9473 234.575 90.2263 234.115 90.6728 233.78C91.1333 233.431 91.6635 233.257 92.2635 233.257H94.9007L93.3519 241.629H97.2658L98.8146 233.257H101.389C101.989 233.257 102.463 233.445 102.812 233.822C103.175 234.184 103.308 234.645 103.21 235.203L102.017 241.629H106.161ZM128.371 259.377V263.626H111.334V259.377H117.362V242.759C117.362 242.396 117.369 242.026 117.383 241.649C117.397 241.273 117.418 240.889 117.446 240.498L113.469 243.805C113.19 244.015 112.918 244.147 112.653 244.203C112.387 244.259 112.136 244.266 111.899 244.224C111.662 244.168 111.453 244.084 111.271 243.973C111.09 243.847 110.95 243.722 110.853 243.596L109.032 241.147L118.366 233.236H123.118V259.377H128.371ZM139.697 244.14C140.325 244.015 140.925 243.924 141.497 243.868C142.083 243.812 142.649 243.784 143.193 243.784C144.783 243.784 146.186 244.029 147.4 244.517C148.628 244.991 149.653 245.647 150.476 246.484C151.314 247.322 151.941 248.305 152.36 249.435C152.779 250.566 152.988 251.78 152.988 253.077C152.988 254.696 152.702 256.175 152.13 257.514C151.558 258.84 150.762 259.984 149.744 260.947C148.739 261.896 147.532 262.635 146.123 263.166C144.728 263.696 143.2 263.961 141.539 263.961C140.576 263.961 139.656 263.856 138.777 263.647C137.897 263.452 137.074 263.186 136.307 262.852C135.553 262.503 134.849 262.105 134.193 261.659C133.537 261.212 132.951 260.745 132.435 260.256L134.214 257.828C134.591 257.312 135.079 257.054 135.679 257.054C136.056 257.054 136.425 257.166 136.788 257.389C137.151 257.612 137.563 257.863 138.023 258.142C138.483 258.407 139.021 258.652 139.635 258.875C140.249 259.098 140.995 259.21 141.874 259.21C142.781 259.21 143.569 259.063 144.239 258.77C144.909 258.463 145.46 258.052 145.893 257.535C146.339 257.005 146.667 256.384 146.876 255.673C147.1 254.947 147.211 254.173 147.211 253.349C147.211 251.773 146.758 250.559 145.851 249.708C144.958 248.842 143.653 248.41 141.937 248.41C140.528 248.41 139.111 248.675 137.688 249.205L134.109 248.201L136.663 233.257H151.9V235.684C151.9 236.089 151.837 236.459 151.711 236.794C151.6 237.115 151.404 237.401 151.125 237.652C150.86 237.889 150.511 238.077 150.079 238.217C149.66 238.343 149.144 238.405 148.53 238.405H140.681L139.697 244.14ZM96.7007 295.731H92.7868L91.824 301.11H95.7379L96.7007 295.731ZM106.161 291.629L105.722 294.015C105.61 294.601 105.366 295.033 104.989 295.312C104.612 295.591 104.012 295.731 103.189 295.731H101.452L100.489 301.11H103.126C103.712 301.11 104.124 301.284 104.361 301.633C104.612 301.982 104.675 302.575 104.549 303.412L104.256 305.212H99.903L98.3541 313.626H95.696C95.4309 313.626 95.1798 313.563 94.9426 313.438C94.7193 313.312 94.524 313.145 94.3565 312.935C94.203 312.712 94.0914 312.461 94.0216 312.182C93.9658 311.903 93.9728 311.603 94.0426 311.282L95.1518 305.212H91.2589L90.1287 311.575C89.9891 312.314 89.6752 312.845 89.1868 313.166C88.6984 313.472 88.1473 313.626 87.5333 313.626H84.9799L86.5078 305.212H84.352C83.7659 305.212 83.3473 305.045 83.0962 304.71C82.859 304.361 82.8031 303.768 82.9287 302.931L83.2217 301.11H87.0938L88.0566 295.731H83.7241L84.1636 293.345C84.2752 292.759 84.5194 292.326 84.8961 292.047C85.2868 291.768 85.8938 291.629 86.7171 291.629H88.6217L89.8356 285.161C89.9473 284.575 90.2263 284.115 90.6728 283.78C91.1333 283.431 91.6635 283.257 92.2635 283.257H94.9007L93.3519 291.629H97.2658L98.8146 283.257H101.389C101.989 283.257 102.463 283.445 102.812 283.822C103.175 284.184 103.308 284.645 103.21 285.203L102.017 291.629H106.161ZM128.371 309.377V313.626H111.334V309.377H117.362V292.759C117.362 292.396 117.369 292.026 117.383 291.649C117.397 291.273 117.418 290.889 117.446 290.498L113.469 293.805C113.19 294.015 112.918 294.147 112.653 294.203C112.387 294.259 112.136 294.266 111.899 294.224C111.662 294.168 111.453 294.084 111.271 293.973C111.09 293.847 110.95 293.722 110.853 293.596L109.032 291.147L118.366 283.236H123.118V309.377H128.371ZM142.188 294.161L141.267 295.27C141.797 295.033 142.369 294.852 142.983 294.726C143.597 294.601 144.26 294.538 144.972 294.538C146.102 294.538 147.204 294.726 148.279 295.103C149.353 295.48 150.309 296.045 151.146 296.798C151.983 297.552 152.653 298.501 153.155 299.645C153.672 300.775 153.93 302.107 153.93 303.642C153.93 305.052 153.665 306.384 153.134 307.64C152.618 308.896 151.879 309.991 150.916 310.926C149.967 311.861 148.823 312.6 147.483 313.145C146.158 313.689 144.679 313.961 143.046 313.961C141.386 313.961 139.9 313.703 138.588 313.186C137.277 312.656 136.16 311.917 135.239 310.968C134.318 310.019 133.614 308.889 133.125 307.577C132.637 306.252 132.393 304.794 132.393 303.203C132.393 301.738 132.679 300.252 133.251 298.745C133.837 297.238 134.723 295.689 135.909 294.098L142.963 284.596C143.242 284.233 143.653 283.919 144.197 283.654C144.742 283.389 145.362 283.257 146.06 283.257H151.188L142.188 294.161ZM142.942 309.314C143.695 309.314 144.393 309.182 145.035 308.917C145.676 308.652 146.228 308.282 146.688 307.807C147.149 307.333 147.511 306.782 147.776 306.154C148.042 305.512 148.174 304.814 148.174 304.061C148.174 303.238 148.049 302.498 147.797 301.842C147.546 301.187 147.19 300.635 146.73 300.189C146.269 299.728 145.718 299.38 145.076 299.142C144.435 298.905 143.723 298.787 142.942 298.787C142.202 298.787 141.525 298.919 140.911 299.184C140.297 299.435 139.767 299.798 139.321 300.273C138.888 300.733 138.546 301.284 138.295 301.926C138.058 302.568 137.939 303.273 137.939 304.04C137.939 304.835 138.044 305.561 138.253 306.217C138.463 306.859 138.777 307.41 139.195 307.87C139.614 308.331 140.13 308.686 140.744 308.938C141.372 309.189 142.104 309.314 142.942 309.314ZM96.7007 345.731H92.7868L91.824 351.11H95.7379L96.7007 345.731ZM106.161 341.629L105.722 344.015C105.61 344.601 105.366 345.033 104.989 345.312C104.612 345.591 104.012 345.731 103.189 345.731H101.452L100.489 351.11H103.126C103.712 351.11 104.124 351.284 104.361 351.633C104.612 351.982 104.675 352.575 104.549 353.412L104.256 355.212H99.903L98.3541 363.626H95.696C95.4309 363.626 95.1798 363.563 94.9426 363.438C94.7193 363.312 94.524 363.145 94.3565 362.935C94.203 362.712 94.0914 362.461 94.0216 362.182C93.9658 361.903 93.9728 361.603 94.0426 361.282L95.1518 355.212H91.2589L90.1287 361.575C89.9891 362.314 89.6752 362.845 89.1868 363.166C88.6984 363.472 88.1473 363.626 87.5333 363.626H84.9799L86.5078 355.212H84.352C83.7659 355.212 83.3473 355.045 83.0962 354.71C82.859 354.361 82.8031 353.768 82.9287 352.931L83.2217 351.11H87.0938L88.0566 345.731H83.7241L84.1636 343.345C84.2752 342.759 84.5194 342.326 84.8961 342.047C85.2868 341.768 85.8938 341.629 86.7171 341.629H88.6217L89.8356 335.161C89.9473 334.575 90.2263 334.115 90.6728 333.78C91.1333 333.431 91.6635 333.257 92.2635 333.257H94.9007L93.3519 341.629H97.2658L98.8146 333.257H101.389C101.989 333.257 102.463 333.445 102.812 333.822C103.175 334.184 103.308 334.645 103.21 335.203L102.017 341.629H106.161ZM128.371 359.377V363.626H111.334V359.377H117.362V342.759C117.362 342.396 117.369 342.026 117.383 341.649C117.397 341.273 117.418 340.889 117.446 340.498L113.469 343.805C113.19 344.015 112.918 344.147 112.653 344.203C112.387 344.259 112.136 344.266 111.899 344.224C111.662 344.168 111.453 344.084 111.271 343.973C111.09 343.847 110.95 343.722 110.853 343.596L109.032 341.147L118.366 333.236H123.118V359.377H128.371ZM153.804 333.257V335.726C153.804 336.452 153.721 337.038 153.553 337.484C153.4 337.931 153.246 338.308 153.093 338.615L142.042 361.7C141.763 362.231 141.386 362.684 140.911 363.061C140.437 363.438 139.795 363.626 138.986 363.626H134.8L146.123 341.084C146.402 340.554 146.688 340.073 146.981 339.64C147.274 339.208 147.602 338.796 147.965 338.405H133.963C133.628 338.405 133.321 338.273 133.042 338.008C132.777 337.743 132.644 337.443 132.644 337.108V333.257H153.804ZM96.7007 395.731H92.7868L91.824 401.11H95.7379L96.7007 395.731ZM106.161 391.629L105.722 394.015C105.61 394.601 105.366 395.033 104.989 395.312C104.612 395.591 104.012 395.731 103.189 395.731H101.452L100.489 401.11H103.126C103.712 401.11 104.124 401.284 104.361 401.633C104.612 401.982 104.675 402.575 104.549 403.412L104.256 405.212H99.903L98.3541 413.626H95.696C95.4309 413.626 95.1798 413.563 94.9426 413.438C94.7193 413.312 94.524 413.145 94.3565 412.935C94.203 412.712 94.0914 412.461 94.0216 412.182C93.9658 411.903 93.9728 411.603 94.0426 411.282L95.1518 405.212H91.2589L90.1287 411.575C89.9891 412.314 89.6752 412.845 89.1868 413.166C88.6984 413.472 88.1473 413.626 87.5333 413.626H84.9799L86.5078 405.212H84.352C83.7659 405.212 83.3473 405.045 83.0962 404.71C82.859 404.361 82.8031 403.768 82.9287 402.931L83.2217 401.11H87.0938L88.0566 395.731H83.7241L84.1636 393.345C84.2752 392.759 84.5194 392.326 84.8961 392.047C85.2868 391.768 85.8938 391.629 86.7171 391.629H88.6217L89.8356 385.161C89.9473 384.575 90.2263 384.115 90.6728 383.78C91.1333 383.431 91.6635 383.257 92.2635 383.257H94.9007L93.3519 391.629H97.2658L98.8146 383.257H101.389C101.989 383.257 102.463 383.445 102.812 383.822C103.175 384.184 103.308 384.645 103.21 385.203L102.017 391.629H106.161ZM128.371 409.377V413.626H111.334V409.377H117.362V392.759C117.362 392.396 117.369 392.026 117.383 391.649C117.397 391.273 117.418 390.889 117.446 390.498L113.469 393.805C113.19 394.015 112.918 394.147 112.653 394.203C112.387 394.259 112.136 394.266 111.899 394.224C111.662 394.168 111.453 394.084 111.271 393.973C111.09 393.847 110.95 393.722 110.853 393.596L109.032 391.147L118.366 383.236H123.118V409.377H128.371ZM142.983 409.545C143.779 409.545 144.469 409.426 145.056 409.189C145.656 408.952 146.151 408.631 146.542 408.226C146.932 407.807 147.225 407.319 147.421 406.761C147.616 406.189 147.714 405.575 147.714 404.919C147.714 403.412 147.323 402.247 146.542 401.424C145.774 400.587 144.588 400.168 142.983 400.168C141.379 400.168 140.186 400.587 139.404 401.424C138.637 402.247 138.253 403.412 138.253 404.919C138.253 405.575 138.351 406.189 138.546 406.761C138.742 407.319 139.035 407.807 139.425 408.226C139.816 408.631 140.304 408.952 140.89 409.189C141.49 409.426 142.188 409.545 142.983 409.545ZM142.983 387.191C142.272 387.191 141.658 387.303 141.142 387.526C140.639 387.75 140.221 388.05 139.886 388.426C139.565 388.789 139.328 389.215 139.174 389.703C139.021 390.191 138.944 390.701 138.944 391.231C138.944 391.803 139.007 392.361 139.132 392.905C139.258 393.436 139.474 393.91 139.781 394.329C140.088 394.747 140.5 395.082 141.016 395.333C141.532 395.584 142.188 395.71 142.983 395.71C143.779 395.71 144.435 395.584 144.951 395.333C145.467 395.082 145.879 394.747 146.186 394.329C146.493 393.91 146.709 393.436 146.835 392.905C146.96 392.361 147.023 391.803 147.023 391.231C147.023 390.701 146.946 390.191 146.793 389.703C146.639 389.215 146.395 388.789 146.06 388.426C145.739 388.05 145.321 387.75 144.804 387.526C144.302 387.303 143.695 387.191 142.983 387.191ZM148.383 397.803C150.225 398.417 151.565 399.345 152.402 400.587C153.239 401.814 153.658 403.294 153.658 405.024C153.658 406.377 153.4 407.605 152.883 408.707C152.367 409.81 151.641 410.752 150.707 411.533C149.772 412.3 148.648 412.9 147.337 413.333C146.025 413.752 144.574 413.961 142.983 413.961C141.393 413.961 139.942 413.752 138.63 413.333C137.318 412.9 136.195 412.3 135.26 411.533C134.325 410.752 133.6 409.81 133.084 408.707C132.567 407.605 132.309 406.377 132.309 405.024C132.309 403.294 132.728 401.814 133.565 400.587C134.402 399.345 135.742 398.417 137.584 397.803C136.146 397.175 135.072 396.296 134.36 395.166C133.663 394.035 133.314 392.689 133.314 391.126C133.314 389.954 133.551 388.873 134.025 387.882C134.5 386.877 135.163 386.012 136.014 385.287C136.879 384.547 137.904 383.968 139.09 383.55C140.276 383.131 141.574 382.922 142.983 382.922C144.393 382.922 145.69 383.131 146.876 383.55C148.062 383.968 149.081 384.547 149.932 385.287C150.797 386.012 151.467 386.877 151.941 387.882C152.416 388.873 152.653 389.954 152.653 391.126C152.653 392.689 152.297 394.035 151.586 395.166C150.888 396.296 149.821 397.175 148.383 397.803Z" fill="#FBD880"/>
</g>
<g clip-path="url(#clip2_5_185)">
<path d="M93.1127 191.741H89.1987L88.236 197.12H92.1499L93.1127 191.741ZM102.573 187.639L102.133 190.025C102.022 190.611 101.778 191.043 101.401 191.322C101.024 191.601 100.424 191.741 99.601 191.741H97.8638L96.901 197.12H99.5382C100.124 197.12 100.536 197.294 100.773 197.643C101.024 197.992 101.087 198.585 100.961 199.422L100.668 201.222H96.3149L94.7661 209.636H92.108C91.8429 209.636 91.5917 209.573 91.3545 209.448C91.1313 209.322 90.9359 209.155 90.7685 208.945C90.615 208.722 90.5034 208.471 90.4336 208.192C90.3778 207.913 90.3848 207.613 90.4545 207.292L91.5638 201.222H87.6709L86.5406 207.585C86.4011 208.324 86.0872 208.855 85.5988 209.176C85.1104 209.482 84.5593 209.636 83.9453 209.636H81.3919L82.9197 201.222H80.764C80.1779 201.222 79.7593 201.055 79.5082 200.72C79.271 200.371 79.2151 199.778 79.3407 198.941L79.6337 197.12H83.5058L84.4686 191.741H80.1361L80.5756 189.355C80.6872 188.769 80.9314 188.336 81.3081 188.057C81.6988 187.778 82.3058 187.639 83.129 187.639H85.0337L86.2476 181.171C86.3592 180.585 86.6383 180.125 87.0848 179.79C87.5453 179.441 88.0755 179.267 88.6755 179.267H91.3127L89.7639 187.639H93.6778L95.2266 179.267H97.801C98.401 179.267 98.8754 179.455 99.2242 179.832C99.587 180.194 99.7196 180.655 99.6219 181.213L98.4289 187.639H102.573ZM124.783 205.387V209.636H107.746V205.387H113.774V188.769C113.774 188.406 113.781 188.036 113.795 187.659C113.809 187.283 113.83 186.899 113.858 186.508L109.881 189.815C109.602 190.025 109.33 190.157 109.065 190.213C108.799 190.269 108.548 190.276 108.311 190.234C108.074 190.178 107.865 190.094 107.683 189.983C107.502 189.857 107.362 189.732 107.265 189.606L105.444 187.157L114.778 179.246H119.53V205.387H124.783ZM141.991 198.041V188.999C141.991 188.525 142.005 188.022 142.033 187.492C142.074 186.948 142.13 186.383 142.2 185.797L133.409 198.041H141.991ZM150.53 198.041V201.306C150.53 201.613 150.426 201.878 150.216 202.101C150.021 202.31 149.742 202.415 149.379 202.415H147.014V209.636H141.991V202.415H129.454C129.091 202.415 128.756 202.304 128.449 202.08C128.156 201.857 127.975 201.564 127.905 201.201L127.298 198.313L141.53 179.246H147.014V198.041H150.53ZM93.1127 242.741H89.1987L88.236 248.12H92.1499L93.1127 242.741ZM102.573 238.639L102.133 241.025C102.022 241.611 101.778 242.043 101.401 242.322C101.024 242.601 100.424 242.741 99.601 242.741H97.8638L96.901 248.12H99.5382C100.124 248.12 100.536 248.294 100.773 248.643C101.024 248.992 101.087 249.585 100.961 250.422L100.668 252.222H96.3149L94.7661 260.636H92.108C91.8429 260.636 91.5917 260.573 91.3545 260.448C91.1313 260.322 90.9359 260.155 90.7685 259.945C90.615 259.722 90.5034 259.471 90.4336 259.192C90.3778 258.913 90.3848 258.613 90.4545 258.292L91.5638 252.222H87.6709L86.5406 258.585C86.4011 259.324 86.0872 259.855 85.5988 260.176C85.1104 260.482 84.5593 260.636 83.9453 260.636H81.3919L82.9197 252.222H80.764C80.1779 252.222 79.7593 252.055 79.5082 251.72C79.271 251.371 79.2151 250.778 79.3407 249.941L79.6337 248.12H83.5058L84.4686 242.741H80.1361L80.5756 240.355C80.6872 239.769 80.9314 239.336 81.3081 239.057C81.6988 238.778 82.3058 238.639 83.129 238.639H85.0337L86.2476 232.171C86.3592 231.585 86.6383 231.125 87.0848 230.79C87.5453 230.441 88.0755 230.267 88.6755 230.267H91.3127L89.7639 238.639H93.6778L95.2266 230.267H97.801C98.401 230.267 98.8754 230.455 99.2242 230.832C99.587 231.194 99.7196 231.655 99.6219 232.213L98.4289 238.639H102.573ZM124.783 256.387V260.636H107.746V256.387H113.774V239.769C113.774 239.406 113.781 239.036 113.795 238.659C113.809 238.283 113.83 237.899 113.858 237.508L109.881 240.815C109.602 241.025 109.33 241.157 109.065 241.213C108.799 241.269 108.548 241.276 108.311 241.234C108.074 241.178 107.865 241.094 107.683 240.983C107.502 240.857 107.362 240.732 107.265 240.606L105.444 238.157L114.778 230.246H119.53V256.387H124.783ZM136.109 241.15C136.737 241.025 137.337 240.934 137.909 240.878C138.495 240.822 139.061 240.794 139.605 240.794C141.195 240.794 142.598 241.039 143.812 241.527C145.04 242.001 146.065 242.657 146.888 243.494C147.726 244.332 148.353 245.315 148.772 246.445C149.191 247.576 149.4 248.79 149.4 250.087C149.4 251.706 149.114 253.185 148.542 254.524C147.97 255.85 147.174 256.994 146.156 257.957C145.151 258.906 143.944 259.645 142.535 260.176C141.14 260.706 139.612 260.971 137.951 260.971C136.988 260.971 136.068 260.866 135.188 260.657C134.309 260.462 133.486 260.196 132.719 259.862C131.965 259.513 131.261 259.115 130.605 258.669C129.949 258.222 129.363 257.755 128.847 257.266L130.626 254.838C131.002 254.322 131.491 254.064 132.091 254.064C132.468 254.064 132.837 254.176 133.2 254.399C133.563 254.622 133.975 254.873 134.435 255.152C134.895 255.417 135.433 255.662 136.047 255.885C136.661 256.108 137.407 256.22 138.286 256.22C139.193 256.22 139.981 256.073 140.651 255.78C141.321 255.473 141.872 255.062 142.305 254.545C142.751 254.015 143.079 253.394 143.288 252.683C143.512 251.957 143.623 251.183 143.623 250.359C143.623 248.783 143.17 247.569 142.263 246.718C141.37 245.852 140.065 245.42 138.349 245.42C136.94 245.42 135.523 245.685 134.1 246.215L130.521 245.211L133.075 230.267H148.312V232.694C148.312 233.099 148.249 233.469 148.123 233.804C148.012 234.125 147.816 234.411 147.537 234.662C147.272 234.899 146.923 235.087 146.491 235.227C146.072 235.353 145.556 235.415 144.942 235.415H137.093L136.109 241.15ZM93.1127 292.741H89.1987L88.236 298.12H92.1499L93.1127 292.741ZM102.573 288.639L102.133 291.025C102.022 291.611 101.778 292.043 101.401 292.322C101.024 292.601 100.424 292.741 99.601 292.741H97.8638L96.901 298.12H99.5382C100.124 298.12 100.536 298.294 100.773 298.643C101.024 298.992 101.087 299.585 100.961 300.422L100.668 302.222H96.3149L94.7661 310.636H92.108C91.8429 310.636 91.5917 310.573 91.3545 310.448C91.1313 310.322 90.9359 310.155 90.7685 309.945C90.615 309.722 90.5034 309.471 90.4336 309.192C90.3778 308.913 90.3848 308.613 90.4545 308.292L91.5638 302.222H87.6709L86.5406 308.585C86.4011 309.324 86.0872 309.855 85.5988 310.176C85.1104 310.482 84.5593 310.636 83.9453 310.636H81.3919L82.9197 302.222H80.764C80.1779 302.222 79.7593 302.055 79.5082 301.72C79.271 301.371 79.2151 300.778 79.3407 299.941L79.6337 298.12H83.5058L84.4686 292.741H80.1361L80.5756 290.355C80.6872 289.769 80.9314 289.336 81.3081 289.057C81.6988 288.778 82.3058 288.639 83.129 288.639H85.0337L86.2476 282.171C86.3592 281.585 86.6383 281.125 87.0848 280.79C87.5453 280.441 88.0755 280.267 88.6755 280.267H91.3127L89.7639 288.639H93.6778L95.2266 280.267H97.801C98.401 280.267 98.8754 280.455 99.2242 280.832C99.587 281.194 99.7196 281.655 99.6219 282.213L98.4289 288.639H102.573ZM124.783 306.387V310.636H107.746V306.387H113.774V289.769C113.774 289.406 113.781 289.036 113.795 288.659C113.809 288.283 113.83 287.899 113.858 287.508L109.881 290.815C109.602 291.025 109.33 291.157 109.065 291.213C108.799 291.269 108.548 291.276 108.311 291.234C108.074 291.178 107.865 291.094 107.683 290.983C107.502 290.857 107.362 290.732 107.265 290.606L105.444 288.157L114.778 280.246H119.53V306.387H124.783ZM138.6 291.171L137.679 292.28C138.209 292.043 138.781 291.862 139.395 291.736C140.009 291.611 140.672 291.548 141.384 291.548C142.514 291.548 143.616 291.736 144.691 292.113C145.765 292.49 146.721 293.055 147.558 293.808C148.395 294.562 149.065 295.511 149.567 296.655C150.084 297.785 150.342 299.118 150.342 300.652C150.342 302.062 150.077 303.394 149.546 304.65C149.03 305.906 148.291 307.001 147.328 307.936C146.379 308.871 145.235 309.61 143.895 310.155C142.57 310.699 141.091 310.971 139.458 310.971C137.798 310.971 136.312 310.713 135 310.196C133.689 309.666 132.572 308.927 131.651 307.978C130.73 307.029 130.026 305.899 129.537 304.587C129.049 303.262 128.805 301.804 128.805 300.213C128.805 298.748 129.091 297.262 129.663 295.755C130.249 294.248 131.135 292.699 132.321 291.108L139.374 281.606C139.654 281.243 140.065 280.929 140.609 280.664C141.154 280.399 141.774 280.267 142.472 280.267H147.6L138.6 291.171ZM139.354 306.324C140.107 306.324 140.805 306.192 141.447 305.927C142.088 305.662 142.64 305.292 143.1 304.817C143.56 304.343 143.923 303.792 144.188 303.164C144.454 302.522 144.586 301.824 144.586 301.071C144.586 300.248 144.46 299.508 144.209 298.852C143.958 298.197 143.602 297.645 143.142 297.199C142.681 296.738 142.13 296.39 141.488 296.152C140.847 295.915 140.135 295.797 139.354 295.797C138.614 295.797 137.937 295.929 137.323 296.194C136.709 296.445 136.179 296.808 135.733 297.283C135.3 297.743 134.958 298.294 134.707 298.936C134.47 299.578 134.351 300.283 134.351 301.05C134.351 301.845 134.456 302.571 134.665 303.227C134.875 303.869 135.188 304.42 135.607 304.88C136.026 305.341 136.542 305.697 137.156 305.948C137.784 306.199 138.516 306.324 139.354 306.324ZM93.1127 342.741H89.1987L88.236 348.12H92.1499L93.1127 342.741ZM102.573 338.639L102.133 341.025C102.022 341.611 101.778 342.043 101.401 342.322C101.024 342.601 100.424 342.741 99.601 342.741H97.8638L96.901 348.12H99.5382C100.124 348.12 100.536 348.294 100.773 348.643C101.024 348.992 101.087 349.585 100.961 350.422L100.668 352.222H96.3149L94.7661 360.636H92.108C91.8429 360.636 91.5917 360.573 91.3545 360.448C91.1313 360.322 90.9359 360.155 90.7685 359.945C90.615 359.722 90.5034 359.471 90.4336 359.192C90.3778 358.913 90.3848 358.613 90.4545 358.292L91.5638 352.222H87.6709L86.5406 358.585C86.4011 359.324 86.0872 359.855 85.5988 360.176C85.1104 360.482 84.5593 360.636 83.9453 360.636H81.3919L82.9197 352.222H80.764C80.1779 352.222 79.7593 352.055 79.5082 351.72C79.271 351.371 79.2151 350.778 79.3407 349.941L79.6337 348.12H83.5058L84.4686 342.741H80.1361L80.5756 340.355C80.6872 339.769 80.9314 339.336 81.3081 339.057C81.6988 338.778 82.3058 338.639 83.129 338.639H85.0337L86.2476 332.171C86.3592 331.585 86.6383 331.125 87.0848 330.79C87.5453 330.441 88.0755 330.267 88.6755 330.267H91.3127L89.7639 338.639H93.6778L95.2266 330.267H97.801C98.401 330.267 98.8754 330.455 99.2242 330.832C99.587 331.194 99.7196 331.655 99.6219 332.213L98.4289 338.639H102.573ZM124.783 356.387V360.636H107.746V356.387H113.774V339.769C113.774 339.406 113.781 339.036 113.795 338.659C113.809 338.283 113.83 337.899 113.858 337.508L109.881 340.815C109.602 341.025 109.33 341.157 109.065 341.213C108.799 341.269 108.548 341.276 108.311 341.234C108.074 341.178 107.865 341.094 107.683 340.983C107.502 340.857 107.362 340.732 107.265 340.606L105.444 338.157L114.778 330.246H119.53V356.387H124.783ZM150.216 330.267V332.736C150.216 333.462 150.133 334.048 149.965 334.494C149.812 334.941 149.658 335.318 149.505 335.625L138.454 358.71C138.175 359.241 137.798 359.694 137.323 360.071C136.849 360.448 136.207 360.636 135.398 360.636H131.212L142.535 338.094C142.814 337.564 143.1 337.083 143.393 336.65C143.686 336.218 144.014 335.806 144.377 335.415H130.375C130.04 335.415 129.733 335.283 129.454 335.018C129.189 334.753 129.056 334.453 129.056 334.118V330.267H150.216ZM93.1127 392.741H89.1987L88.236 398.12H92.1499L93.1127 392.741ZM102.573 388.639L102.133 391.025C102.022 391.611 101.778 392.043 101.401 392.322C101.024 392.601 100.424 392.741 99.601 392.741H97.8638L96.901 398.12H99.5382C100.124 398.12 100.536 398.294 100.773 398.643C101.024 398.992 101.087 399.585 100.961 400.422L100.668 402.222H96.3149L94.7661 410.636H92.108C91.8429 410.636 91.5917 410.573 91.3545 410.448C91.1313 410.322 90.9359 410.155 90.7685 409.945C90.615 409.722 90.5034 409.471 90.4336 409.192C90.3778 408.913 90.3848 408.613 90.4545 408.292L91.5638 402.222H87.6709L86.5406 408.585C86.4011 409.324 86.0872 409.855 85.5988 410.176C85.1104 410.482 84.5593 410.636 83.9453 410.636H81.3919L82.9197 402.222H80.764C80.1779 402.222 79.7593 402.055 79.5082 401.72C79.271 401.371 79.2151 400.778 79.3407 399.941L79.6337 398.12H83.5058L84.4686 392.741H80.1361L80.5756 390.355C80.6872 389.769 80.9314 389.336 81.3081 389.057C81.6988 388.778 82.3058 388.639 83.129 388.639H85.0337L86.2476 382.171C86.3592 381.585 86.6383 381.125 87.0848 380.79C87.5453 380.441 88.0755 380.267 88.6755 380.267H91.3127L89.7639 388.639H93.6778L95.2266 380.267H97.801C98.401 380.267 98.8754 380.455 99.2242 380.832C99.587 381.194 99.7196 381.655 99.6219 382.213L98.4289 388.639H102.573ZM124.783 406.387V410.636H107.746V406.387H113.774V389.769C113.774 389.406 113.781 389.036 113.795 388.659C113.809 388.283 113.83 387.899 113.858 387.508L109.881 390.815C109.602 391.025 109.33 391.157 109.065 391.213C108.799 391.269 108.548 391.276 108.311 391.234C108.074 391.178 107.865 391.094 107.683 390.983C107.502 390.857 107.362 390.732 107.265 390.606L105.444 388.157L114.778 380.246H119.53V406.387H124.783ZM139.395 406.555C140.191 406.555 140.881 406.436 141.467 406.199C142.067 405.962 142.563 405.641 142.954 405.236C143.344 404.817 143.637 404.329 143.833 403.771C144.028 403.199 144.126 402.585 144.126 401.929C144.126 400.422 143.735 399.257 142.954 398.434C142.186 397.597 141 397.178 139.395 397.178C137.791 397.178 136.598 397.597 135.816 398.434C135.049 399.257 134.665 400.422 134.665 401.929C134.665 402.585 134.763 403.199 134.958 403.771C135.154 404.329 135.447 404.817 135.837 405.236C136.228 405.641 136.716 405.962 137.302 406.199C137.902 406.436 138.6 406.555 139.395 406.555ZM139.395 384.201C138.684 384.201 138.07 384.313 137.554 384.536C137.051 384.76 136.633 385.06 136.298 385.436C135.977 385.799 135.74 386.225 135.586 386.713C135.433 387.201 135.356 387.711 135.356 388.241C135.356 388.813 135.419 389.371 135.544 389.915C135.67 390.446 135.886 390.92 136.193 391.339C136.5 391.757 136.912 392.092 137.428 392.343C137.944 392.594 138.6 392.72 139.395 392.72C140.191 392.72 140.847 392.594 141.363 392.343C141.879 392.092 142.291 391.757 142.598 391.339C142.905 390.92 143.121 390.446 143.247 389.915C143.372 389.371 143.435 388.813 143.435 388.241C143.435 387.711 143.358 387.201 143.205 386.713C143.051 386.225 142.807 385.799 142.472 385.436C142.151 385.06 141.733 384.76 141.216 384.536C140.714 384.313 140.107 384.201 139.395 384.201ZM144.795 394.813C146.637 395.427 147.977 396.355 148.814 397.597C149.651 398.824 150.07 400.304 150.07 402.034C150.07 403.387 149.812 404.615 149.295 405.717C148.779 406.82 148.053 407.762 147.119 408.543C146.184 409.31 145.06 409.91 143.749 410.343C142.437 410.762 140.986 410.971 139.395 410.971C137.805 410.971 136.354 410.762 135.042 410.343C133.73 409.91 132.607 409.31 131.672 408.543C130.737 407.762 130.012 406.82 129.496 405.717C128.979 404.615 128.721 403.387 128.721 402.034C128.721 400.304 129.14 398.824 129.977 397.597C130.814 396.355 132.154 395.427 133.995 394.813C132.558 394.185 131.484 393.306 130.772 392.176C130.075 391.046 129.726 389.699 129.726 388.136C129.726 386.964 129.963 385.883 130.437 384.892C130.912 383.887 131.575 383.022 132.426 382.297C133.291 381.557 134.316 380.978 135.502 380.56C136.688 380.141 137.986 379.932 139.395 379.932C140.805 379.932 142.102 380.141 143.288 380.56C144.474 380.978 145.493 381.557 146.344 382.297C147.209 383.022 147.879 383.887 148.353 384.892C148.828 385.883 149.065 386.964 149.065 388.136C149.065 389.699 148.709 391.046 147.998 392.176C147.3 393.306 146.233 394.185 144.795 394.813Z" fill="#232323"/>
</g>
<defs>
<clipPath id="clip0_5_185">
<rect width="105.846" height="105.846" fill="white" transform="translate(63.986 11.96)"/>
</clipPath>
<clipPath id="clip1_5_185">
<rect width="136.344" height="50.83" fill="white" transform="translate(50.531 171.626)"/>
</clipPath>
<clipPath id="clip2_5_185">
<rect width="136.344" height="50.83" fill="white" transform="translate(46.943 168.636)"/>
</clipPath>
</defs>
</svg>
