<svg width="318" height="25" viewBox="0 0 318 25" fill="none" xmlns="http://www.w3.org/2000/svg">
<path d="M122.271 4.979C122.271 2.76987 124.062 0.979004 126.271 0.979004H203.271C205.48 0.979004 207.271 2.76987 207.271 4.979V20.979C207.271 23.1881 205.48 24.979 203.271 24.979H126.271C124.062 24.979 122.271 23.1881 122.271 20.979V4.979Z" fill="#F8B300"/>
<path d="M135.716 15.499C135.769 15.499 135.816 15.5207 135.856 15.564L136.241 15.979C135.948 16.319 135.591 16.584 135.171 16.774C134.754 16.964 134.249 17.059 133.656 17.059C133.143 17.059 132.676 16.9707 132.256 16.794C131.836 16.614 131.478 16.364 131.181 16.044C130.884 15.7207 130.654 15.334 130.491 14.884C130.328 14.434 130.246 13.939 130.246 13.399C130.246 12.859 130.331 12.364 130.501 11.914C130.671 11.464 130.909 11.0773 131.216 10.754C131.526 10.4307 131.896 10.1807 132.326 10.004C132.756 9.824 133.231 9.734 133.751 9.734C134.261 9.734 134.711 9.81567 135.101 9.979C135.491 10.1423 135.834 10.364 136.131 10.644L135.811 11.089C135.791 11.1223 135.764 11.1507 135.731 11.174C135.701 11.194 135.659 11.204 135.606 11.204C135.546 11.204 135.473 11.1723 135.386 11.109C135.299 11.0423 135.186 10.969 135.046 10.889C134.906 10.809 134.731 10.7373 134.521 10.674C134.311 10.6073 134.053 10.574 133.746 10.574C133.376 10.574 133.038 10.639 132.731 10.769C132.424 10.8957 132.159 11.0807 131.936 11.324C131.716 11.5673 131.544 11.864 131.421 12.214C131.298 12.564 131.236 12.959 131.236 13.399C131.236 13.8457 131.299 14.244 131.426 14.594C131.556 14.944 131.731 15.2407 131.951 15.484C132.174 15.724 132.436 15.9073 132.736 16.034C133.039 16.1607 133.366 16.224 133.716 16.224C133.929 16.224 134.121 16.2123 134.291 16.189C134.464 16.1623 134.623 16.1223 134.766 16.069C134.913 16.0157 135.048 15.949 135.171 15.869C135.298 15.7857 135.423 15.6873 135.546 15.574C135.603 15.524 135.659 15.499 135.716 15.499ZM143.974 13.399C143.974 13.9357 143.889 14.429 143.719 14.879C143.549 15.3257 143.309 15.7107 142.999 16.034C142.689 16.3573 142.316 16.609 141.879 16.789C141.446 16.9657 140.966 17.054 140.439 17.054C139.912 17.054 139.432 16.9657 138.999 16.789C138.566 16.609 138.194 16.3573 137.884 16.034C137.574 15.7107 137.334 15.3257 137.164 14.879C136.994 14.429 136.909 13.9357 136.909 13.399C136.909 12.8623 136.994 12.3707 137.164 11.924C137.334 11.474 137.574 11.0873 137.884 10.764C138.194 10.4373 138.566 10.184 138.999 10.004C139.432 9.824 139.912 9.734 140.439 9.734C140.966 9.734 141.446 9.824 141.879 10.004C142.316 10.184 142.689 10.4373 142.999 10.764C143.309 11.0873 143.549 11.474 143.719 11.924C143.889 12.3707 143.974 12.8623 143.974 13.399ZM142.979 13.399C142.979 12.959 142.919 12.564 142.799 12.214C142.679 11.864 142.509 11.569 142.289 11.329C142.069 11.0857 141.802 10.899 141.489 10.769C141.176 10.639 140.826 10.574 140.439 10.574C140.056 10.574 139.707 10.639 139.394 10.769C139.081 10.899 138.812 11.0857 138.589 11.329C138.369 11.569 138.199 11.864 138.079 12.214C137.959 12.564 137.899 12.959 137.899 13.399C137.899 13.839 137.959 14.234 138.079 14.584C138.199 14.9307 138.369 15.2257 138.589 15.469C138.812 15.709 139.081 15.894 139.394 16.024C139.707 16.1507 140.056 16.214 140.439 16.214C140.826 16.214 141.176 16.1507 141.489 16.024C141.802 15.894 142.069 15.709 142.289 15.469C142.509 15.2257 142.679 14.9307 142.799 14.584C142.919 14.234 142.979 13.839 142.979 13.399ZM151.307 13.534V16.284C150.947 16.544 150.562 16.739 150.152 16.869C149.745 16.9957 149.298 17.059 148.812 17.059C148.235 17.059 147.715 16.9707 147.252 16.794C146.788 16.614 146.392 16.364 146.062 16.044C145.735 15.7207 145.483 15.334 145.307 14.884C145.13 14.434 145.042 13.939 145.042 13.399C145.042 12.8523 145.127 12.354 145.297 11.904C145.47 11.454 145.715 11.069 146.032 10.749C146.348 10.4257 146.733 10.1757 147.187 9.999C147.64 9.82234 148.147 9.734 148.707 9.734C148.99 9.734 149.253 9.75567 149.497 9.799C149.74 9.839 149.965 9.899 150.172 9.979C150.378 10.0557 150.57 10.1507 150.747 10.264C150.923 10.374 151.088 10.499 151.242 10.639L150.967 11.079C150.923 11.1457 150.867 11.189 150.797 11.209C150.73 11.2257 150.655 11.209 150.572 11.159C150.492 11.1123 150.4 11.0557 150.297 10.989C150.193 10.9223 150.067 10.859 149.917 10.799C149.77 10.7357 149.595 10.6823 149.392 10.639C149.192 10.5957 148.953 10.574 148.677 10.574C148.273 10.574 147.908 10.6407 147.582 10.774C147.255 10.904 146.977 11.0923 146.747 11.339C146.517 11.5823 146.34 11.879 146.217 12.229C146.093 12.5757 146.032 12.9657 146.032 13.399C146.032 13.849 146.095 14.2523 146.222 14.609C146.352 14.9623 146.535 15.264 146.772 15.514C147.012 15.7607 147.302 15.949 147.642 16.079C147.982 16.209 148.363 16.274 148.787 16.274C149.12 16.274 149.415 16.2373 149.672 16.164C149.932 16.0873 150.185 15.9823 150.432 15.849V14.274H149.317C149.253 14.274 149.202 14.2557 149.162 14.219C149.125 14.1823 149.107 14.1373 149.107 14.084V13.534H151.307ZM158.721 9.814V16.979H158.236C158.16 16.979 158.095 16.9657 158.041 16.939C157.991 16.9123 157.941 16.8673 157.891 16.804L153.746 11.404C153.753 11.4873 153.758 11.569 153.761 11.649C153.765 11.729 153.766 11.804 153.766 11.874V16.979H152.916V9.814H153.416C153.46 9.814 153.496 9.81734 153.526 9.824C153.556 9.82734 153.583 9.83567 153.606 9.849C153.63 9.859 153.653 9.87567 153.676 9.899C153.7 9.919 153.725 9.94567 153.751 9.979L157.896 15.374C157.89 15.2873 157.883 15.204 157.876 15.124C157.873 15.0407 157.871 14.9623 157.871 14.889V9.814H158.721ZM161.648 16.979H160.678V9.814H161.648V16.979ZM168.386 10.174C168.386 10.284 168.353 10.3907 168.286 10.494L164.231 16.189H168.326V16.979H162.956V16.599C162.956 16.5457 162.964 16.4957 162.981 16.449C163.001 16.4023 163.024 16.3573 163.051 16.314L167.116 10.604H163.146V9.814H168.386V10.174ZM173.552 14.319L172.427 11.404C172.393 11.3173 172.358 11.2173 172.322 11.104C172.285 10.9873 172.25 10.864 172.217 10.734C172.147 11.004 172.075 11.229 172.002 11.409L170.877 14.319H173.552ZM175.572 16.979H174.822C174.735 16.979 174.665 16.9573 174.612 16.914C174.558 16.8707 174.518 16.8157 174.492 16.749L173.822 15.019H170.607L169.937 16.749C169.917 16.809 169.878 16.8623 169.822 16.909C169.765 16.9557 169.695 16.979 169.612 16.979H168.862L171.727 9.814H172.707L175.572 16.979ZM182.444 9.814V16.979H181.959C181.882 16.979 181.817 16.9657 181.764 16.939C181.714 16.9123 181.664 16.8673 181.614 16.804L177.469 11.404C177.476 11.4873 177.481 11.569 177.484 11.649C177.487 11.729 177.489 11.804 177.489 11.874V16.979H176.639V9.814H177.139C177.182 9.814 177.219 9.81734 177.249 9.824C177.279 9.82734 177.306 9.83567 177.329 9.849C177.352 9.859 177.376 9.87567 177.399 9.899C177.422 9.919 177.447 9.94567 177.474 9.979L181.619 15.374C181.612 15.2873 181.606 15.204 181.599 15.124C181.596 15.0407 181.594 14.9623 181.594 14.889V9.814H182.444ZM189.431 15.499C189.484 15.499 189.531 15.5207 189.571 15.564L189.956 15.979C189.663 16.319 189.306 16.584 188.886 16.774C188.469 16.964 187.964 17.059 187.371 17.059C186.858 17.059 186.391 16.9707 185.971 16.794C185.551 16.614 185.193 16.364 184.896 16.044C184.599 15.7207 184.369 15.334 184.206 14.884C184.043 14.434 183.961 13.939 183.961 13.399C183.961 12.859 184.046 12.364 184.216 11.914C184.386 11.464 184.624 11.0773 184.931 10.754C185.241 10.4307 185.611 10.1807 186.041 10.004C186.471 9.824 186.946 9.734 187.466 9.734C187.976 9.734 188.426 9.81567 188.816 9.979C189.206 10.1423 189.549 10.364 189.846 10.644L189.526 11.089C189.506 11.1223 189.479 11.1507 189.446 11.174C189.416 11.194 189.374 11.204 189.321 11.204C189.261 11.204 189.188 11.1723 189.101 11.109C189.014 11.0423 188.901 10.969 188.761 10.889C188.621 10.809 188.446 10.7373 188.236 10.674C188.026 10.6073 187.768 10.574 187.461 10.574C187.091 10.574 186.753 10.639 186.446 10.769C186.139 10.8957 185.874 11.0807 185.651 11.324C185.431 11.5673 185.259 11.864 185.136 12.214C185.013 12.564 184.951 12.959 184.951 13.399C184.951 13.8457 185.014 14.244 185.141 14.594C185.271 14.944 185.446 15.2407 185.666 15.484C185.889 15.724 186.151 15.9073 186.451 16.034C186.754 16.1607 187.081 16.224 187.431 16.224C187.644 16.224 187.836 16.2123 188.006 16.189C188.179 16.1623 188.338 16.1223 188.481 16.069C188.628 16.0157 188.763 15.949 188.886 15.869C189.013 15.7857 189.138 15.6873 189.261 15.574C189.318 15.524 189.374 15.499 189.431 15.499ZM195.626 16.189L195.621 16.979H191.206V9.814H195.621V10.604H192.176V12.984H194.966V13.744H192.176V16.189H195.626Z" fill="#232323" fill-opacity="0.8"/>
<path d="M5.76 10.65H3.44V17H2.475V10.65H0.15V9.835H5.76V10.65ZM11.3682 16.21L11.3632 17H6.9482V9.835H11.3632V10.625H7.9182V13.005H10.7082V13.765H7.9182V16.21H11.3682ZM19.0547 13.42C19.0547 13.9567 18.9697 14.445 18.7997 14.885C18.6297 15.325 18.3897 15.7017 18.0797 16.015C17.7697 16.3283 17.3964 16.5717 16.9597 16.745C16.5264 16.915 16.0464 17 15.5197 17H12.8447V9.835H15.5197C16.0464 9.835 16.5264 9.92167 16.9597 10.095C17.3964 10.265 17.7697 10.5083 18.0797 10.825C18.3897 11.1383 18.6297 11.515 18.7997 11.955C18.9697 12.395 19.0547 12.8833 19.0547 13.42ZM18.0597 13.42C18.0597 12.98 17.9997 12.5867 17.8797 12.24C17.7597 11.8933 17.5897 11.6 17.3697 11.36C17.1497 11.12 16.883 10.9367 16.5697 10.81C16.2564 10.6833 15.9064 10.62 15.5197 10.62H13.8147V16.215H15.5197C15.9064 16.215 16.2564 16.1517 16.5697 16.025C16.883 15.8983 17.1497 15.7167 17.3697 15.48C17.5897 15.24 17.7597 14.9467 17.8797 14.6C17.9997 14.2533 18.0597 13.86 18.0597 13.42Z" fill="url(#paint0_linear_5_255)" fill-opacity="0.8"/>
<path d="M225.76 10.65H223.44V17H222.475V10.65H220.15V9.835H225.76V10.65ZM232.753 9.835V17H231.783V13.74H227.918V17H226.948V9.835H227.918V13.03H231.783V9.835H232.753ZM241.33 13.42C241.33 13.9567 241.245 14.45 241.075 14.9C240.905 15.3467 240.665 15.7317 240.355 16.055C240.045 16.3783 239.672 16.63 239.235 16.81C238.802 16.9867 238.322 17.075 237.795 17.075C237.268 17.075 236.788 16.9867 236.355 16.81C235.922 16.63 235.55 16.3783 235.24 16.055C234.93 15.7317 234.69 15.3467 234.52 14.9C234.35 14.45 234.265 13.9567 234.265 13.42C234.265 12.8833 234.35 12.3917 234.52 11.945C234.69 11.495 234.93 11.1083 235.24 10.785C235.55 10.4583 235.922 10.205 236.355 10.025C236.788 9.845 237.268 9.755 237.795 9.755C238.322 9.755 238.802 9.845 239.235 10.025C239.672 10.205 240.045 10.4583 240.355 10.785C240.665 11.1083 240.905 11.495 241.075 11.945C241.245 12.3917 241.33 12.8833 241.33 13.42ZM240.335 13.42C240.335 12.98 240.275 12.585 240.155 12.235C240.035 11.885 239.865 11.59 239.645 11.35C239.425 11.1067 239.158 10.92 238.845 10.79C238.532 10.66 238.182 10.595 237.795 10.595C237.412 10.595 237.063 10.66 236.75 10.79C236.437 10.92 236.168 11.1067 235.945 11.35C235.725 11.59 235.555 11.885 235.435 12.235C235.315 12.585 235.255 12.98 235.255 13.42C235.255 13.86 235.315 14.255 235.435 14.605C235.555 14.9517 235.725 15.2467 235.945 15.49C236.168 15.73 236.437 15.915 236.75 16.045C237.063 16.1717 237.412 16.235 237.795 16.235C238.182 16.235 238.532 16.1717 238.845 16.045C239.158 15.915 239.425 15.73 239.645 15.49C239.865 15.2467 240.035 14.9517 240.155 14.605C240.275 14.255 240.335 13.86 240.335 13.42ZM250.298 9.835V17H249.448V11.735C249.448 11.665 249.449 11.59 249.453 11.51C249.459 11.43 249.466 11.3483 249.473 11.265L247.013 15.745C246.936 15.895 246.819 15.97 246.663 15.97H246.523C246.366 15.97 246.249 15.895 246.173 15.745L243.663 11.245C243.683 11.4217 243.693 11.585 243.693 11.735V17H242.843V9.835H243.558C243.644 9.835 243.711 9.84333 243.758 9.86C243.804 9.87667 243.849 9.92333 243.893 10L246.368 14.41C246.408 14.49 246.446 14.5733 246.483 14.66C246.523 14.7467 246.559 14.835 246.593 14.925C246.626 14.835 246.661 14.7467 246.698 14.66C246.734 14.57 246.774 14.485 246.818 14.405L249.248 10C249.288 9.92333 249.331 9.87667 249.378 9.86C249.428 9.84333 249.496 9.835 249.583 9.835H250.298ZM255.92 10.955C255.89 11.005 255.857 11.0433 255.82 11.07C255.787 11.0933 255.745 11.105 255.695 11.105C255.638 11.105 255.572 11.0767 255.495 11.02C255.418 10.9633 255.322 10.9017 255.205 10.835C255.092 10.765 254.953 10.7017 254.79 10.645C254.63 10.5883 254.435 10.56 254.205 10.56C253.988 10.56 253.797 10.59 253.63 10.65C253.467 10.7067 253.328 10.785 253.215 10.885C253.105 10.985 253.022 11.1033 252.965 11.24C252.908 11.3733 252.88 11.5183 252.88 11.675C252.88 11.875 252.928 12.0417 253.025 12.175C253.125 12.305 253.255 12.4167 253.415 12.51C253.578 12.6033 253.762 12.685 253.965 12.755C254.172 12.8217 254.382 12.8917 254.595 12.965C254.812 13.0383 255.022 13.1217 255.225 13.215C255.432 13.305 255.615 13.42 255.775 13.56C255.938 13.7 256.068 13.8717 256.165 14.075C256.265 14.2783 256.315 14.5283 256.315 14.825C256.315 15.1383 256.262 15.4333 256.155 15.71C256.048 15.9833 255.892 16.2217 255.685 16.425C255.482 16.6283 255.23 16.7883 254.93 16.905C254.633 17.0217 254.295 17.08 253.915 17.08C253.448 17.08 253.025 16.9967 252.645 16.83C252.265 16.66 251.94 16.4317 251.67 16.145L251.95 15.685C251.977 15.6483 252.008 15.6183 252.045 15.595C252.085 15.5683 252.128 15.555 252.175 15.555C252.218 15.555 252.267 15.5733 252.32 15.61C252.377 15.6433 252.44 15.6867 252.51 15.74C252.58 15.7933 252.66 15.8517 252.75 15.915C252.84 15.9783 252.942 16.0367 253.055 16.09C253.172 16.1433 253.303 16.1883 253.45 16.225C253.597 16.2583 253.762 16.275 253.945 16.275C254.175 16.275 254.38 16.2433 254.56 16.18C254.74 16.1167 254.892 16.0283 255.015 15.915C255.142 15.7983 255.238 15.66 255.305 15.5C255.372 15.34 255.405 15.1617 255.405 14.965C255.405 14.7483 255.355 14.5717 255.255 14.435C255.158 14.295 255.03 14.1783 254.87 14.085C254.71 13.9917 254.527 13.9133 254.32 13.85C254.113 13.7833 253.903 13.7167 253.69 13.65C253.477 13.58 253.267 13.5 253.06 13.41C252.853 13.32 252.67 13.2033 252.51 13.06C252.35 12.9167 252.22 12.7383 252.12 12.525C252.023 12.3083 251.975 12.0417 251.975 11.725C251.975 11.4717 252.023 11.2267 252.12 10.99C252.22 10.7533 252.363 10.5433 252.55 10.36C252.74 10.1767 252.972 10.03 253.245 9.92C253.522 9.81 253.838 9.755 254.195 9.755C254.595 9.755 254.958 9.81833 255.285 9.945C255.615 10.0717 255.905 10.255 256.155 10.495L255.92 10.955ZM264.43 13.42C264.43 13.9567 264.345 14.45 264.175 14.9C264.005 15.3467 263.765 15.7317 263.455 16.055C263.145 16.3783 262.771 16.63 262.335 16.81C261.901 16.9867 261.421 17.075 260.895 17.075C260.368 17.075 259.888 16.9867 259.455 16.81C259.021 16.63 258.65 16.3783 258.34 16.055C258.03 15.7317 257.79 15.3467 257.62 14.9C257.45 14.45 257.365 13.9567 257.365 13.42C257.365 12.8833 257.45 12.3917 257.62 11.945C257.79 11.495 258.03 11.1083 258.34 10.785C258.65 10.4583 259.021 10.205 259.455 10.025C259.888 9.845 260.368 9.755 260.895 9.755C261.421 9.755 261.901 9.845 262.335 10.025C262.771 10.205 263.145 10.4583 263.455 10.785C263.765 11.1083 264.005 11.495 264.175 11.945C264.345 12.3917 264.43 12.8833 264.43 13.42ZM263.435 13.42C263.435 12.98 263.375 12.585 263.255 12.235C263.135 11.885 262.965 11.59 262.745 11.35C262.525 11.1067 262.258 10.92 261.945 10.79C261.631 10.66 261.281 10.595 260.895 10.595C260.511 10.595 260.163 10.66 259.85 10.79C259.536 10.92 259.268 11.1067 259.045 11.35C258.825 11.59 258.655 11.885 258.535 12.235C258.415 12.585 258.355 12.98 258.355 13.42C258.355 13.86 258.415 14.255 258.535 14.605C258.655 14.9517 258.825 15.2467 259.045 15.49C259.268 15.73 259.536 15.915 259.85 16.045C260.163 16.1717 260.511 16.235 260.895 16.235C261.281 16.235 261.631 16.1717 261.945 16.045C262.258 15.915 262.525 15.73 262.745 15.49C262.965 15.2467 263.135 14.9517 263.255 14.605C263.375 14.255 263.435 13.86 263.435 13.42Z" fill="white" fill-opacity="0.8"/>
<path d="M284.335 16.21L284.33 17H279.915V9.835H284.33V10.625H280.885V13.005H283.675V13.765H280.885V16.21H284.335ZM288.576 16.23C288.873 16.23 289.138 16.18 289.371 16.08C289.605 15.98 289.801 15.84 289.961 15.66C290.125 15.48 290.248 15.265 290.331 15.015C290.418 14.765 290.461 14.49 290.461 14.19V9.835H291.426V14.19C291.426 14.6033 291.36 14.9867 291.226 15.34C291.096 15.6933 290.908 16 290.661 16.26C290.418 16.5167 290.12 16.7183 289.766 16.865C289.413 17.0117 289.016 17.085 288.576 17.085C288.136 17.085 287.74 17.0117 287.386 16.865C287.033 16.7183 286.733 16.5167 286.486 16.26C286.24 16 286.05 15.6933 285.916 15.34C285.786 14.9867 285.721 14.6033 285.721 14.19V9.835H286.686V14.185C286.686 14.485 286.728 14.76 286.811 15.01C286.898 15.26 287.021 15.475 287.181 15.655C287.345 15.835 287.543 15.9767 287.776 16.08C288.013 16.18 288.28 16.23 288.576 16.23ZM299.095 9.835V17H298.61C298.533 17 298.468 16.9867 298.415 16.96C298.365 16.9333 298.315 16.8883 298.265 16.825L294.12 11.425C294.127 11.5083 294.132 11.59 294.135 11.67C294.138 11.75 294.14 11.825 294.14 11.895V17H293.29V9.835H293.79C293.833 9.835 293.87 9.83833 293.9 9.845C293.93 9.84833 293.957 9.85667 293.98 9.87C294.003 9.88 294.027 9.89667 294.05 9.92C294.073 9.94 294.098 9.96667 294.125 10L298.27 15.395C298.263 15.3083 298.257 15.225 298.25 15.145C298.247 15.0617 298.245 14.9833 298.245 14.91V9.835H299.095ZM307.672 13.42C307.672 13.9567 307.587 14.45 307.417 14.9C307.247 15.3467 307.007 15.7317 306.697 16.055C306.387 16.3783 306.013 16.63 305.577 16.81C305.143 16.9867 304.663 17.075 304.137 17.075C303.61 17.075 303.13 16.9867 302.697 16.81C302.263 16.63 301.892 16.3783 301.582 16.055C301.272 15.7317 301.032 15.3467 300.862 14.9C300.692 14.45 300.607 13.9567 300.607 13.42C300.607 12.8833 300.692 12.3917 300.862 11.945C301.032 11.495 301.272 11.1083 301.582 10.785C301.892 10.4583 302.263 10.205 302.697 10.025C303.13 9.845 303.61 9.755 304.137 9.755C304.663 9.755 305.143 9.845 305.577 10.025C306.013 10.205 306.387 10.4583 306.697 10.785C307.007 11.1083 307.247 11.495 307.417 11.945C307.587 12.3917 307.672 12.8833 307.672 13.42ZM306.677 13.42C306.677 12.98 306.617 12.585 306.497 12.235C306.377 11.885 306.207 11.59 305.987 11.35C305.767 11.1067 305.5 10.92 305.187 10.79C304.873 10.66 304.523 10.595 304.137 10.595C303.753 10.595 303.405 10.66 303.092 10.79C302.778 10.92 302.51 11.1067 302.287 11.35C302.067 11.59 301.897 11.885 301.777 12.235C301.657 12.585 301.597 12.98 301.597 13.42C301.597 13.86 301.657 14.255 301.777 14.605C301.897 14.9517 302.067 15.2467 302.287 15.49C302.51 15.73 302.778 15.915 303.092 16.045C303.405 16.1717 303.753 16.235 304.137 16.235C304.523 16.235 304.873 16.1717 305.187 16.045C305.5 15.915 305.767 15.73 305.987 15.49C306.207 15.2467 306.377 14.9517 306.497 14.605C306.617 14.255 306.677 13.86 306.677 13.42ZM310.155 17H309.185V9.835H310.155V17ZM315.917 14.34L314.792 11.425C314.759 11.3383 314.724 11.2383 314.687 11.125C314.651 11.0083 314.616 10.885 314.582 10.755C314.512 11.025 314.441 11.25 314.367 11.43L313.242 14.34H315.917ZM317.937 17H317.187C317.101 17 317.031 16.9783 316.977 16.935C316.924 16.8917 316.884 16.8367 316.857 16.77L316.187 15.04H312.972L312.302 16.77C312.282 16.83 312.244 16.8833 312.187 16.93C312.131 16.9767 312.061 17 311.977 17H311.227L314.092 9.835H315.072L317.937 17Z" fill="white" fill-opacity="0.8"/>
<path d="M39.945 15.52C39.9983 15.52 40.045 15.5417 40.085 15.585L40.47 16C40.1767 16.34 39.82 16.605 39.4 16.795C38.9833 16.985 38.4783 17.08 37.885 17.08C37.3717 17.08 36.905 16.9917 36.485 16.815C36.065 16.635 35.7067 16.385 35.41 16.065C35.1133 15.7417 34.8833 15.355 34.72 14.905C34.5567 14.455 34.475 13.96 34.475 13.42C34.475 12.88 34.56 12.385 34.73 11.935C34.9 11.485 35.1383 11.0983 35.445 10.775C35.755 10.4517 36.125 10.2017 36.555 10.025C36.985 9.845 37.46 9.755 37.98 9.755C38.49 9.755 38.94 9.83667 39.33 10C39.72 10.1633 40.0633 10.385 40.36 10.665L40.04 11.11C40.02 11.1433 39.9933 11.1717 39.96 11.195C39.93 11.215 39.8883 11.225 39.835 11.225C39.775 11.225 39.7017 11.1933 39.615 11.13C39.5283 11.0633 39.415 10.99 39.275 10.91C39.135 10.83 38.96 10.7583 38.75 10.695C38.54 10.6283 38.2817 10.595 37.975 10.595C37.605 10.595 37.2667 10.66 36.96 10.79C36.6533 10.9167 36.3883 11.1017 36.165 11.345C35.945 11.5883 35.7733 11.885 35.65 12.235C35.5267 12.585 35.465 12.98 35.465 13.42C35.465 13.8667 35.5283 14.265 35.655 14.615C35.785 14.965 35.96 15.2617 36.18 15.505C36.4033 15.745 36.665 15.9283 36.965 16.055C37.2683 16.1817 37.595 16.245 37.945 16.245C38.1583 16.245 38.35 16.2333 38.52 16.21C38.6933 16.1833 38.8517 16.1433 38.995 16.09C39.1417 16.0367 39.2767 15.97 39.4 15.89C39.5267 15.8067 39.6517 15.7083 39.775 15.595C39.8317 15.545 39.8883 15.52 39.945 15.52ZM48.203 13.42C48.203 13.9567 48.118 14.45 47.948 14.9C47.778 15.3467 47.538 15.7317 47.228 16.055C46.918 16.3783 46.5446 16.63 46.108 16.81C45.6746 16.9867 45.1946 17.075 44.668 17.075C44.1413 17.075 43.6613 16.9867 43.228 16.81C42.7946 16.63 42.423 16.3783 42.113 16.055C41.803 15.7317 41.563 15.3467 41.393 14.9C41.223 14.45 41.138 13.9567 41.138 13.42C41.138 12.8833 41.223 12.3917 41.393 11.945C41.563 11.495 41.803 11.1083 42.113 10.785C42.423 10.4583 42.7946 10.205 43.228 10.025C43.6613 9.845 44.1413 9.755 44.668 9.755C45.1946 9.755 45.6746 9.845 46.108 10.025C46.5446 10.205 46.918 10.4583 47.228 10.785C47.538 11.1083 47.778 11.495 47.948 11.945C48.118 12.3917 48.203 12.8833 48.203 13.42ZM47.208 13.42C47.208 12.98 47.148 12.585 47.028 12.235C46.908 11.885 46.738 11.59 46.518 11.35C46.298 11.1067 46.0313 10.92 45.718 10.79C45.4046 10.66 45.0546 10.595 44.668 10.595C44.2846 10.595 43.9363 10.66 43.623 10.79C43.3096 10.92 43.0413 11.1067 42.818 11.35C42.598 11.59 42.428 11.885 42.308 12.235C42.188 12.585 42.128 12.98 42.128 13.42C42.128 13.86 42.188 14.255 42.308 14.605C42.428 14.9517 42.598 15.2467 42.818 15.49C43.0413 15.73 43.3096 15.915 43.623 16.045C43.9363 16.1717 44.2846 16.235 44.668 16.235C45.0546 16.235 45.4046 16.1717 45.718 16.045C46.0313 15.915 46.298 15.73 46.518 15.49C46.738 15.2467 46.908 14.9517 47.028 14.605C47.148 14.255 47.208 13.86 47.208 13.42ZM55.5208 9.835V17H55.0358C54.9591 17 54.8941 16.9867 54.8408 16.96C54.7908 16.9333 54.7408 16.8883 54.6908 16.825L50.5458 11.425C50.5524 11.5083 50.5574 11.59 50.5608 11.67C50.5641 11.75 50.5658 11.825 50.5658 11.895V17H49.7158V9.835H50.2158C50.2591 9.835 50.2958 9.83833 50.3258 9.845C50.3558 9.84833 50.3824 9.85667 50.4058 9.87C50.4291 9.88 50.4524 9.89667 50.4758 9.92C50.4991 9.94 50.5241 9.96667 50.5508 10L54.6958 15.395C54.6891 15.3083 54.6824 15.225 54.6758 15.145C54.6724 15.0617 54.6708 14.9833 54.6708 14.91V9.835H55.5208ZM63.3025 9.835L60.3825 17H59.5125L56.5925 9.835H57.3675C57.4542 9.835 57.5242 9.85667 57.5775 9.9C57.6308 9.94333 57.6708 9.99833 57.6975 10.065L59.7175 15.12C59.7608 15.2333 59.8025 15.3567 59.8425 15.49C59.8858 15.6233 59.9242 15.7633 59.9575 15.91C59.9908 15.7633 60.0258 15.6233 60.0625 15.49C60.0992 15.3567 60.1392 15.2333 60.1825 15.12L62.1975 10.065C62.2175 10.0083 62.2558 9.95667 62.3125 9.91C62.3725 9.86 62.4442 9.835 62.5275 9.835H63.3025ZM70.7948 13.42C70.7948 13.9567 70.7098 14.45 70.5398 14.9C70.3698 15.3467 70.1298 15.7317 69.8198 16.055C69.5098 16.3783 69.1364 16.63 68.6998 16.81C68.2664 16.9867 67.7864 17.075 67.2598 17.075C66.7331 17.075 66.2531 16.9867 65.8198 16.81C65.3864 16.63 65.0148 16.3783 64.7048 16.055C64.3948 15.7317 64.1548 15.3467 63.9848 14.9C63.8148 14.45 63.7298 13.9567 63.7298 13.42C63.7298 12.8833 63.8148 12.3917 63.9848 11.945C64.1548 11.495 64.3948 11.1083 64.7048 10.785C65.0148 10.4583 65.3864 10.205 65.8198 10.025C66.2531 9.845 66.7331 9.755 67.2598 9.755C67.7864 9.755 68.2664 9.845 68.6998 10.025C69.1364 10.205 69.5098 10.4583 69.8198 10.785C70.1298 11.1083 70.3698 11.495 70.5398 11.945C70.7098 12.3917 70.7948 12.8833 70.7948 13.42ZM69.7998 13.42C69.7998 12.98 69.7398 12.585 69.6198 12.235C69.4998 11.885 69.3298 11.59 69.1098 11.35C68.8898 11.1067 68.6231 10.92 68.3098 10.79C67.9964 10.66 67.6464 10.595 67.2598 10.595C66.8764 10.595 66.5281 10.66 66.2148 10.79C65.9014 10.92 65.6331 11.1067 65.4098 11.35C65.1898 11.59 65.0198 11.885 64.8998 12.235C64.7798 12.585 64.7198 12.98 64.7198 13.42C64.7198 13.86 64.7798 14.255 64.8998 14.605C65.0198 14.9517 65.1898 15.2467 65.4098 15.49C65.6331 15.73 65.9014 15.915 66.2148 16.045C66.5281 16.1717 66.8764 16.235 67.2598 16.235C67.6464 16.235 67.9964 16.1717 68.3098 16.045C68.6231 15.915 68.8898 15.73 69.1098 15.49C69.3298 15.2467 69.4998 14.9517 69.6198 14.605C69.7398 14.255 69.7998 13.86 69.7998 13.42ZM77.3376 15.52C77.3909 15.52 77.4376 15.5417 77.4776 15.585L77.8626 16C77.5692 16.34 77.2126 16.605 76.7926 16.795C76.3759 16.985 75.8709 17.08 75.2776 17.08C74.7642 17.08 74.2976 16.9917 73.8776 16.815C73.4576 16.635 73.0992 16.385 72.8026 16.065C72.5059 15.7417 72.2759 15.355 72.1126 14.905C71.9492 14.455 71.8676 13.96 71.8676 13.42C71.8676 12.88 71.9526 12.385 72.1226 11.935C72.2926 11.485 72.5309 11.0983 72.8376 10.775C73.1476 10.4517 73.5176 10.2017 73.9476 10.025C74.3776 9.845 74.8526 9.755 75.3726 9.755C75.8826 9.755 76.3326 9.83667 76.7226 10C77.1126 10.1633 77.4559 10.385 77.7526 10.665L77.4326 11.11C77.4126 11.1433 77.3859 11.1717 77.3526 11.195C77.3226 11.215 77.2809 11.225 77.2276 11.225C77.1676 11.225 77.0942 11.1933 77.0076 11.13C76.9209 11.0633 76.8076 10.99 76.6676 10.91C76.5276 10.83 76.3526 10.7583 76.1426 10.695C75.9326 10.6283 75.6742 10.595 75.3676 10.595C74.9976 10.595 74.6592 10.66 74.3526 10.79C74.0459 10.9167 73.7809 11.1017 73.5576 11.345C73.3376 11.5883 73.1659 11.885 73.0426 12.235C72.9192 12.585 72.8576 12.98 72.8576 13.42C72.8576 13.8667 72.9209 14.265 73.0476 14.615C73.1776 14.965 73.3526 15.2617 73.5726 15.505C73.7959 15.745 74.0576 15.9283 74.3576 16.055C74.6609 16.1817 74.9876 16.245 75.3376 16.245C75.5509 16.245 75.7426 16.2333 75.9126 16.21C76.0859 16.1833 76.2442 16.1433 76.3876 16.09C76.5342 16.0367 76.6692 15.97 76.7926 15.89C76.9192 15.8067 77.0442 15.7083 77.1676 15.595C77.2242 15.545 77.2809 15.52 77.3376 15.52ZM82.9173 14.34L81.7923 11.425C81.7589 11.3383 81.7239 11.2383 81.6873 11.125C81.6506 11.0083 81.6156 10.885 81.5823 10.755C81.5123 11.025 81.4406 11.25 81.3673 11.43L80.2423 14.34H82.9173ZM84.9373 17H84.1873C84.1006 17 84.0306 16.9783 83.9773 16.935C83.9239 16.8917 83.8839 16.8367 83.8573 16.77L83.1873 15.04H79.9723L79.3023 16.77C79.2823 16.83 79.2439 16.8833 79.1873 16.93C79.1306 16.9767 79.0606 17 78.9773 17H78.2273L81.0923 9.835H82.0723L84.9373 17ZM90.8498 10.65H88.5298V17H87.5648V10.65H85.2398V9.835H90.8498V10.65ZM93.008 17H92.038V9.835H93.008V17ZM101.586 13.42C101.586 13.9567 101.501 14.45 101.331 14.9C101.161 15.3467 100.921 15.7317 100.611 16.055C100.301 16.3783 99.9274 16.63 99.4908 16.81C99.0574 16.9867 98.5774 17.075 98.0508 17.075C97.5241 17.075 97.0441 16.9867 96.6108 16.81C96.1774 16.63 95.8058 16.3783 95.4958 16.055C95.1858 15.7317 94.9458 15.3467 94.7758 14.9C94.6058 14.45 94.5208 13.9567 94.5208 13.42C94.5208 12.8833 94.6058 12.3917 94.7758 11.945C94.9458 11.495 95.1858 11.1083 95.4958 10.785C95.8058 10.4583 96.1774 10.205 96.6108 10.025C97.0441 9.845 97.5241 9.755 98.0508 9.755C98.5774 9.755 99.0574 9.845 99.4908 10.025C99.9274 10.205 100.301 10.4583 100.611 10.785C100.921 11.1083 101.161 11.495 101.331 11.945C101.501 12.3917 101.586 12.8833 101.586 13.42ZM100.591 13.42C100.591 12.98 100.531 12.585 100.411 12.235C100.291 11.885 100.121 11.59 99.9008 11.35C99.6808 11.1067 99.4141 10.92 99.1008 10.79C98.7874 10.66 98.4374 10.595 98.0508 10.595C97.6674 10.595 97.3191 10.66 97.0058 10.79C96.6924 10.92 96.4241 11.1067 96.2008 11.35C95.9808 11.59 95.8108 11.885 95.6908 12.235C95.5708 12.585 95.5108 12.98 95.5108 13.42C95.5108 13.86 95.5708 14.255 95.6908 14.605C95.8108 14.9517 95.9808 15.2467 96.2008 15.49C96.4241 15.73 96.6924 15.915 97.0058 16.045C97.3191 16.1717 97.6674 16.235 98.0508 16.235C98.4374 16.235 98.7874 16.1717 99.1008 16.045C99.4141 15.915 99.6808 15.73 99.9008 15.49C100.121 15.2467 100.291 14.9517 100.411 14.605C100.531 14.255 100.591 13.86 100.591 13.42ZM108.904 9.835V17H108.419C108.342 17 108.277 16.9867 108.224 16.96C108.174 16.9333 108.124 16.8883 108.074 16.825L103.929 11.425C103.935 11.5083 103.94 11.59 103.944 11.67C103.947 11.75 103.949 11.825 103.949 11.895V17H103.099V9.835H103.599C103.642 9.835 103.679 9.83833 103.709 9.845C103.739 9.84833 103.765 9.85667 103.789 9.87C103.812 9.88 103.835 9.89667 103.859 9.92C103.882 9.94 103.907 9.96667 103.934 10L108.079 15.395C108.072 15.3083 108.065 15.225 108.059 15.145C108.055 15.0617 108.054 14.9833 108.054 14.91V9.835H108.904Z" fill="white" fill-opacity="0.8"/>
<defs>
<linearGradient id="paint0_linear_5_255" x1="21.5" y1="13" x2="3" y2="13" gradientUnits="userSpaceOnUse">
<stop stop-color="white"/>
<stop offset="1" stop-color="#232323"/>
</linearGradient>
</defs>
</svg>
