<svg width="326" height="252" viewBox="0 0 326 252" fill="none" xmlns="http://www.w3.org/2000/svg">
<g clip-path="url(#clip0_5_96)">
<rect width="162.75" height="126" transform="translate(0.125 126)" fill="#202020"/>
<path d="M91.7235 180.44V175.227C91.7235 175.075 91.7294 174.907 91.7412 174.725C91.7529 174.542 91.7706 174.357 91.7941 174.169L87.19 180.44H91.7235ZM95.0134 180.44V181.34C95.0134 181.434 94.984 181.513 94.9252 181.578C94.8723 181.643 94.787 181.675 94.6694 181.675H93.0994V185H91.7235V181.675H86.114C85.9964 181.675 85.8935 181.643 85.8053 181.578C85.723 181.507 85.6701 181.422 85.6465 181.322L85.4878 180.519L91.6353 172.361H93.0994V180.44H95.0134ZM99.0631 177.133C99.7217 176.991 100.327 176.921 100.88 176.921C101.539 176.921 102.121 177.018 102.626 177.212C103.132 177.406 103.553 177.674 103.888 178.015C104.229 178.356 104.484 178.758 104.655 179.223C104.831 179.687 104.92 180.193 104.92 180.74C104.92 181.41 104.802 182.016 104.567 182.557C104.337 183.098 104.017 183.562 103.605 183.95C103.2 184.333 102.72 184.627 102.168 184.832C101.615 185.038 101.018 185.141 100.377 185.141C100.007 185.141 99.6511 185.103 99.3101 185.026C98.969 184.956 98.6486 184.859 98.3487 184.735C98.0547 184.612 97.7813 184.471 97.5284 184.312C97.2756 184.153 97.0522 183.986 96.8581 183.809L97.3432 183.139C97.4491 182.986 97.5872 182.91 97.7578 182.91C97.8754 182.91 98.0077 182.957 98.1547 183.051C98.3017 183.139 98.481 183.239 98.6927 183.351C98.9044 183.462 99.1513 183.565 99.4336 183.659C99.7217 183.748 100.063 183.792 100.457 183.792C100.898 183.792 101.295 183.721 101.647 183.58C102 183.439 102.303 183.239 102.556 182.98C102.809 182.716 103.003 182.401 103.138 182.036C103.273 181.672 103.341 181.263 103.341 180.81C103.341 180.417 103.282 180.061 103.164 179.743C103.053 179.426 102.879 179.155 102.644 178.932C102.415 178.708 102.127 178.535 101.78 178.411C101.433 178.288 101.027 178.226 100.563 178.226C100.245 178.226 99.9128 178.253 99.5659 178.306C99.2248 178.359 98.875 178.444 98.5163 178.561L97.5284 178.27L98.5427 172.361H104.532V173.049C104.532 173.272 104.461 173.458 104.32 173.605C104.185 173.746 103.949 173.816 103.614 173.816H99.6452L99.0631 177.133ZM116.158 178.685C116.158 179.79 116.037 180.749 115.796 181.56C115.561 182.366 115.237 183.033 114.826 183.562C114.414 184.092 113.926 184.485 113.362 184.744C112.803 185.003 112.203 185.132 111.562 185.132C110.916 185.132 110.313 185.003 109.754 184.744C109.202 184.485 108.719 184.092 108.308 183.562C107.896 183.033 107.573 182.366 107.338 181.56C107.102 180.749 106.985 179.79 106.985 178.685C106.985 177.579 107.102 176.621 107.338 175.81C107.573 174.998 107.896 174.328 108.308 173.799C108.719 173.264 109.202 172.867 109.754 172.608C110.313 172.349 110.916 172.22 111.562 172.22C112.203 172.22 112.803 172.349 113.362 172.608C113.926 172.867 114.414 173.264 114.826 173.799C115.237 174.328 115.561 174.998 115.796 175.81C116.037 176.621 116.158 177.579 116.158 178.685ZM114.526 178.685C114.526 177.721 114.444 176.912 114.279 176.259C114.12 175.601 113.903 175.072 113.626 174.672C113.356 174.272 113.041 173.987 112.683 173.816C112.324 173.64 111.951 173.552 111.562 173.552C111.174 173.552 110.801 173.64 110.442 173.816C110.084 173.987 109.769 174.272 109.499 174.672C109.228 175.072 109.011 175.601 108.846 176.259C108.687 176.912 108.608 177.721 108.608 178.685C108.608 179.649 108.687 180.458 108.846 181.11C109.011 181.763 109.228 182.289 109.499 182.689C109.769 183.089 110.084 183.377 110.442 183.554C110.801 183.724 111.174 183.809 111.562 183.809C111.951 183.809 112.324 183.724 112.683 183.554C113.041 183.377 113.356 183.089 113.626 182.689C113.903 182.289 114.12 181.763 114.279 181.11C114.444 180.458 114.526 179.649 114.526 178.685ZM126.39 179.673H122.792V183.465H121.513V179.673H117.932V178.482H121.513V174.716H122.792V178.482H126.39V179.673Z" fill="white"/>
<path d="M89.1027 198.823C89.4513 198.823 89.7579 198.777 90.0225 198.684C90.2913 198.592 90.516 198.464 90.6966 198.3C90.8814 198.132 91.02 197.933 91.1124 197.702C91.2048 197.471 91.251 197.216 91.251 196.939C91.251 196.364 91.0725 195.914 90.7155 195.591C90.3627 195.268 89.8251 195.106 89.1027 195.106H87.6537V198.823H89.1027ZM89.1027 194.142C89.6739 194.142 90.1695 194.209 90.5895 194.344C91.0137 194.474 91.3644 194.661 91.6416 194.904C91.9188 195.148 92.1246 195.442 92.259 195.786C92.3976 196.131 92.4669 196.515 92.4669 196.939C92.4669 197.359 92.3934 197.744 92.2464 198.092C92.0994 198.441 91.8831 198.741 91.5975 198.993C91.3161 199.245 90.9654 199.442 90.5454 199.585C90.1296 199.724 89.6487 199.793 89.1027 199.793H87.6537V203.17H86.4378V194.142H89.1027ZM98.424 199.818L97.0065 196.145C96.9645 196.036 96.9204 195.91 96.8742 195.767C96.828 195.62 96.7839 195.465 96.7419 195.301C96.6537 195.641 96.5634 195.925 96.471 196.152L95.0535 199.818H98.424ZM100.969 203.17H100.024C99.915 203.17 99.8268 203.143 99.7596 203.088C99.6924 203.033 99.642 202.964 99.6084 202.88L98.7642 200.7H94.7133L93.8691 202.88C93.8439 202.956 93.7956 203.023 93.7242 203.082C93.6528 203.141 93.5646 203.17 93.4596 203.17H92.5146L96.1245 194.142H97.3593L100.969 203.17ZM107.628 195.169H104.704V203.17H103.488V195.169H100.559V194.142H107.628V195.169ZM114.788 202.175L114.782 203.17H109.219V194.142H114.782V195.137H110.441V198.136H113.957V199.094H110.441V202.175H114.788ZM124.058 194.142V203.17H123.446C123.35 203.17 123.268 203.153 123.201 203.12C123.138 203.086 123.075 203.029 123.012 202.949L117.789 196.145C117.797 196.25 117.804 196.353 117.808 196.454C117.812 196.555 117.814 196.649 117.814 196.738V203.17H116.743V194.142H117.373C117.428 194.142 117.474 194.146 117.512 194.155C117.55 194.159 117.583 194.169 117.613 194.186C117.642 194.199 117.671 194.22 117.701 194.249C117.73 194.274 117.762 194.308 117.795 194.35L123.018 201.148C123.01 201.038 123.001 200.933 122.993 200.833C122.989 200.728 122.987 200.629 122.987 200.537V194.142H124.058ZM132.722 195.169H129.799V203.17H128.583V195.169H125.654V194.142H132.722V195.169ZM138.895 195.553C138.857 195.616 138.815 195.665 138.769 195.698C138.727 195.728 138.674 195.742 138.611 195.742C138.54 195.742 138.456 195.707 138.359 195.635C138.263 195.564 138.141 195.486 137.994 195.402C137.851 195.314 137.677 195.234 137.471 195.163C137.269 195.091 137.024 195.056 136.734 195.056C136.461 195.056 136.219 195.093 136.009 195.169C135.804 195.24 135.629 195.339 135.487 195.465C135.348 195.591 135.243 195.74 135.172 195.912C135.1 196.08 135.064 196.263 135.064 196.46C135.064 196.712 135.125 196.922 135.247 197.09C135.373 197.254 135.537 197.395 135.739 197.513C135.944 197.63 136.175 197.733 136.432 197.821C136.692 197.905 136.957 197.993 137.225 198.086C137.498 198.178 137.763 198.283 138.019 198.401C138.28 198.514 138.511 198.659 138.712 198.836C138.918 199.012 139.082 199.228 139.204 199.484C139.33 199.741 139.393 200.056 139.393 200.429C139.393 200.824 139.325 201.196 139.191 201.545C139.057 201.889 138.859 202.189 138.599 202.445C138.343 202.702 138.025 202.903 137.647 203.05C137.274 203.197 136.847 203.271 136.369 203.271C135.781 203.271 135.247 203.166 134.768 202.956C134.29 202.742 133.88 202.454 133.54 202.093L133.893 201.513C133.926 201.467 133.966 201.429 134.012 201.4C134.063 201.366 134.117 201.349 134.176 201.349C134.231 201.349 134.292 201.372 134.359 201.419C134.43 201.461 134.51 201.515 134.598 201.582C134.686 201.65 134.787 201.723 134.901 201.803C135.014 201.883 135.142 201.956 135.285 202.023C135.432 202.091 135.598 202.147 135.783 202.193C135.967 202.235 136.175 202.256 136.406 202.256C136.696 202.256 136.954 202.217 137.181 202.137C137.408 202.057 137.599 201.946 137.755 201.803C137.914 201.656 138.036 201.482 138.12 201.28C138.204 201.078 138.246 200.854 138.246 200.606C138.246 200.333 138.183 200.11 138.057 199.938C137.935 199.762 137.773 199.615 137.572 199.497C137.37 199.379 137.139 199.281 136.879 199.201C136.618 199.117 136.354 199.033 136.085 198.949C135.816 198.861 135.552 198.76 135.291 198.647C135.031 198.533 134.8 198.386 134.598 198.206C134.397 198.025 134.233 197.8 134.107 197.531C133.985 197.258 133.924 196.922 133.924 196.523C133.924 196.204 133.985 195.896 134.107 195.597C134.233 195.299 134.413 195.035 134.649 194.804C134.888 194.573 135.18 194.388 135.524 194.249C135.873 194.111 136.272 194.041 136.721 194.041C137.225 194.041 137.683 194.121 138.095 194.281C138.511 194.44 138.876 194.671 139.191 194.974L138.895 195.553Z" fill="white"/>
<g clip-path="url(#clip1_5_96)">
<path fill-rule="evenodd" clip-rule="evenodd" d="M24.5816 169.68H71.3822C72.0458 169.68 72.6464 169.949 73.0832 170.386C73.52 170.823 73.7888 171.423 73.7888 172.087V202.02C73.7888 202.684 73.52 203.284 73.0832 203.721C72.6464 204.158 72.0458 204.427 71.3822 204.427H70.3826L68.2784 200.37C68.396 200.013 68.4758 199.66 68.5304 199.311L68.564 199.089C68.7992 198.824 69.0302 198.517 69.2486 198.16C69.2864 198.097 69.3242 198.034 69.362 197.967C69.7316 197.304 69.9752 196.606 70.0928 195.859C70.1012 195.813 70.1054 195.762 70.1138 195.716L71.1722 194.658V179.445L64.0196 172.297H31.94L24.7916 179.445V194.658L31.94 201.806H47.585L46.2914 204.305C46.2704 204.343 46.2494 204.385 46.2284 204.423H24.5816C23.918 204.423 23.3174 204.154 22.8806 203.717C22.4438 203.284 22.175 202.684 22.175 202.02V172.087C22.175 171.423 22.4438 170.823 22.8806 170.386C23.3174 169.949 23.918 169.68 24.5816 169.68ZM58.3034 187.056C58.5302 187.043 58.7318 187.081 58.9208 187.144C59.1056 187.207 59.2736 187.303 59.45 187.408C59.6264 187.522 59.8112 187.673 60.0044 187.845L60.017 187.858C60.2606 188.068 60.5336 188.299 60.836 188.471C61.0838 188.61 61.4492 188.622 61.8356 188.643C62.5622 188.668 63.3518 188.702 63.8726 189.475C64.322 190.151 64.3598 190.659 64.3892 191.172L64.3976 191.226C64.4102 191.474 64.4396 191.705 64.5278 191.957C64.616 192.217 64.7672 192.495 65.0192 192.835C65.4938 193.461 65.7752 193.99 65.8844 194.477C65.9978 194.989 65.9222 195.447 65.6618 195.918L65.6534 195.93C65.4602 196.266 65.1746 196.51 64.9268 196.72C64.742 196.879 64.5782 197.018 64.5278 197.131C64.3934 197.442 64.3892 197.724 64.3892 198.022C64.3808 198.425 64.3766 198.841 64.112 199.374L64.1078 199.387C63.9356 199.714 63.7214 199.992 63.4652 200.214C63.2006 200.441 62.8898 200.613 62.537 200.727C62.222 200.827 61.9322 200.811 61.6466 200.79C61.4114 200.773 61.1972 200.76 61.0334 200.827L61.0124 200.832C60.6722 200.979 60.3614 201.231 60.0674 201.462C59.7398 201.726 59.429 201.974 59.0762 202.087C58.8158 202.171 58.5596 202.209 58.2992 202.209C58.0388 202.209 57.7826 202.171 57.5222 202.087L57.5096 202.083C57.161 201.974 56.8544 201.722 56.5268 201.457C56.2286 201.218 55.9136 200.966 55.565 200.819C55.4012 200.748 55.187 200.769 54.9518 200.781C54.6746 200.798 54.3764 200.819 54.0572 200.718L54.0404 200.71C53.6918 200.596 53.3894 200.428 53.1248 200.206C52.8644 199.979 52.646 199.702 52.4822 199.366C52.2176 198.837 52.2134 198.421 52.205 198.018C52.1966 197.719 52.1966 197.438 52.0664 197.127L52.0622 197.123C52.0076 197.001 51.8396 196.863 51.659 196.707C51.407 196.493 51.1214 196.254 50.9324 195.918L50.9198 195.897C50.6594 195.435 50.5922 194.981 50.7056 194.473C50.8148 193.986 51.1046 193.456 51.575 192.831C51.8354 192.495 51.9782 192.213 52.0664 191.953C52.1546 191.701 52.1882 191.461 52.2008 191.214L52.2092 191.163C52.2386 190.651 52.2806 190.13 52.7258 189.466L52.7384 189.454C53.255 188.689 54.0404 188.664 54.7586 188.639C55.145 188.626 55.5146 188.605 55.7624 188.467L55.7708 188.458C56.069 188.286 56.3378 188.059 56.5856 187.845C56.783 187.673 56.9636 187.518 57.1526 187.404C57.3248 187.291 57.5012 187.203 57.6818 187.14C57.8792 187.081 58.0808 187.051 58.3034 187.056ZM66.002 208.022L64.1036 207.682L63.1502 209.391C63.146 209.404 63.1376 209.416 63.125 209.425C62.726 209.916 62.3606 209.904 62.0456 209.647C61.7054 209.37 61.4786 208.778 61.3316 208.387L61.277 208.236L59.2652 204.435C59.2022 204.313 59.2484 204.171 59.366 204.112C59.3786 204.103 59.3912 204.099 59.3996 204.099C59.6096 204.028 59.8406 203.885 60.0926 203.696C60.3572 203.499 60.6344 203.255 60.92 203.003C60.9704 202.957 61.0334 202.932 61.1048 202.94C61.6466 202.953 62.1758 202.906 62.6504 202.751C63.1166 202.591 63.545 202.314 63.9104 201.848C63.9944 201.739 64.1456 201.722 64.2464 201.802C64.2716 201.827 64.2968 201.852 64.3094 201.886L66.6362 206.38L66.8378 206.817C66.8462 206.829 66.8504 206.842 66.8504 206.854C66.9428 207.19 66.9638 207.48 66.8504 207.699C66.7244 207.946 66.4766 208.072 66.0608 208.039C66.0482 208.035 66.023 208.026 66.002 208.022ZM52.5158 207.682L50.6174 208.022C50.6006 208.026 50.5796 208.026 50.5544 208.026C50.1386 208.06 49.8908 207.93 49.7648 207.686C49.6514 207.472 49.6682 207.182 49.7648 206.842L49.7774 206.804L49.979 206.367L52.3058 201.873C52.3184 201.84 52.3436 201.814 52.3688 201.789C52.478 201.705 52.6208 201.726 52.7048 201.831C53.066 202.293 53.4944 202.57 53.969 202.734C54.4478 202.898 54.9728 202.936 55.5146 202.923C55.5776 202.919 55.6406 202.936 55.6994 202.986C55.985 203.238 56.2622 203.486 56.5268 203.679C56.7788 203.868 57.014 204.015 57.2198 204.082L57.2492 204.095C57.371 204.158 57.413 204.305 57.35 204.418L55.3382 208.215L55.2794 208.362C55.1366 208.753 54.9098 209.345 54.5654 209.622C54.2504 209.874 53.8892 209.895 53.486 209.4C53.4776 209.387 53.4692 209.383 53.4608 209.37L52.5158 207.682ZM61.2434 191.688C60.4916 190.936 59.4584 190.47 58.3076 190.47C57.1568 190.47 56.1236 190.936 55.3718 191.688C54.62 192.44 54.1538 193.473 54.1538 194.624C54.1538 195.771 54.62 196.808 55.3718 197.56C56.1236 198.312 57.1568 198.778 58.3076 198.778C59.4542 198.778 60.4916 198.312 61.2434 197.56C61.9952 196.808 62.4614 195.775 62.4614 194.624C62.4572 193.482 61.9952 192.44 61.2434 191.688ZM35.2034 191.167C35.0354 191.167 34.8842 191.062 34.775 190.899C34.6658 190.731 34.5944 190.5 34.5944 190.243C34.5944 189.987 34.6616 189.756 34.775 189.588C34.8842 189.42 35.0396 189.319 35.2034 189.319H42.3854C42.5534 189.319 42.7046 189.424 42.8138 189.588C42.923 189.756 42.9902 189.987 42.9902 190.243C42.9902 190.5 42.923 190.735 42.8138 190.899C42.7046 191.067 42.5492 191.167 42.3854 191.167H35.2034ZM34.7498 196.913C36.5222 194.586 38.0384 195.645 40.1552 197.123C40.2602 197.199 40.3694 197.27 40.4744 197.346C40.7768 197.556 41.096 197.518 41.4152 197.362C41.7596 197.19 42.1082 196.884 42.4526 196.577L42.461 196.573C42.7718 196.3 43.0742 196.031 43.4018 195.825C43.4564 195.792 43.532 195.808 43.5656 195.863L44.0486 196.623C44.0822 196.678 44.0654 196.753 44.0108 196.787C43.7588 196.947 43.4858 197.19 43.2086 197.434L43.2002 197.438C42.7172 197.866 42.2216 198.299 41.6756 198.526C41.1128 198.757 40.5038 198.757 39.8276 198.286L39.5042 198.06C38.6894 197.488 37.9922 197.005 37.3622 196.85C36.7616 196.707 36.2114 196.879 35.657 197.606C35.615 197.661 35.5394 197.669 35.489 197.627L34.775 197.085C34.7204 197.043 34.7078 196.968 34.7498 196.913ZM35.2034 179.269C35.0354 179.269 34.88 179.164 34.7708 179C34.6616 178.836 34.5902 178.601 34.5902 178.349C34.5902 178.093 34.6574 177.866 34.7708 177.698C34.88 177.53 35.0354 177.429 35.2034 177.429H52.5704C52.7384 177.429 52.8938 177.534 53.003 177.698C53.1122 177.866 53.1794 178.097 53.1794 178.349C53.1794 178.605 53.1122 178.832 53.003 179C52.8938 179.168 52.7384 179.273 52.5704 179.273L35.2034 179.269ZM35.2034 185.523C35.0354 185.523 34.8842 185.418 34.775 185.25C34.6658 185.082 34.5944 184.851 34.5944 184.599C34.5944 184.342 34.6616 184.116 34.775 183.943C34.8842 183.775 35.0396 183.675 35.2076 183.675H49.0886C49.2566 183.675 49.4078 183.78 49.517 183.943C49.6262 184.111 49.6976 184.342 49.6976 184.594C49.6976 184.851 49.6304 185.077 49.517 185.245C49.4078 185.413 49.2524 185.514 49.0886 185.514H35.2034V185.523Z" fill="white"/>
</g>
</g>
<rect width="162.75" height="126" transform="translate(0.125)" fill="#F8B300"/>
<path d="M85.5438 59.9006V61.1001H78.77V59.9006H81.4777V51.2834C81.4777 51.0247 81.4866 50.7631 81.5042 50.4985L79.2551 52.43C79.1787 52.4947 79.1022 52.5359 79.0258 52.5535C78.9493 52.5653 78.8788 52.5653 78.8141 52.5535C78.7494 52.5418 78.6877 52.5182 78.6289 52.483C78.576 52.4477 78.5348 52.4095 78.5054 52.3683L78.0115 51.6892L81.7776 48.4346H83.0565V59.9006H85.5438ZM96.8524 54.785C96.8524 55.8904 96.7318 56.8489 96.4908 57.6603C96.2556 58.4659 95.9322 59.1332 95.5206 59.6624C95.109 60.1916 94.6209 60.5856 94.0564 60.8443C93.4978 61.103 92.8981 61.2324 92.2572 61.2324C91.6104 61.2324 91.0077 61.103 90.4491 60.8443C89.8963 60.5856 89.4142 60.1916 89.0026 59.6624C88.591 59.1332 88.2676 58.4659 88.0324 57.6603C87.7972 56.8489 87.6796 55.8904 87.6796 54.785C87.6796 53.6795 87.7972 52.7211 88.0324 51.9097C88.2676 51.0982 88.591 50.4279 89.0026 49.8987C89.4142 49.3636 89.8963 48.9667 90.4491 48.708C91.0077 48.4493 91.6104 48.3199 92.2572 48.3199C92.8981 48.3199 93.4978 48.4493 94.0564 48.708C94.6209 48.9667 95.109 49.3636 95.5206 49.8987C95.9322 50.4279 96.2556 51.0982 96.4908 51.9097C96.7318 52.7211 96.8524 53.6795 96.8524 54.785ZM95.2207 54.785C95.2207 53.8207 95.1384 53.0122 94.9737 52.3595C94.815 51.7009 94.5974 51.1717 94.321 50.7719C94.0506 50.372 93.736 50.0869 93.3773 49.9163C93.0186 49.7399 92.6452 49.6517 92.2572 49.6517C91.8691 49.6517 91.4957 49.7399 91.137 49.9163C90.7783 50.0869 90.4638 50.372 90.1933 50.7719C89.9228 51.1717 89.7052 51.7009 89.5406 52.3595C89.3818 53.0122 89.3025 53.8207 89.3025 54.785C89.3025 55.7493 89.3818 56.5578 89.5406 57.2105C89.7052 57.8632 89.9228 58.3894 90.1933 58.7893C90.4638 59.1891 90.7783 59.4772 91.137 59.6536C91.4957 59.8241 91.8691 59.9094 92.2572 59.9094C92.6452 59.9094 93.0186 59.8241 93.3773 59.6536C93.736 59.4772 94.0506 59.1891 94.321 58.7893C94.5974 58.3894 94.815 57.8632 94.9737 57.2105C95.1384 56.5578 95.2207 55.7493 95.2207 54.785ZM98.8824 51.8832C98.9647 51.307 99.1234 50.7983 99.3586 50.3573C99.5938 49.9105 99.8908 49.5371 100.249 49.2372C100.614 48.9373 101.029 48.7109 101.493 48.5581C101.963 48.3993 102.469 48.3199 103.01 48.3199C103.545 48.3199 104.039 48.3964 104.492 48.5492C104.945 48.7021 105.333 48.9197 105.656 49.2019C105.985 49.4842 106.241 49.8252 106.423 50.225C106.606 50.6249 106.697 51.0688 106.697 51.5569C106.697 51.9567 106.644 52.3154 106.538 52.6329C106.438 52.9445 106.291 53.218 106.097 53.4532C105.909 53.6884 105.68 53.8883 105.409 54.0529C105.139 54.2176 104.836 54.3528 104.501 54.4586C105.324 54.6703 105.941 55.0349 106.353 55.5523C106.77 56.0639 106.979 56.7048 106.979 57.4751C106.979 58.0572 106.867 58.5805 106.644 59.045C106.426 59.5096 106.127 59.9065 105.744 60.2357C105.362 60.5591 104.915 60.809 104.404 60.9854C103.898 61.156 103.354 61.2412 102.772 61.2412C102.102 61.2412 101.528 61.1589 101.052 60.9943C100.576 60.8237 100.173 60.5915 99.8437 60.2975C99.5145 60.0035 99.244 59.6566 99.0323 59.2567C98.8206 58.851 98.6413 58.4129 98.4943 57.9425L99.1734 57.6603C99.3498 57.5839 99.5203 57.5633 99.685 57.5986C99.8555 57.6338 99.979 57.7309 100.055 57.8896C100.132 58.0543 100.226 58.2512 100.338 58.4806C100.455 58.7099 100.614 58.9304 100.814 59.1421C101.014 59.3537 101.267 59.5331 101.572 59.6801C101.884 59.8271 102.278 59.9006 102.754 59.9006C103.195 59.9006 103.58 59.83 103.91 59.6889C104.245 59.5419 104.521 59.3537 104.739 59.1244C104.962 58.8951 105.13 58.6393 105.242 58.3571C105.353 58.0748 105.409 57.7955 105.409 57.5192C105.409 57.1781 105.365 56.8665 105.277 56.5843C105.189 56.302 105.024 56.058 104.783 55.8522C104.542 55.6464 104.21 55.4847 103.786 55.3671C103.369 55.2495 102.831 55.1907 102.172 55.1907V54.0529C102.713 54.047 103.172 53.9882 103.548 53.8765C103.93 53.7648 104.239 53.6119 104.474 53.4179C104.715 53.2238 104.889 52.9916 104.995 52.7211C105.106 52.4506 105.162 52.1507 105.162 51.8215C105.162 51.4569 105.103 51.1394 104.986 50.8689C104.874 50.5984 104.718 50.375 104.518 50.1986C104.318 50.0222 104.08 49.8899 103.804 49.8017C103.533 49.7135 103.239 49.6694 102.922 49.6694C102.604 49.6694 102.307 49.7164 102.031 49.8105C101.761 49.9046 101.52 50.0369 101.308 50.2074C101.102 50.372 100.929 50.569 100.787 50.7983C100.646 51.0277 100.546 51.2805 100.488 51.5569C100.411 51.7627 100.314 51.9008 100.197 51.9714C100.085 52.0361 99.9202 52.0537 99.7026 52.0243L98.8824 51.8832ZM118.023 54.785C118.023 55.8904 117.903 56.8489 117.662 57.6603C117.426 58.4659 117.103 59.1332 116.691 59.6624C116.28 60.1916 115.792 60.5856 115.227 60.8443C114.669 61.103 114.069 61.2324 113.428 61.2324C112.781 61.2324 112.178 61.103 111.62 60.8443C111.067 60.5856 110.585 60.1916 110.173 59.6624C109.762 59.1332 109.438 58.4659 109.203 57.6603C108.968 56.8489 108.85 55.8904 108.85 54.785C108.85 53.6795 108.968 52.7211 109.203 51.9097C109.438 51.0982 109.762 50.4279 110.173 49.8987C110.585 49.3636 111.067 48.9667 111.62 48.708C112.178 48.4493 112.781 48.3199 113.428 48.3199C114.069 48.3199 114.669 48.4493 115.227 48.708C115.792 48.9667 116.28 49.3636 116.691 49.8987C117.103 50.4279 117.426 51.0982 117.662 51.9097C117.903 52.7211 118.023 53.6795 118.023 54.785ZM116.391 54.785C116.391 53.8207 116.309 53.0122 116.144 52.3595C115.986 51.7009 115.768 51.1717 115.492 50.7719C115.221 50.372 114.907 50.0869 114.548 49.9163C114.189 49.7399 113.816 49.6517 113.428 49.6517C113.04 49.6517 112.666 49.7399 112.308 49.9163C111.949 50.0869 111.635 50.372 111.364 50.7719C111.094 51.1717 110.876 51.7009 110.711 52.3595C110.553 53.0122 110.473 53.8207 110.473 54.785C110.473 55.7493 110.553 56.5578 110.711 57.2105C110.876 57.8632 111.094 58.3894 111.364 58.7893C111.635 59.1891 111.949 59.4772 112.308 59.6536C112.666 59.8241 113.04 59.9094 113.428 59.9094C113.816 59.9094 114.189 59.8241 114.548 59.6536C114.907 59.4772 115.221 59.1891 115.492 58.7893C115.768 58.3894 115.986 57.8632 116.144 57.2105C116.309 56.5578 116.391 55.7493 116.391 54.785ZM128.609 54.785C128.609 55.8904 128.488 56.8489 128.247 57.6603C128.012 58.4659 127.688 59.1332 127.277 59.6624C126.865 60.1916 126.377 60.5856 125.813 60.8443C125.254 61.103 124.654 61.2324 124.013 61.2324C123.366 61.2324 122.764 61.103 122.205 60.8443C121.652 60.5856 121.17 60.1916 120.759 59.6624C120.347 59.1332 120.024 58.4659 119.789 57.6603C119.553 56.8489 119.436 55.8904 119.436 54.785C119.436 53.6795 119.553 52.7211 119.789 51.9097C120.024 51.0982 120.347 50.4279 120.759 49.8987C121.17 49.3636 121.652 48.9667 122.205 48.708C122.764 48.4493 123.366 48.3199 124.013 48.3199C124.654 48.3199 125.254 48.4493 125.813 48.708C126.377 48.9667 126.865 49.3636 127.277 49.8987C127.688 50.4279 128.012 51.0982 128.247 51.9097C128.488 52.7211 128.609 53.6795 128.609 54.785ZM126.977 54.785C126.977 53.8207 126.894 53.0122 126.73 52.3595C126.571 51.7009 126.354 51.1717 126.077 50.7719C125.807 50.372 125.492 50.0869 125.133 49.9163C124.775 49.7399 124.401 49.6517 124.013 49.6517C123.625 49.6517 123.252 49.7399 122.893 49.9163C122.534 50.0869 122.22 50.372 121.949 50.7719C121.679 51.1717 121.461 51.7009 121.297 52.3595C121.138 53.0122 121.059 53.8207 121.059 54.785C121.059 55.7493 121.138 56.5578 121.297 57.2105C121.461 57.8632 121.679 58.3894 121.949 58.7893C122.22 59.1891 122.534 59.4772 122.893 59.6536C123.252 59.8241 123.625 59.9094 124.013 59.9094C124.401 59.9094 124.775 59.8241 125.133 59.6536C125.492 59.4772 125.807 59.1891 126.077 58.7893C126.354 58.3894 126.571 57.8632 126.73 57.2105C126.894 56.5578 126.977 55.7493 126.977 54.785ZM138.841 55.7728H135.243V59.5654H133.964V55.7728H130.383V54.5821H133.964V50.816H135.243V54.5821H138.841V55.7728Z" fill="#232323"/>
<path d="M82.3359 71.1631C82.2981 71.2261 82.2561 71.2744 82.2099 71.308C82.1679 71.3374 82.1154 71.3521 82.0524 71.3521C81.981 71.3521 81.897 71.3164 81.8004 71.245C81.7038 71.1736 81.582 71.0959 81.435 71.0119C81.2922 70.9237 81.1179 70.8439 80.9121 70.7725C80.7105 70.7011 80.4648 70.6654 80.175 70.6654C79.902 70.6654 79.6605 70.7032 79.4505 70.7788C79.2447 70.8502 79.0704 70.9489 78.9276 71.0749C78.789 71.2009 78.684 71.35 78.6126 71.5222C78.5412 71.6902 78.5055 71.8729 78.5055 72.0703C78.5055 72.3223 78.5664 72.5323 78.6882 72.7003C78.8142 72.8641 78.978 73.0048 79.1796 73.1224C79.3854 73.24 79.6164 73.3429 79.8726 73.4311C80.133 73.5151 80.3976 73.6033 80.6664 73.6957C80.9394 73.7881 81.204 73.8931 81.4602 74.0107C81.7206 74.1241 81.9516 74.269 82.1532 74.4454C82.359 74.6218 82.5228 74.8381 82.6446 75.0943C82.7706 75.3505 82.8336 75.6655 82.8336 76.0393C82.8336 76.4341 82.7664 76.8058 82.632 77.1544C82.4976 77.4988 82.3002 77.7991 82.0398 78.0553C81.7836 78.3115 81.4665 78.5131 81.0885 78.6601C80.7147 78.8071 80.2884 78.8806 79.8096 78.8806C79.2216 78.8806 78.6882 78.7756 78.2094 78.5656C77.7306 78.3514 77.3211 78.0637 76.9809 77.7025L77.3337 77.1229C77.3673 77.0767 77.4072 77.0389 77.4534 77.0095C77.5038 76.9759 77.5584 76.9591 77.6172 76.9591C77.6718 76.9591 77.7327 76.9822 77.7999 77.0284C77.8713 77.0704 77.9511 77.125 78.0393 77.1922C78.1275 77.2594 78.2283 77.3329 78.3417 77.4127C78.4551 77.4925 78.5832 77.566 78.726 77.6332C78.873 77.7004 79.0389 77.7571 79.2237 77.8033C79.4085 77.8453 79.6164 77.8663 79.8474 77.8663C80.1372 77.8663 80.3955 77.8264 80.6223 77.7466C80.8491 77.6668 81.0402 77.5555 81.1956 77.4127C81.3552 77.2657 81.477 77.0914 81.561 76.8898C81.645 76.6882 81.687 76.4635 81.687 76.2157C81.687 75.9427 81.624 75.7201 81.498 75.5479C81.3762 75.3715 81.2145 75.2245 81.0129 75.1069C80.8113 74.9893 80.5803 74.8906 80.3199 74.8108C80.0595 74.7268 79.7949 74.6428 79.5261 74.5588C79.2573 74.4706 78.9927 74.3698 78.7323 74.2564C78.4719 74.143 78.2409 73.996 78.0393 73.8154C77.8377 73.6348 77.6739 73.4101 77.5479 73.1413C77.4261 72.8683 77.3652 72.5323 77.3652 72.1333C77.3652 71.8141 77.4261 71.5054 77.5479 71.2072C77.6739 70.909 77.8545 70.6444 78.0897 70.4134C78.3291 70.1824 78.621 69.9976 78.9654 69.859C79.314 69.7204 79.713 69.6511 80.1624 69.6511C80.6664 69.6511 81.1242 69.7309 81.5358 69.8905C81.9516 70.0501 82.317 70.2811 82.632 70.5835L82.3359 71.1631ZM90.9161 70.7788H87.9929V78.7798H86.777V70.7788H83.8475V69.7519H90.9161V70.7788ZM95.9916 77.8096C96.3654 77.8096 96.6993 77.7466 96.9933 77.6206C97.2873 77.4946 97.5351 77.3182 97.7367 77.0914C97.9425 76.8646 98.0979 76.5937 98.2029 76.2787C98.3121 75.9637 98.3667 75.6172 98.3667 75.2392V69.7519H99.5826V75.2392C99.5826 75.76 99.4986 76.243 99.3306 76.6882C99.1668 77.1334 98.9295 77.5198 98.6187 77.8474C98.3121 78.1708 97.9362 78.4249 97.491 78.6097C97.0458 78.7945 96.546 78.8869 95.9916 78.8869C95.4372 78.8869 94.9374 78.7945 94.4922 78.6097C94.047 78.4249 93.669 78.1708 93.3582 77.8474C93.0474 77.5198 92.808 77.1334 92.64 76.6882C92.4762 76.243 92.3943 75.76 92.3943 75.2392V69.7519H93.6102V75.2329C93.6102 75.6109 93.6627 75.9574 93.7677 76.2724C93.8769 76.5874 94.0323 76.8583 94.2339 77.0851C94.4397 77.3119 94.6896 77.4904 94.9836 77.6206C95.2818 77.7466 95.6178 77.8096 95.9916 77.8096ZM109.85 74.269C109.85 74.9452 109.743 75.5605 109.528 76.1149C109.314 76.6693 109.012 77.1439 108.621 77.5387C108.231 77.9335 107.76 78.2401 107.21 78.4585C106.664 78.6727 106.059 78.7798 105.396 78.7798H102.025V69.7519H105.396C106.059 69.7519 106.664 69.8611 107.21 70.0795C107.76 70.2937 108.231 70.6003 108.621 70.9993C109.012 71.3941 109.314 71.8687 109.528 72.4231C109.743 72.9775 109.85 73.5928 109.85 74.269ZM108.596 74.269C108.596 73.7146 108.52 73.219 108.369 72.7822C108.218 72.3454 108.004 71.9758 107.727 71.6734C107.449 71.371 107.113 71.14 106.719 70.9804C106.324 70.8208 105.883 70.741 105.396 70.741H103.247V77.7907H105.396C105.883 77.7907 106.324 77.7109 106.719 77.5513C107.113 77.3917 107.449 77.1628 107.727 76.8646C108.004 76.5622 108.218 76.1926 108.369 75.7558C108.52 75.319 108.596 74.8234 108.596 74.269ZM117.432 77.7844L117.425 78.7798H111.862V69.7519H117.425V70.7473H113.085V73.7461H116.6V74.7037H113.085V77.7844H117.432ZM126.701 69.7519V78.7798H126.09C125.993 78.7798 125.911 78.763 125.844 78.7294C125.781 78.6958 125.718 78.6391 125.655 78.5593L120.432 71.7553C120.441 71.8603 120.447 71.9632 120.451 72.064C120.455 72.1648 120.458 72.2593 120.458 72.3475V78.7798H119.387V69.7519H120.017C120.071 69.7519 120.117 69.7561 120.155 69.7645C120.193 69.7687 120.227 69.7792 120.256 69.796C120.285 69.8086 120.315 69.8296 120.344 69.859C120.374 69.8842 120.405 69.9178 120.439 69.9598L125.661 76.7575C125.653 76.6483 125.645 76.5433 125.636 76.4425C125.632 76.3375 125.63 76.2388 125.63 76.1464V69.7519H126.701ZM135.366 70.7788H132.442V78.7798H131.226V70.7788H128.297V69.7519H135.366V70.7788ZM141.538 71.1631C141.5 71.2261 141.458 71.2744 141.412 71.308C141.37 71.3374 141.318 71.3521 141.255 71.3521C141.183 71.3521 141.099 71.3164 141.003 71.245C140.906 71.1736 140.784 71.0959 140.637 71.0119C140.494 70.9237 140.32 70.8439 140.114 70.7725C139.913 70.7011 139.667 70.6654 139.377 70.6654C139.104 70.6654 138.863 70.7032 138.653 70.7788C138.447 70.8502 138.273 70.9489 138.13 71.0749C137.991 71.2009 137.886 71.35 137.815 71.5222C137.743 71.6902 137.708 71.8729 137.708 72.0703C137.708 72.3223 137.769 72.5323 137.89 72.7003C138.016 72.8641 138.18 73.0048 138.382 73.1224C138.588 73.24 138.819 73.3429 139.075 73.4311C139.335 73.5151 139.6 73.6033 139.869 73.6957C140.142 73.7881 140.406 73.8931 140.662 74.0107C140.923 74.1241 141.154 74.269 141.355 74.4454C141.561 74.6218 141.725 74.8381 141.847 75.0943C141.973 75.3505 142.036 75.6655 142.036 76.0393C142.036 76.4341 141.969 76.8058 141.834 77.1544C141.7 77.4988 141.502 77.7991 141.242 78.0553C140.986 78.3115 140.669 78.5131 140.291 78.6601C139.917 78.8071 139.491 78.8806 139.012 78.8806C138.424 78.8806 137.89 78.7756 137.412 78.5656C136.933 78.3514 136.523 78.0637 136.183 77.7025L136.536 77.1229C136.57 77.0767 136.609 77.0389 136.656 77.0095C136.706 76.9759 136.761 76.9591 136.819 76.9591C136.874 76.9591 136.935 76.9822 137.002 77.0284C137.074 77.0704 137.153 77.125 137.242 77.1922C137.33 77.2594 137.431 77.3329 137.544 77.4127C137.657 77.4925 137.785 77.566 137.928 77.6332C138.075 77.7004 138.241 77.7571 138.426 77.8033C138.611 77.8453 138.819 77.8663 139.05 77.8663C139.339 77.8663 139.598 77.8264 139.825 77.7466C140.051 77.6668 140.242 77.5555 140.398 77.4127C140.557 77.2657 140.679 77.0914 140.763 76.8898C140.847 76.6882 140.889 76.4635 140.889 76.2157C140.889 75.9427 140.826 75.7201 140.7 75.5479C140.578 75.3715 140.417 75.2245 140.215 75.1069C140.014 74.9893 139.783 74.8906 139.522 74.8108C139.262 74.7268 138.997 74.6428 138.728 74.5588C138.46 74.4706 138.195 74.3698 137.935 74.2564C137.674 74.143 137.443 73.996 137.242 73.8154C137.04 73.6348 136.876 73.4101 136.75 73.1413C136.628 72.8683 136.567 72.5323 136.567 72.1333C136.567 71.8141 136.628 71.5054 136.75 71.2072C136.876 70.909 137.057 70.6444 137.292 70.4134C137.531 70.1824 137.823 69.9976 138.168 69.859C138.516 69.7204 138.915 69.6511 139.365 69.6511C139.869 69.6511 140.326 69.7309 140.738 69.8905C141.154 70.0501 141.519 70.2811 141.834 70.5835L141.538 71.1631Z" fill="#232323" fill-opacity="0.8"/>
<g clip-path="url(#clip2_5_96)">
<path fill-rule="evenodd" clip-rule="evenodd" d="M54.8385 73.0295L54.6117 64.6337L40.8147 68.6195C39.5715 68.8925 38.3451 69.0227 37.1439 69.0269C35.8545 69.0311 34.5861 68.8925 33.3387 68.6195L20.1591 64.5917V73.1051C20.5371 77.5277 33.2253 78.8801 37.1187 79.0649C40.2393 79.2161 52.5663 77.5865 54.1875 75.0455C54.5361 74.4911 54.7545 73.8191 54.8385 73.0295ZM60.4287 58.5899V68.8505H60.7521C60.9747 68.8505 61.1553 69.0311 61.1553 69.2537V72.0131C61.1553 72.2315 60.9747 72.4163 60.7521 72.4163H60.4287V73.3823C60.8403 73.4579 61.1553 73.8233 61.1553 74.2559C61.1553 74.7431 60.7521 75.1463 60.2649 75.1463H58.6731C58.1859 75.1463 57.7827 74.7473 57.7827 74.2559C57.7827 73.8233 58.0977 73.4579 58.5093 73.3823V72.4163H58.1859C57.9675 72.4163 57.7827 72.2357 57.7827 72.0131V69.2537C57.7827 69.0311 57.9633 68.8505 58.1859 68.8505H58.5093V59.1905L41.7177 64.4069C38.6769 65.1293 35.6361 65.1797 32.5953 64.4069L14.0607 58.8755L12.3849 58.3757C10.2975 57.5231 10.8183 55.5197 12.7629 55.0577L33.7251 48.7997C35.8881 48.1823 38.0469 48.0857 40.2099 48.7997L60.7941 54.9821C63.0327 55.5281 63.4737 57.5987 60.8697 58.4513L60.4287 58.5899Z" fill="#232323"/>
</g>
<g clip-path="url(#clip3_5_96)">
<rect width="162.75" height="126" transform="translate(162.875)" fill="#202020"/>
<path d="M249.792 51.9724C250.451 51.8313 251.056 51.7607 251.609 51.7607C252.268 51.7607 252.85 51.8577 253.355 52.0518C253.861 52.2458 254.282 52.5134 254.617 52.8544C254.958 53.1954 255.214 53.5982 255.384 54.0627C255.56 54.5273 255.649 55.0329 255.649 55.5798C255.649 56.2501 255.531 56.8557 255.296 57.3967C255.067 57.9377 254.746 58.4022 254.335 58.7903C253.929 59.1725 253.45 59.4665 252.897 59.6723C252.344 59.8781 251.747 59.981 251.106 59.981C250.736 59.981 250.38 59.9427 250.039 59.8663C249.698 59.7957 249.378 59.6987 249.078 59.5752C248.784 59.4518 248.51 59.3106 248.258 59.1519C248.005 58.9931 247.781 58.8255 247.587 58.6491L248.072 57.9788C248.178 57.8259 248.316 57.7495 248.487 57.7495C248.604 57.7495 248.737 57.7965 248.884 57.8906C249.031 57.9788 249.21 58.0788 249.422 58.1905C249.633 58.3022 249.88 58.4051 250.163 58.4992C250.451 58.5874 250.792 58.6315 251.186 58.6315C251.627 58.6315 252.024 58.5609 252.376 58.4198C252.729 58.2787 253.032 58.0788 253.285 57.8201C253.538 57.5555 253.732 57.2409 253.867 56.8763C254.002 56.5118 254.07 56.1031 254.07 55.6503C254.07 55.2564 254.011 54.9006 253.894 54.5831C253.782 54.2656 253.608 53.9951 253.373 53.7717C253.144 53.5482 252.856 53.3748 252.509 53.2513C252.162 53.1278 251.756 53.0661 251.292 53.0661C250.974 53.0661 250.642 53.0925 250.295 53.1455C249.954 53.1984 249.604 53.2836 249.245 53.4012L248.258 53.1102L249.272 47.2008H255.261V47.8887C255.261 48.1122 255.19 48.2974 255.049 48.4444C254.914 48.5855 254.678 48.6561 254.343 48.6561H250.374L249.792 51.9724ZM266.887 53.5247C266.887 54.6302 266.766 55.5886 266.525 56.4C266.29 57.2056 265.967 57.873 265.555 58.4022C265.143 58.9314 264.655 59.3253 264.091 59.5841C263.532 59.8428 262.932 59.9721 262.292 59.9721C261.645 59.9721 261.042 59.8428 260.483 59.5841C259.931 59.3253 259.449 58.9314 259.037 58.4022C258.625 57.873 258.302 57.2056 258.067 56.4C257.832 55.5886 257.714 54.6302 257.714 53.5247C257.714 52.4193 257.832 51.4608 258.067 50.6494C258.302 49.838 258.625 49.1676 259.037 48.6384C259.449 48.1034 259.931 47.7065 260.483 47.4477C261.042 47.189 261.645 47.0597 262.292 47.0597C262.932 47.0597 263.532 47.189 264.091 47.4477C264.655 47.7065 265.143 48.1034 265.555 48.6384C265.967 49.1676 266.29 49.838 266.525 50.6494C266.766 51.4608 266.887 52.4193 266.887 53.5247ZM265.255 53.5247C265.255 52.5604 265.173 51.7519 265.008 51.0992C264.849 50.4407 264.632 49.9115 264.355 49.5116C264.085 49.1118 263.77 48.8266 263.412 48.6561C263.053 48.4797 262.68 48.3915 262.292 48.3915C261.903 48.3915 261.53 48.4797 261.171 48.6561C260.813 48.8266 260.498 49.1118 260.228 49.5116C259.957 49.9115 259.74 50.4407 259.575 51.0992C259.416 51.7519 259.337 52.5604 259.337 53.5247C259.337 54.489 259.416 55.2975 259.575 55.9502C259.74 56.6029 259.957 57.1292 260.228 57.529C260.498 57.9288 260.813 58.217 261.171 58.3934C261.53 58.5639 261.903 58.6491 262.292 58.6491C262.68 58.6491 263.053 58.5639 263.412 58.3934C263.77 58.217 264.085 57.9288 264.355 57.529C264.632 57.1292 264.849 56.6029 265.008 55.9502C265.173 55.2975 265.255 54.489 265.255 53.5247ZM277.472 53.5247C277.472 54.6302 277.352 55.5886 277.111 56.4C276.875 57.2056 276.552 57.873 276.14 58.4022C275.729 58.9314 275.241 59.3253 274.676 59.5841C274.118 59.8428 273.518 59.9721 272.877 59.9721C272.23 59.9721 271.627 59.8428 271.069 59.5841C270.516 59.3253 270.034 58.9314 269.622 58.4022C269.211 57.873 268.887 57.2056 268.652 56.4C268.417 55.5886 268.299 54.6302 268.299 53.5247C268.299 52.4193 268.417 51.4608 268.652 50.6494C268.887 49.838 269.211 49.1676 269.622 48.6384C270.034 48.1034 270.516 47.7065 271.069 47.4477C271.627 47.189 272.23 47.0597 272.877 47.0597C273.518 47.0597 274.118 47.189 274.676 47.4477C275.241 47.7065 275.729 48.1034 276.14 48.6384C276.552 49.1676 276.875 49.838 277.111 50.6494C277.352 51.4608 277.472 52.4193 277.472 53.5247ZM275.84 53.5247C275.84 52.5604 275.758 51.7519 275.593 51.0992C275.435 50.4407 275.217 49.9115 274.941 49.5116C274.67 49.1118 274.356 48.8266 273.997 48.6561C273.638 48.4797 273.265 48.3915 272.877 48.3915C272.489 48.3915 272.115 48.4797 271.757 48.6561C271.398 48.8266 271.084 49.1118 270.813 49.5116C270.543 49.9115 270.325 50.4407 270.16 51.0992C270.002 51.7519 269.922 52.5604 269.922 53.5247C269.922 54.489 270.002 55.2975 270.16 55.9502C270.325 56.6029 270.543 57.1292 270.813 57.529C271.084 57.9288 271.398 58.217 271.757 58.3934C272.115 58.5639 272.489 58.6491 272.877 58.6491C273.265 58.6491 273.638 58.5639 273.997 58.3934C274.356 58.217 274.67 57.9288 274.941 57.529C275.217 57.1292 275.435 56.6029 275.593 55.9502C275.758 55.2975 275.84 54.489 275.84 53.5247ZM287.705 54.5126H284.106V58.3052H282.827V54.5126H279.246V53.3219H282.827V49.5557H284.106V53.3219H287.705V54.5126Z" fill="white"/>
<path d="M248.974 68.9597V72.116H252.685V73.1114H248.974V76.9922H247.752V67.9643H253.315V68.9597H248.974ZM259.197 73.6406L257.78 69.9677C257.738 69.8585 257.693 69.7325 257.647 69.5897C257.601 69.4427 257.557 69.2873 257.515 69.1235C257.427 69.4637 257.336 69.7472 257.244 69.974L255.827 73.6406H259.197ZM261.742 76.9922H260.797C260.688 76.9922 260.6 76.9649 260.533 76.9103C260.465 76.8557 260.415 76.7864 260.381 76.7024L259.537 74.5226H255.486L254.642 76.7024C254.617 76.778 254.569 76.8452 254.497 76.904C254.426 76.9628 254.338 76.9922 254.233 76.9922H253.288L256.898 67.9643H258.132L261.742 76.9922ZM269.286 75.1274C269.353 75.1274 269.412 75.1547 269.462 75.2093L269.947 75.7322C269.578 76.1606 269.128 76.4945 268.599 76.7339C268.074 76.9733 267.438 77.093 266.69 77.093C266.043 77.093 265.455 76.9817 264.926 76.7591C264.397 76.5323 263.946 76.2173 263.572 75.8141C263.198 75.4067 262.908 74.9195 262.702 74.3525C262.497 73.7855 262.394 73.1618 262.394 72.4814C262.394 71.801 262.501 71.1773 262.715 70.6103C262.929 70.0433 263.229 69.5561 263.616 69.1487C264.006 68.7413 264.473 68.4263 265.014 68.2037C265.556 67.9769 266.155 67.8635 266.81 67.8635C267.453 67.8635 268.02 67.9664 268.511 68.1722C269.002 68.378 269.435 68.6573 269.809 69.0101L269.406 69.5708C269.38 69.6128 269.347 69.6485 269.305 69.6779C269.267 69.7031 269.214 69.7157 269.147 69.7157C269.072 69.7157 268.979 69.6758 268.87 69.596C268.761 69.512 268.618 69.4196 268.442 69.3188C268.265 69.218 268.045 69.1277 267.78 69.0479C267.516 68.9639 267.19 68.9219 266.804 68.9219C266.337 68.9219 265.911 69.0038 265.525 69.1676C265.138 69.3272 264.804 69.5603 264.523 69.8669C264.246 70.1735 264.03 70.5473 263.874 70.9883C263.719 71.4293 263.641 71.927 263.641 72.4814C263.641 73.0442 263.721 73.5461 263.88 73.9871C264.044 74.4281 264.265 74.8019 264.542 75.1085C264.823 75.4109 265.153 75.6419 265.531 75.8015C265.913 75.9611 266.325 76.0409 266.766 76.0409C267.035 76.0409 267.276 76.0262 267.49 75.9968C267.709 75.9632 267.908 75.9128 268.089 75.8456C268.274 75.7784 268.444 75.6944 268.599 75.5936C268.759 75.4886 268.916 75.3647 269.072 75.2219C269.143 75.1589 269.214 75.1274 269.286 75.1274ZM275.1 76.022C275.474 76.022 275.808 75.959 276.102 75.833C276.396 75.707 276.644 75.5306 276.845 75.3038C277.051 75.077 277.207 74.8061 277.312 74.4911C277.421 74.1761 277.475 73.8296 277.475 73.4516V67.9643H278.691V73.4516C278.691 73.9724 278.607 74.4554 278.439 74.9006C278.276 75.3458 278.038 75.7322 277.727 76.0598C277.421 76.3832 277.045 76.6373 276.6 76.8221C276.155 77.0069 275.655 77.0993 275.1 77.0993C274.546 77.0993 274.046 77.0069 273.601 76.8221C273.156 76.6373 272.778 76.3832 272.467 76.0598C272.156 75.7322 271.917 75.3458 271.749 74.9006C271.585 74.4554 271.503 73.9724 271.503 73.4516V67.9643H272.719V73.4453C272.719 73.8233 272.771 74.1698 272.876 74.4848C272.986 74.7998 273.141 75.0707 273.343 75.2975C273.548 75.5243 273.798 75.7028 274.092 75.833C274.391 75.959 274.727 76.022 275.1 76.022ZM286.256 75.9653V76.9922H281.134V67.9643H282.35V75.9653H286.256ZM292.782 68.9912H289.858V76.9922H288.643V68.9912H285.713V67.9643H292.782V68.9912ZM297.763 73.3949V76.9922H296.54V73.3949L293.233 67.9643H294.304C294.413 67.9643 294.499 67.9916 294.562 68.0462C294.625 68.0966 294.68 68.1638 294.726 68.2478L296.792 71.7569C296.868 71.9039 296.937 72.0425 297 72.1727C297.063 72.2987 297.118 72.4268 297.164 72.557C297.21 72.4268 297.263 72.2987 297.322 72.1727C297.38 72.0425 297.446 71.9039 297.517 71.7569L299.577 68.2478C299.615 68.1764 299.667 68.1113 299.735 68.0525C299.802 67.9937 299.888 67.9643 299.993 67.9643H301.07L297.763 73.3949Z" fill="white"/>
<path fill-rule="evenodd" clip-rule="evenodd" d="M198.172 44.0752H232.952C233.519 44.0752 233.985 44.597 233.985 45.2316V52.0149H234.015V76.4122V77.7661V78.0575H198.999V76.4122H232.545V52.3017H196.101V46.3927C196.101 45.1188 197.034 44.0752 198.172 44.0752ZM182.409 63.5273C182.279 60.8008 184.278 60.105 186.987 60.2837L190.406 64.5473L193.754 60.3401L202.044 60.2884C205.178 60.6879 204.518 64.3546 202.044 64.5097H196.618L195.341 73.0935L194.375 81.8088C194.123 82.7302 193.619 83.3319 192.893 83.6421L188.176 83.6797C187.227 83.5199 186.66 82.8994 186.492 81.8088L185.757 74.0477C183.825 74.2546 183.178 72.7221 182.976 70.5033L182.409 63.5273ZM190.2 48.6679C192.523 48.6679 194.405 50.7739 194.405 53.3734C194.405 55.973 192.523 58.079 190.2 58.079C187.878 58.079 185.996 55.973 185.996 53.3734C185.992 50.7786 187.878 48.6679 190.2 48.6679ZM190.36 62.5448L187.697 59.2777L188.483 58.5773C189.638 59.1179 190.784 59.1179 191.918 58.5773L192.993 59.2918L190.36 62.5448ZM210.142 46.1812C210.986 46.1812 211.671 46.9474 211.671 47.8923C211.671 48.8371 210.986 49.6034 210.142 49.6034C209.298 49.6034 208.613 48.8371 208.613 47.8923C208.613 46.9474 209.298 46.1812 210.142 46.1812ZM201.444 46.1812C202.288 46.1812 202.973 46.9474 202.973 47.8923C202.973 48.8371 202.288 49.6034 201.444 49.6034C200.6 49.6034 199.915 48.8371 199.915 47.8923C199.915 46.9474 200.6 46.1812 201.444 46.1812ZM205.791 46.1812C206.635 46.1812 207.32 46.9474 207.32 47.8923C207.32 48.8371 206.635 49.6034 205.791 49.6034C204.947 49.6034 204.262 48.8371 204.262 47.8923C204.262 46.9474 204.947 46.1812 205.791 46.1812ZM228.231 46.9568C228.076 46.7829 228.076 46.4961 228.231 46.3222C228.387 46.1483 228.643 46.1483 228.798 46.3222L229.638 47.2624L230.478 46.3222C230.634 46.1483 230.89 46.1483 231.045 46.3222C231.201 46.4961 231.201 46.7829 231.045 46.9568L230.205 47.897L231.045 48.8371C231.201 49.0111 231.201 49.2978 231.045 49.4718C230.89 49.6457 230.634 49.6457 230.478 49.4718L229.638 48.5316L228.798 49.4718C228.643 49.6457 228.387 49.6457 228.231 49.4718C228.076 49.2978 228.076 49.0111 228.231 48.8371L229.071 47.897L228.231 46.9568Z" fill="white"/>
</g>
<rect width="162.75" height="126" transform="translate(162.875 126)" fill="#F8B300"/>
<path d="M258.152 186.776C258.575 186.776 258.957 186.708 259.298 186.573C259.645 186.438 259.939 186.249 260.18 186.008C260.427 185.767 260.615 185.482 260.745 185.153C260.88 184.824 260.947 184.465 260.947 184.077C260.947 183.665 260.883 183.295 260.753 182.965C260.624 182.63 260.439 182.348 260.198 182.119C259.963 181.884 259.68 181.704 259.351 181.581C259.022 181.457 258.66 181.396 258.266 181.396C257.843 181.396 257.461 181.469 257.12 181.616C256.779 181.757 256.488 181.951 256.246 182.198C256.011 182.439 255.829 182.721 255.7 183.045C255.576 183.362 255.514 183.695 255.514 184.042C255.514 184.447 255.573 184.818 255.691 185.153C255.808 185.488 255.979 185.776 256.202 186.017C256.432 186.258 256.708 186.446 257.031 186.582C257.361 186.711 257.734 186.776 258.152 186.776ZM257.234 180.037C257.123 180.178 257.014 180.317 256.908 180.452C256.808 180.581 256.711 180.71 256.617 180.84C256.917 180.634 257.246 180.475 257.605 180.364C257.963 180.252 258.354 180.196 258.778 180.196C259.289 180.196 259.771 180.281 260.224 180.452C260.677 180.616 261.071 180.86 261.406 181.184C261.747 181.501 262.018 181.895 262.218 182.366C262.417 182.83 262.517 183.362 262.517 183.962C262.517 184.544 262.412 185.085 262.2 185.585C261.988 186.085 261.691 186.52 261.309 186.89C260.933 187.261 260.477 187.552 259.942 187.764C259.413 187.975 258.828 188.081 258.187 188.081C257.552 188.081 256.976 187.981 256.458 187.781C255.941 187.575 255.5 187.287 255.135 186.917C254.776 186.541 254.497 186.088 254.297 185.559C254.103 185.023 254.006 184.427 254.006 183.768C254.006 183.215 254.127 182.627 254.368 182.004C254.615 181.375 255.006 180.705 255.541 179.993L258.751 175.68C258.834 175.574 258.945 175.486 259.086 175.416C259.233 175.339 259.401 175.301 259.589 175.301H260.983L257.234 180.037ZM273.341 181.625C273.341 182.73 273.22 183.689 272.979 184.5C272.744 185.306 272.421 185.973 272.009 186.502C271.598 187.031 271.11 187.425 270.545 187.684C269.986 187.943 269.387 188.072 268.746 188.072C268.099 188.072 267.496 187.943 266.938 187.684C266.385 187.425 265.903 187.031 265.491 186.502C265.08 185.973 264.756 185.306 264.521 184.5C264.286 183.689 264.168 182.73 264.168 181.625C264.168 180.519 264.286 179.561 264.521 178.75C264.756 177.938 265.08 177.268 265.491 176.739C265.903 176.203 266.385 175.807 266.938 175.548C267.496 175.289 268.099 175.16 268.746 175.16C269.387 175.16 269.986 175.289 270.545 175.548C271.11 175.807 271.598 176.203 272.009 176.739C272.421 177.268 272.744 177.938 272.979 178.75C273.22 179.561 273.341 180.519 273.341 181.625ZM271.709 181.625C271.709 180.661 271.627 179.852 271.462 179.199C271.304 178.541 271.086 178.012 270.81 177.612C270.539 177.212 270.225 176.927 269.866 176.756C269.507 176.58 269.134 176.492 268.746 176.492C268.358 176.492 267.984 176.58 267.626 176.756C267.267 176.927 266.952 177.212 266.682 177.612C266.411 178.012 266.194 178.541 266.029 179.199C265.87 179.852 265.791 180.661 265.791 181.625C265.791 182.589 265.87 183.398 266.029 184.05C266.194 184.703 266.411 185.229 266.682 185.629C266.952 186.029 267.267 186.317 267.626 186.493C267.984 186.664 268.358 186.749 268.746 186.749C269.134 186.749 269.507 186.664 269.866 186.493C270.225 186.317 270.539 186.029 270.81 185.629C271.086 185.229 271.304 184.703 271.462 184.05C271.627 183.398 271.709 182.589 271.709 181.625ZM283.926 181.625C283.926 182.73 283.806 183.689 283.565 184.5C283.33 185.306 283.006 185.973 282.595 186.502C282.183 187.031 281.695 187.425 281.13 187.684C280.572 187.943 279.972 188.072 279.331 188.072C278.684 188.072 278.082 187.943 277.523 187.684C276.97 187.425 276.488 187.031 276.077 186.502C275.665 185.973 275.342 185.306 275.106 184.5C274.871 183.689 274.754 182.73 274.754 181.625C274.754 180.519 274.871 179.561 275.106 178.75C275.342 177.938 275.665 177.268 276.077 176.739C276.488 176.203 276.97 175.807 277.523 175.548C278.082 175.289 278.684 175.16 279.331 175.16C279.972 175.16 280.572 175.289 281.13 175.548C281.695 175.807 282.183 176.203 282.595 176.739C283.006 177.268 283.33 177.938 283.565 178.75C283.806 179.561 283.926 180.519 283.926 181.625ZM282.295 181.625C282.295 180.661 282.212 179.852 282.048 179.199C281.889 178.541 281.671 178.012 281.395 177.612C281.125 177.212 280.81 176.927 280.451 176.756C280.093 176.58 279.719 176.492 279.331 176.492C278.943 176.492 278.57 176.58 278.211 176.756C277.852 176.927 277.538 177.212 277.267 177.612C276.997 178.012 276.779 178.541 276.615 179.199C276.456 179.852 276.376 180.661 276.376 181.625C276.376 182.589 276.456 183.398 276.615 184.05C276.779 184.703 276.997 185.229 277.267 185.629C277.538 186.029 277.852 186.317 278.211 186.493C278.57 186.664 278.943 186.749 279.331 186.749C279.719 186.749 280.093 186.664 280.451 186.493C280.81 186.317 281.125 186.029 281.395 185.629C281.671 185.229 281.889 184.703 282.048 184.05C282.212 183.398 282.295 182.589 282.295 181.625ZM294.159 182.613H290.56V186.405H289.281V182.613H285.701V181.422H289.281V177.656H290.56V181.422H294.159V182.613Z" fill="#232323"/>
<path d="M258.824 194.478C258.786 194.541 258.744 194.589 258.698 194.623C258.656 194.652 258.604 194.667 258.541 194.667C258.469 194.667 258.385 194.631 258.289 194.56C258.192 194.489 258.07 194.411 257.923 194.327C257.781 194.239 257.606 194.159 257.4 194.087C257.199 194.016 256.953 193.98 256.663 193.98C256.39 193.98 256.149 194.018 255.939 194.094C255.733 194.165 255.559 194.264 255.416 194.39C255.277 194.516 255.172 194.665 255.101 194.837C255.03 195.005 254.994 195.188 254.994 195.385C254.994 195.637 255.055 195.847 255.177 196.015C255.303 196.179 255.466 196.32 255.668 196.437C255.874 196.555 256.105 196.658 256.361 196.746C256.621 196.83 256.886 196.918 257.155 197.011C257.428 197.103 257.692 197.208 257.949 197.326C258.209 197.439 258.44 197.584 258.642 197.76C258.847 197.937 259.011 198.153 259.133 198.409C259.259 198.665 259.322 198.98 259.322 199.354C259.322 199.749 259.255 200.121 259.12 200.469C258.986 200.814 258.789 201.114 258.528 201.37C258.272 201.626 257.955 201.828 257.577 201.975C257.203 202.122 256.777 202.196 256.298 202.196C255.71 202.196 255.177 202.091 254.698 201.881C254.219 201.666 253.809 201.379 253.469 201.017L253.822 200.438C253.856 200.392 253.896 200.354 253.942 200.324C253.992 200.291 254.047 200.274 254.106 200.274C254.16 200.274 254.221 200.297 254.288 200.343C254.36 200.385 254.439 200.44 254.528 200.507C254.616 200.574 254.717 200.648 254.83 200.728C254.943 200.807 255.072 200.881 255.214 200.948C255.361 201.015 255.527 201.072 255.712 201.118C255.897 201.16 256.105 201.181 256.336 201.181C256.626 201.181 256.884 201.141 257.111 201.062C257.337 200.982 257.529 200.87 257.684 200.728C257.844 200.581 257.965 200.406 258.049 200.205C258.133 200.003 258.175 199.778 258.175 199.531C258.175 199.258 258.112 199.035 257.986 198.863C257.865 198.686 257.703 198.539 257.501 198.422C257.3 198.304 257.069 198.206 256.808 198.126C256.548 198.042 256.283 197.958 256.014 197.874C255.746 197.786 255.481 197.685 255.221 197.571C254.96 197.458 254.729 197.311 254.528 197.13C254.326 196.95 254.162 196.725 254.036 196.456C253.914 196.183 253.854 195.847 253.854 195.448C253.854 195.129 253.914 194.82 254.036 194.522C254.162 194.224 254.343 193.959 254.578 193.728C254.817 193.497 255.109 193.313 255.454 193.174C255.802 193.035 256.201 192.966 256.651 192.966C257.155 192.966 257.613 193.046 258.024 193.205C258.44 193.365 258.805 193.596 259.12 193.898L258.824 194.478ZM267.404 194.094H264.481V202.095H263.265V194.094H260.336V193.067H267.404V194.094ZM272.904 198.743L271.487 195.07C271.445 194.961 271.401 194.835 271.355 194.692C271.308 194.545 271.264 194.39 271.222 194.226C271.134 194.566 271.044 194.85 270.951 195.077L269.534 198.743H272.904ZM275.45 202.095H274.505C274.395 202.095 274.307 202.067 274.24 202.013C274.173 201.958 274.122 201.889 274.089 201.805L273.245 199.625H269.194L268.35 201.805C268.324 201.881 268.276 201.948 268.205 202.007C268.133 202.065 268.045 202.095 267.94 202.095H266.995L270.605 193.067H271.84L275.45 202.095ZM278.112 194.062V197.219H281.822V198.214H278.112V202.095H276.889V193.067H282.452V194.062H278.112ZM285.488 194.062V197.219H289.199V198.214H285.488V202.095H284.266V193.067H289.829V194.062H285.488Z" fill="#232323" fill-opacity="0.8"/>
<g clip-path="url(#clip4_5_96)">
<path fill-rule="evenodd" clip-rule="evenodd" d="M230.474 203.565L231.31 200.378L230.734 199.748C230.474 199.37 230.419 199.038 230.562 198.752C230.873 198.135 231.52 198.248 232.125 198.248C232.759 198.248 233.54 198.126 233.737 198.92C233.805 199.185 233.721 199.462 233.536 199.748L232.96 200.378L233.46 202.293L236.774 199.412L238.492 199.454C237.9 198.265 237.148 197.257 236.274 196.308C237.921 196.946 239.605 197.576 240.852 198.357C241.646 198.853 242.053 199.231 242.377 199.832C243.057 201.113 243.133 202.259 243.234 203.645L243.473 204.846H234.132L234.141 204.876H230.566C230.487 205.695 230.016 206.169 229.096 206.237H217.761H206.236C205.312 206.165 204.841 205.691 204.766 204.863L205.085 199.806C205.173 198.639 205.501 197.715 206.034 197.009C206.387 196.543 206.824 196.199 207.307 195.93C208.84 195.077 212.418 194.825 213.808 193.574L215.938 199.836L217.009 196.119L216.484 195.543C216.249 195.199 216.194 194.897 216.328 194.636C216.614 194.073 217.202 194.178 217.752 194.178C218.328 194.178 219.037 194.069 219.218 194.792C219.277 195.031 219.201 195.283 219.033 195.543L218.508 196.119L219.579 199.836L221.507 193.574C222.897 194.825 226.48 195.077 228.009 195.93C228.492 196.199 228.933 196.543 229.281 197.009C229.815 197.715 230.142 198.635 230.23 199.806L230.474 203.565ZM198.277 196.665L199.705 200.861L200.423 198.37L200.07 197.984C199.911 197.753 199.877 197.551 199.965 197.375C200.154 196.997 200.549 197.068 200.919 197.068C201.305 197.068 201.78 196.997 201.901 197.48C201.943 197.639 201.889 197.811 201.78 197.984L201.427 198.37L202.145 200.861L203.439 196.665C203.628 196.833 203.888 196.976 204.195 197.097C204.09 197.32 203.993 197.555 203.909 197.799C203.691 198.433 203.548 199.139 203.489 199.924H203.493C203.493 199.941 203.489 199.962 203.489 199.979L203.178 204.842H200.931H192.842C192.22 204.796 191.905 204.477 191.855 203.922L192.069 200.84C192.128 200.058 192.351 199.441 192.708 198.966C192.943 198.656 193.237 198.425 193.56 198.244C194.585 197.673 197.344 197.505 198.277 196.665ZM197.575 190.718C197.437 190.73 197.332 190.76 197.256 190.81C197.214 190.839 197.181 190.877 197.16 190.919C197.134 190.97 197.126 191.037 197.126 191.108C197.134 191.339 197.256 191.65 197.496 192.007L197.5 192.015L198.298 193.284C198.617 193.788 198.949 194.304 199.36 194.682C199.751 195.039 200.226 195.283 200.856 195.283C201.536 195.283 202.032 195.031 202.439 194.653C202.863 194.254 203.199 193.708 203.531 193.162L204.426 191.688C204.606 191.276 204.661 191.028 204.602 190.911C204.564 190.839 204.417 190.818 204.174 190.839C204.018 190.873 203.854 190.844 203.682 190.755L204.132 189.411C202.489 189.39 201.368 189.105 200.037 188.256C199.6 187.979 199.47 187.66 199.033 187.689C198.701 187.752 198.424 187.899 198.205 188.139C197.995 188.366 197.836 188.676 197.731 189.075L197.995 190.684C197.861 190.768 197.718 190.776 197.575 190.718ZM204.686 190.319C204.879 190.377 205.022 190.487 205.106 190.659C205.24 190.932 205.19 191.339 204.934 191.919C204.93 191.931 204.925 191.94 204.917 191.952L204.01 193.448C203.657 194.027 203.3 194.607 202.821 195.056C202.321 195.527 201.704 195.837 200.86 195.833C200.07 195.833 199.478 195.531 198.991 195.086C198.525 194.657 198.168 194.111 197.832 193.574L197.034 192.305C196.735 191.86 196.584 191.457 196.572 191.121C196.567 190.957 196.593 190.81 196.656 190.684C196.719 190.545 196.815 190.432 196.95 190.344C197.013 190.302 197.088 190.264 197.168 190.235C197.118 189.554 197.101 188.714 197.134 188.009C197.151 187.836 197.185 187.664 197.231 187.492C197.437 186.765 197.945 186.177 198.579 185.774C198.802 185.631 199.045 185.514 199.306 185.421C200.839 184.867 202.867 185.169 203.955 186.345C204.396 186.824 204.678 187.458 204.736 188.298L204.686 190.319ZM212.708 184.703C212.532 184.724 212.393 184.77 212.292 184.838C212.229 184.88 212.179 184.938 212.149 185.001C212.116 185.077 212.099 185.174 212.099 185.283C212.107 185.631 212.292 186.089 212.653 186.618L212.662 186.627L213.85 188.521C214.325 189.277 214.821 190.046 215.434 190.604C216.018 191.138 216.727 191.499 217.66 191.503C218.676 191.507 219.415 191.129 220.02 190.566C220.654 189.974 221.158 189.155 221.654 188.34L222.99 186.14C223.258 185.526 223.342 185.157 223.254 184.98C223.2 184.867 222.964 184.842 222.57 184.88C222.54 184.884 222.511 184.884 222.481 184.88C222.318 184.88 222.141 184.838 221.948 184.749L222.549 182.742C220.096 182.712 218.42 182.284 216.438 181.016C215.787 180.6 215.589 180.125 214.938 180.171C214.447 180.268 214.031 180.486 213.703 180.839C213.388 181.179 213.149 181.641 212.994 182.234L213.418 184.661C213.166 184.791 212.931 184.8 212.708 184.703ZM223.376 184.103C223.666 184.187 223.876 184.355 224.006 184.611C224.208 185.022 224.132 185.627 223.75 186.492C223.741 186.509 223.733 186.526 223.725 186.539L222.368 188.773C221.843 189.638 221.31 190.508 220.591 191.175C219.844 191.877 218.924 192.343 217.664 192.339C216.488 192.335 215.602 191.885 214.875 191.222C214.178 190.583 213.649 189.768 213.145 188.966L211.956 187.072C211.515 186.413 211.284 185.804 211.267 185.304C211.259 185.06 211.301 184.842 211.393 184.649C211.49 184.443 211.633 184.271 211.83 184.14C211.927 184.073 212.036 184.019 212.158 183.977C212.086 182.964 212.061 181.713 212.107 180.659C212.133 180.402 212.183 180.146 212.254 179.89C212.557 178.802 213.321 177.929 214.266 177.328C214.598 177.118 214.963 176.942 215.35 176.803C217.635 175.976 220.667 176.429 222.288 178.185C222.948 178.899 223.363 179.848 223.452 181.1L223.376 184.103ZM227.505 194.443L228.555 194.414L229.424 194.393C228.408 191.264 228.748 188.387 231.196 185.942C231.612 187.286 232.54 188.391 234.124 189.21C234.88 189.773 235.615 190.453 236.32 191.23C236.446 190.713 235.968 190.083 235.384 189.437C235.921 189.701 236.417 190.075 236.766 190.789C237.173 191.621 237.165 192.318 237.034 193.221C236.971 193.641 236.871 194.031 236.724 194.388H238.173C239.701 191.117 238.731 186.266 235.606 184.208C234.649 183.578 233.96 183.599 232.834 183.603C231.545 183.603 230.89 183.645 229.785 184.371C228.16 185.447 227.16 187.307 226.74 189.89C226.66 191.18 226.606 193.406 227.505 194.443Z" fill="#232323"/>
</g>
<defs>
<clipPath id="clip0_5_96">
<rect width="162.75" height="126" fill="white" transform="translate(0.125 126)"/>
</clipPath>
<clipPath id="clip1_5_96">
<rect width="51.6096" height="40.1394" fill="white" transform="translate(22.175 169.68)"/>
</clipPath>
<clipPath id="clip2_5_96">
<rect width="51.6096" height="30.7734" fill="white" transform="translate(11.045 48.2998)"/>
</clipPath>
<clipPath id="clip3_5_96">
<rect width="162.75" height="126" fill="white" transform="translate(162.875)"/>
</clipPath>
<clipPath id="clip4_5_96">
<rect width="51.6096" height="29.8368" fill="white" transform="translate(191.855 176.4)"/>
</clipPath>
</defs>
</svg>
