<svg width="21" height="20" viewBox="0 0 21 20" fill="none" xmlns="http://www.w3.org/2000/svg">
<path d="M2.75813 4.87531V4.875C2.75813 4.18591 3.3158 3.625 4 3.625H17C17.6866 3.625 18.25 4.18836 18.25 4.875V14.625C18.25 15.3116 17.6866 15.875 17 15.875H4C3.31341 15.875 2.75009 15.3117 2.75 14.6252C2.75 14.6251 2.75 14.6251 2.75 14.625L2.75813 4.87531ZM17.1987 6.818L17.375 6.70784V6.5V4.875V4.19841L16.8013 4.557L10.5 8.49528L4.19875 4.557L3.625 4.19841V4.875V6.5V6.70784L3.80125 6.818L10.3013 10.8805L10.5 11.0047L10.6987 10.8805L17.1987 6.818Z" fill="black" stroke="white" stroke-width="0.75"/>
</svg>
