<svg width="235" height="235" viewBox="0 0 235 235" fill="none" xmlns="http://www.w3.org/2000/svg">
<mask id="path-1-inside-1_5_167" fill="white">
<path d="M0.591003 0.291992H234.409V234.708H0.591003V0.291992Z"/>
</mask>
<path d="M234.409 234.11H0.591003V235.306H234.409V234.11Z" fill="#C4C4C4" mask="url(#path-1-inside-1_5_167)"/>
<g clip-path="url(#clip0_5_167)">
<path d="M163.979 80.6106C158.689 75.32 151.012 73.0989 143.734 74.6934L136.598 67.5568L158.399 45.7552C158.401 45.753 167.946 36.2086 167.946 36.2086C169.534 34.6203 170.409 32.5011 170.409 30.2422C170.409 27.9828 169.534 25.8638 167.946 24.2755L158.4 14.7301C156.812 13.1418 154.693 12.267 152.434 12.267C150.174 12.267 148.055 13.1416 146.467 14.7304L115.119 46.0779L107.982 38.9414C109.577 31.6637 107.356 23.9869 102.065 18.6963C96.132 12.7631 87.5005 10.7386 79.5394 13.4129C78.9853 13.5991 78.5669 14.0585 78.4331 14.6274C78.2994 15.1965 78.4695 15.7942 78.883 16.2074L90.5035 27.828L88.3455 36.019L80.1538 38.1742L68.5334 26.5541C68.12 26.1406 67.5223 25.9705 66.9536 26.1043C66.3847 26.2378 65.9251 26.656 65.7387 27.2101C63.0623 35.1727 65.0864 43.8056 71.0208 49.74C76.3117 55.0306 83.9884 57.2519 91.2659 55.6572L94.8207 59.2117C95.1502 59.5413 95.5825 59.7064 96.0145 59.7064C96.4466 59.7064 96.8789 59.5417 97.2084 59.2117C97.8679 58.5523 97.8679 57.483 97.2084 56.8238L92.9835 52.5988C92.5576 52.1726 91.937 52.0057 91.3538 52.1614C84.9592 53.8688 78.0829 52.0262 73.4088 47.352C69.0643 43.0076 67.1969 36.9535 68.2391 31.0356L78.4513 41.2479C78.876 41.6725 79.4943 41.8395 80.0748 41.687L90.1566 39.0346C90.7452 38.8798 91.205 38.4202 91.3598 37.8317L93.8997 28.1912L100.323 21.7679C104.516 26.4133 106.112 32.9386 104.486 39.029C104.33 39.6114 104.497 40.2324 104.923 40.6587L112.73 48.4657L74.6316 86.5653C74.5869 86.6099 74.546 86.6567 74.5073 86.7048C74.4976 86.717 74.4891 86.73 74.4796 86.7424C74.4513 86.7801 74.424 86.8181 74.399 86.8572C74.3895 86.8721 74.381 86.8874 74.3721 86.9027C74.3492 86.9413 74.3277 86.9806 74.3085 87.0207C74.3006 87.0372 74.293 87.0536 74.2855 87.0703C74.2673 87.1112 74.2506 87.153 74.2357 87.195C74.2322 87.2053 74.227 87.2152 74.2235 87.2256L64.6781 115.861C64.4759 116.468 64.6337 117.137 65.086 117.589C65.4079 117.911 65.8393 118.084 66.2801 118.084C66.4587 118.084 66.639 118.056 66.8139 117.997L95.4502 108.452C95.4607 108.449 95.4706 108.443 95.4812 108.44C95.5231 108.425 95.5643 108.408 95.605 108.39C95.622 108.383 95.6383 108.375 95.655 108.367C95.6949 108.347 95.734 108.326 95.7725 108.303C95.7878 108.294 95.8031 108.286 95.8181 108.276C95.8572 108.252 95.8955 108.224 95.9327 108.196C95.9453 108.186 95.9583 108.178 95.9705 108.168C96.0187 108.13 96.0656 108.088 96.11 108.044L134.21 69.9444L142.017 77.7513C142.444 78.1778 143.065 78.3444 143.646 78.1888C150.041 76.4816 156.917 78.3242 161.591 82.9981C165.934 87.3413 167.802 93.3936 166.762 99.31L156.55 89.0977C156.125 88.6729 155.506 88.5059 154.925 88.6588L144.843 91.3149C144.255 91.4697 143.796 91.9295 143.641 92.5181L141.105 102.158L134.679 108.584C130.484 103.938 128.888 97.4126 130.514 91.3213C130.669 90.739 130.503 90.1179 130.077 89.6917L125.851 85.4665C125.192 84.807 124.123 84.807 123.463 85.4665C122.804 86.126 122.804 87.1952 123.463 87.8544L127.018 91.4092C125.423 98.6869 127.644 106.364 132.935 111.654C133.073 111.793 133.213 111.928 133.354 112.062C133.389 112.104 133.426 112.145 133.465 112.185C133.533 112.252 133.605 112.311 133.679 112.364C137.782 116.108 143.024 118.098 148.406 118.098C150.76 118.098 153.141 117.717 155.465 116.936C156.019 116.75 156.438 116.29 156.571 115.721C156.705 115.152 156.534 114.554 156.121 114.141L144.501 102.521L146.656 94.3292L154.848 92.1712L166.468 103.792C166.882 104.205 167.48 104.376 168.048 104.242C168.617 104.108 169.077 103.69 169.263 103.135C171.937 95.175 169.912 86.5436 163.979 80.6106ZM92.3833 24.9323L83.3651 15.9137C88.4889 15.0123 93.7132 16.2939 97.842 19.4736L92.3833 24.9323ZM148.855 17.1179C149.805 16.1673 151.076 15.6439 152.434 15.6439C153.791 15.6439 155.062 16.1673 156.012 17.1179L165.558 26.6633C167.531 28.6367 167.531 31.8474 165.558 33.8207L157.206 42.172L140.504 25.4692L148.855 17.1179ZM68.95 113.726L71.7909 105.203L77.4725 110.885L68.95 113.726ZM81.0545 109.691L72.9848 101.621L76.5635 90.8851L91.7904 106.112L81.0545 109.691ZM94.9162 104.462L78.2132 87.7591L131.752 34.2209L138.909 41.3781L88.9495 91.3381C88.2901 91.9975 88.2901 93.0667 88.9495 93.726C89.279 94.0555 89.7113 94.2207 90.1434 94.2207C90.5755 94.2207 91.0077 94.0559 91.3373 93.726L141.297 43.7667L144.875 47.3452C145.205 47.6747 145.638 47.8399 146.07 47.8399C146.502 47.8399 146.934 47.6751 147.264 47.3452C147.923 46.6857 147.923 45.6165 147.264 44.9572L142.491 40.1849C142.491 40.1843 134.139 31.833 134.139 31.833L138.115 27.8573L154.818 44.5601L94.9162 104.462ZM151.64 114.436C146.516 115.338 141.291 114.058 137.161 110.879L142.621 105.418L151.64 114.436Z" fill="black"/>
<path d="M102.536 43.0468C101.876 42.3874 100.807 42.3874 100.148 43.0468L95.372 47.8227C94.7125 48.4822 94.7125 49.5514 95.372 50.2107C95.7015 50.5402 96.1338 50.7054 96.5659 50.7054C96.9979 50.7054 97.4302 50.5406 97.7597 50.2107L102.536 45.4348C103.195 44.7755 103.195 43.7063 102.536 43.0468Z" fill="black"/>
<path d="M139.629 80.1399C138.969 79.4804 137.9 79.4804 137.241 80.1399L132.465 84.9158C131.805 85.5752 131.805 86.6444 132.465 87.3037C132.795 87.6332 133.227 87.7984 133.659 87.7984C134.091 87.7984 134.523 87.6334 134.853 87.3037L139.628 82.5278C140.288 81.8683 140.288 80.7991 139.629 80.1399Z" fill="black"/>
</g>
<path d="M40.2579 135.489V144.058H39.6778C39.5862 144.058 39.5084 144.042 39.4446 144.01C39.3848 143.978 39.325 143.924 39.2652 143.849L34.3078 137.39C34.3158 137.49 34.3218 137.588 34.3257 137.683C34.3297 137.779 34.3317 137.869 34.3317 137.952V144.058H33.3151V135.489H33.9131C33.965 135.489 34.0088 135.493 34.0447 135.5C34.0806 135.504 34.1125 135.514 34.1404 135.53C34.1683 135.542 34.1962 135.562 34.2241 135.59C34.252 135.614 34.2819 135.646 34.3138 135.686L39.2712 142.138C39.2632 142.035 39.2553 141.935 39.2473 141.839C39.2433 141.74 39.2413 141.646 39.2413 141.558V135.489H40.2579ZM43.6088 144.058H42.4486V135.489H43.6088V144.058ZM48.1748 139.639C48.5097 139.639 48.8047 139.599 49.0598 139.519C49.3189 139.435 49.5342 139.32 49.7057 139.172C49.8811 139.021 50.0126 138.841 50.1003 138.634C50.188 138.427 50.2319 138.197 50.2319 137.946C50.2319 137.436 50.0645 137.051 49.7296 136.792C49.3947 136.533 48.8924 136.403 48.2226 136.403H46.9549V139.639H48.1748ZM52.1335 144.058H51.105C50.8937 144.058 50.7382 143.976 50.6385 143.813L48.414 140.751C48.3462 140.655 48.2724 140.587 48.1927 140.548C48.117 140.504 47.9974 140.482 47.8339 140.482H46.9549V144.058H45.8007V135.489H48.2226C48.7648 135.489 49.2332 135.544 49.6279 135.656C50.0226 135.764 50.3475 135.921 50.6027 136.128C50.8618 136.336 51.0531 136.587 51.1767 136.882C51.3003 137.173 51.3621 137.5 51.3621 137.863C51.3621 138.166 51.3143 138.449 51.2186 138.712C51.1229 138.975 50.9834 139.212 50.8 139.423C50.6206 139.631 50.3993 139.808 50.1362 139.956C49.8771 140.103 49.5821 140.215 49.2512 140.29C49.3987 140.374 49.5263 140.496 49.6339 140.655L52.1335 144.058ZM54.4592 136.433V139.429H57.9814V140.374H54.4592V144.058H53.2991V135.489H58.5794V136.433H54.4592ZM65.2154 139.639C65.5503 139.639 65.8453 139.599 66.1005 139.519C66.3596 139.435 66.5749 139.32 66.7463 139.172C66.9217 139.021 67.0533 138.841 67.141 138.634C67.2287 138.427 67.2726 138.197 67.2726 137.946C67.2726 137.436 67.1051 137.051 66.7702 136.792C66.4354 136.533 65.933 136.403 65.2633 136.403H63.9955V139.639H65.2154ZM69.1742 144.058H68.1456C67.9343 144.058 67.7789 143.976 67.6792 143.813L65.4546 140.751C65.3869 140.655 65.3131 140.587 65.2334 140.548C65.1576 140.504 65.038 140.482 64.8746 140.482H63.9955V144.058H62.8414V135.489H65.2633C65.8055 135.489 66.2739 135.544 66.6686 135.656C67.0633 135.764 67.3882 135.921 67.6433 136.128C67.9024 136.336 68.0938 136.587 68.2174 136.882C68.341 137.173 68.4028 137.5 68.4028 137.863C68.4028 138.166 68.3549 138.449 68.2593 138.712C68.1636 138.975 68.024 139.212 67.8407 139.423C67.6613 139.631 67.44 139.808 67.1769 139.956C66.9177 140.103 66.6227 140.215 66.2918 140.29C66.4393 140.374 66.5669 140.496 66.6746 140.655L69.1742 144.058ZM74.8905 140.877L73.545 137.39C73.5051 137.287 73.4633 137.167 73.4194 137.031C73.3756 136.892 73.3337 136.744 73.2939 136.589C73.2101 136.912 73.1244 137.181 73.0367 137.396L71.6912 140.877H74.8905ZM77.3064 144.058H76.4094C76.3058 144.058 76.2221 144.032 76.1583 143.98C76.0945 143.928 76.0466 143.863 76.0148 143.783L75.2134 141.714H71.3683L70.567 143.783C70.5431 143.855 70.4972 143.918 70.4294 143.974C70.3617 144.03 70.2779 144.058 70.1783 144.058H69.2813L72.7078 135.489H73.8799L77.3064 144.058ZM85.3765 135.489V144.058H84.7965C84.7048 144.058 84.627 144.042 84.5633 144.01C84.5035 143.978 84.4437 143.924 84.3839 143.849L79.4264 137.39C79.4344 137.49 79.4404 137.588 79.4444 137.683C79.4484 137.779 79.4504 137.869 79.4504 137.952V144.058H78.4338V135.489H79.0318C79.0836 135.489 79.1274 135.493 79.1633 135.5C79.1992 135.504 79.2311 135.514 79.259 135.53C79.2869 135.542 79.3148 135.562 79.3427 135.59C79.3706 135.614 79.4005 135.646 79.4324 135.686L84.3898 142.138C84.3819 142.035 84.3739 141.935 84.3659 141.839C84.3619 141.74 84.3599 141.646 84.3599 141.558V135.489H85.3765ZM88.7214 139.244H89.158C89.3094 139.244 89.431 139.226 89.5227 139.19C89.6144 139.15 89.6981 139.084 89.7739 138.993L92.6264 135.764C92.7061 135.66 92.7898 135.588 92.8775 135.548C92.9652 135.508 93.0729 135.489 93.2004 135.489H94.1812L90.9161 139.178C90.8363 139.274 90.7586 139.354 90.6829 139.417C90.6111 139.477 90.5334 139.527 90.4496 139.567C90.5573 139.603 90.6549 139.657 90.7427 139.728C90.8304 139.796 90.9161 139.886 90.9998 139.997L94.4084 144.058H93.4038C93.328 144.058 93.2622 144.054 93.2064 144.046C93.1546 144.034 93.1087 144.018 93.0689 143.998C93.029 143.974 92.9931 143.948 92.9612 143.92C92.9333 143.888 92.9054 143.853 92.8775 143.813L89.9234 140.41C89.8437 140.31 89.7579 140.241 89.6663 140.201C89.5746 140.157 89.435 140.135 89.2477 140.135H88.7214V144.058H87.5673V135.489H88.7214V139.244ZM99.6166 138.724C100.063 138.628 100.474 138.58 100.848 138.58C101.295 138.58 101.69 138.646 102.033 138.778C102.375 138.909 102.66 139.09 102.888 139.322C103.119 139.553 103.292 139.826 103.408 140.141C103.528 140.456 103.587 140.799 103.587 141.17C103.587 141.624 103.508 142.035 103.348 142.401C103.193 142.768 102.975 143.083 102.696 143.346C102.421 143.605 102.096 143.805 101.722 143.944C101.347 144.084 100.942 144.154 100.508 144.154C100.256 144.154 100.015 144.128 99.784 144.076C99.5528 144.028 99.3355 143.962 99.1322 143.878C98.9329 143.795 98.7475 143.699 98.5761 143.591C98.4047 143.484 98.2532 143.37 98.1216 143.251L98.4505 142.796C98.5223 142.692 98.6159 142.641 98.7316 142.641C98.8113 142.641 98.901 142.672 99.0007 142.736C99.1003 142.796 99.2219 142.864 99.3654 142.94C99.509 143.015 99.6764 143.085 99.8678 143.149C100.063 143.209 100.294 143.239 100.561 143.239C100.86 143.239 101.13 143.191 101.369 143.095C101.608 142.999 101.813 142.864 101.985 142.688C102.156 142.509 102.288 142.296 102.379 142.049C102.471 141.801 102.517 141.524 102.517 141.217C102.517 140.95 102.477 140.709 102.397 140.494C102.322 140.279 102.204 140.095 102.044 139.944C101.889 139.792 101.694 139.675 101.458 139.591C101.223 139.507 100.948 139.465 100.633 139.465C100.418 139.465 100.193 139.483 99.9575 139.519C99.7262 139.555 99.489 139.613 99.2458 139.692L98.5761 139.495L99.2638 135.489H103.324V135.955C103.324 136.106 103.276 136.232 103.181 136.332C103.089 136.427 102.93 136.475 102.702 136.475H100.011L99.6166 138.724ZM109.704 144.058H108.544V135.489H109.704V144.058ZM118.839 135.489V144.058H118.259C118.167 144.058 118.089 144.042 118.026 144.01C117.966 143.978 117.906 143.924 117.846 143.849L112.889 137.39C112.897 137.49 112.903 137.588 112.907 137.683C112.911 137.779 112.913 137.869 112.913 137.952V144.058H111.896V135.489H112.494C112.546 135.489 112.59 135.493 112.626 135.5C112.662 135.504 112.693 135.514 112.721 135.53C112.749 135.542 112.777 135.562 112.805 135.59C112.833 135.614 112.863 135.646 112.895 135.686L117.852 142.138C117.844 142.035 117.836 141.935 117.828 141.839C117.824 141.74 117.822 141.646 117.822 141.558V135.489H118.839ZM129.376 143.113L129.37 144.058H124.09V135.489H129.37V136.433H125.25V139.28H128.587V140.189H125.25V143.113H129.376ZM137.935 135.489V144.058H137.355C137.263 144.058 137.186 144.042 137.122 144.01C137.062 143.978 137.002 143.924 136.942 143.849L131.985 137.39C131.993 137.49 131.999 137.588 132.003 137.683C132.007 137.779 132.009 137.869 132.009 137.952V144.058H130.992V135.489H131.59C131.642 135.489 131.686 135.493 131.722 135.5C131.758 135.504 131.79 135.514 131.818 135.53C131.845 135.542 131.873 135.562 131.901 135.59C131.929 135.614 131.959 135.646 131.991 135.686L136.948 142.138C136.94 142.035 136.932 141.935 136.925 141.839C136.921 141.74 136.919 141.646 136.919 141.558V135.489H137.935ZM147.087 139.938V143.227C146.656 143.538 146.196 143.771 145.705 143.926C145.219 144.078 144.685 144.154 144.103 144.154C143.413 144.154 142.791 144.048 142.237 143.837C141.683 143.621 141.208 143.322 140.814 142.94C140.423 142.553 140.122 142.09 139.911 141.552C139.699 141.014 139.594 140.422 139.594 139.776C139.594 139.122 139.695 138.526 139.899 137.988C140.106 137.45 140.399 136.99 140.778 136.607C141.156 136.22 141.617 135.921 142.159 135.71C142.701 135.498 143.307 135.393 143.977 135.393C144.316 135.393 144.631 135.419 144.922 135.471C145.213 135.518 145.482 135.59 145.729 135.686C145.976 135.778 146.206 135.891 146.417 136.027C146.628 136.158 146.825 136.308 147.009 136.475L146.68 137.001C146.628 137.081 146.56 137.133 146.477 137.157C146.397 137.177 146.307 137.157 146.208 137.097C146.112 137.041 146.002 136.974 145.879 136.894C145.755 136.814 145.604 136.738 145.424 136.667C145.249 136.591 145.039 136.527 144.796 136.475C144.557 136.423 144.272 136.397 143.941 136.397C143.459 136.397 143.022 136.477 142.631 136.637C142.241 136.792 141.908 137.017 141.633 137.312C141.358 137.603 141.146 137.958 140.999 138.377C140.851 138.791 140.778 139.258 140.778 139.776C140.778 140.314 140.853 140.797 141.005 141.223C141.16 141.646 141.38 142.007 141.663 142.306C141.95 142.601 142.297 142.826 142.703 142.981C143.11 143.137 143.566 143.215 144.073 143.215C144.471 143.215 144.824 143.171 145.131 143.083C145.442 142.991 145.745 142.866 146.04 142.706V140.823H144.707C144.631 140.823 144.569 140.801 144.521 140.757C144.477 140.713 144.455 140.659 144.455 140.595V139.938H147.087ZM150.022 144.058H148.862V135.489H150.022V144.058ZM159.157 135.489V144.058H158.577C158.485 144.058 158.408 144.042 158.344 144.01C158.284 143.978 158.224 143.924 158.164 143.849L153.207 137.39C153.215 137.49 153.221 137.588 153.225 137.683C153.229 137.779 153.231 137.869 153.231 137.952V144.058H152.214V135.489H152.812C152.864 135.489 152.908 135.493 152.944 135.5C152.98 135.504 153.012 135.514 153.04 135.53C153.067 135.542 153.095 135.562 153.123 135.59C153.151 135.614 153.181 135.646 153.213 135.686L158.17 142.138C158.162 142.035 158.154 141.935 158.146 141.839C158.143 141.74 158.141 141.646 158.141 141.558V135.489H159.157ZM166.634 143.113L166.628 144.058H161.348V135.489H166.628V136.433H162.508V139.28H165.845V140.189H162.508V143.113H166.634ZM173.537 143.113L173.531 144.058H168.251V135.489H173.531V136.433H169.411V139.28H172.748V140.189H169.411V143.113H173.537ZM177.527 139.639C177.862 139.639 178.157 139.599 178.412 139.519C178.671 139.435 178.887 139.32 179.058 139.172C179.234 139.021 179.365 138.841 179.453 138.634C179.541 138.427 179.584 138.197 179.584 137.946C179.584 137.436 179.417 137.051 179.082 136.792C178.747 136.533 178.245 136.403 177.575 136.403H176.307V139.639H177.527ZM181.486 144.058H180.457C180.246 144.058 180.091 143.976 179.991 143.813L177.766 140.751C177.699 140.655 177.625 140.587 177.545 140.548C177.469 140.504 177.35 140.482 177.186 140.482H176.307V144.058H175.153V135.489H177.575C178.117 135.489 178.586 135.544 178.98 135.656C179.375 135.764 179.7 135.921 179.955 136.128C180.214 136.336 180.406 136.587 180.529 136.882C180.653 137.173 180.715 137.5 180.715 137.863C180.715 138.166 180.667 138.449 180.571 138.712C180.475 138.975 180.336 139.212 180.153 139.423C179.973 139.631 179.752 139.808 179.489 139.956C179.23 140.103 178.935 140.215 178.604 140.29C178.751 140.374 178.879 140.496 178.986 140.655L181.486 144.058ZM183.812 144.058H182.652V135.489H183.812V144.058ZM192.946 135.489V144.058H192.366C192.275 144.058 192.197 144.042 192.133 144.01C192.073 143.978 192.014 143.924 191.954 143.849L186.996 137.39C187.004 137.49 187.01 137.588 187.014 137.683C187.018 137.779 187.02 137.869 187.02 137.952V144.058H186.004V135.489H186.602C186.653 135.489 186.697 135.493 186.733 135.5C186.769 135.504 186.801 135.514 186.829 135.53C186.857 135.542 186.885 135.562 186.913 135.59C186.941 135.614 186.97 135.646 187.002 135.686L191.96 142.138C191.952 142.035 191.944 141.935 191.936 141.839C191.932 141.74 191.93 141.646 191.93 141.558V135.489H192.946ZM202.098 139.938V143.227C201.667 143.538 201.207 143.771 200.717 143.926C200.23 144.078 199.696 144.154 199.114 144.154C198.424 144.154 197.802 144.048 197.248 143.837C196.694 143.621 196.22 143.322 195.825 142.94C195.434 142.553 195.133 142.09 194.922 141.552C194.711 141.014 194.605 140.422 194.605 139.776C194.605 139.122 194.707 138.526 194.91 137.988C195.117 137.45 195.41 136.99 195.789 136.607C196.168 136.22 196.628 135.921 197.17 135.71C197.713 135.498 198.319 135.393 198.988 135.393C199.327 135.393 199.642 135.419 199.933 135.471C200.224 135.518 200.493 135.59 200.74 135.686C200.988 135.778 201.217 135.891 201.428 136.027C201.639 136.158 201.837 136.308 202.02 136.475L201.691 137.001C201.639 137.081 201.572 137.133 201.488 137.157C201.408 137.177 201.319 137.157 201.219 137.097C201.123 137.041 201.014 136.974 200.89 136.894C200.766 136.814 200.615 136.738 200.435 136.667C200.26 136.591 200.051 136.527 199.808 136.475C199.568 136.423 199.283 136.397 198.952 136.397C198.47 136.397 198.034 136.477 197.643 136.637C197.252 136.792 196.919 137.017 196.644 137.312C196.369 137.603 196.158 137.958 196.01 138.377C195.863 138.791 195.789 139.258 195.789 139.776C195.789 140.314 195.865 140.797 196.016 141.223C196.172 141.646 196.391 142.007 196.674 142.306C196.961 142.601 197.308 142.826 197.715 142.981C198.121 143.137 198.578 143.215 199.084 143.215C199.483 143.215 199.835 143.171 200.142 143.083C200.453 142.991 200.756 142.866 201.051 142.706V140.823H199.718C199.642 140.823 199.58 140.801 199.532 140.757C199.489 140.713 199.467 140.659 199.467 140.595V139.938H202.098Z" fill="#232323"/>
<g clip-path="url(#clip1_5_167)">
<path d="M109.433 195.023H105.519L104.556 200.402H108.47L109.433 195.023ZM118.893 190.921L118.454 193.307C118.342 193.893 118.098 194.325 117.721 194.604C117.344 194.883 116.744 195.023 115.921 195.023H114.184L113.221 200.402H115.858C116.444 200.402 116.856 200.576 117.093 200.925C117.344 201.274 117.407 201.867 117.281 202.704L116.988 204.504H112.635L111.086 212.918H108.428C108.163 212.918 107.912 212.855 107.675 212.73C107.451 212.604 107.256 212.437 107.089 212.227C106.935 212.004 106.823 211.753 106.754 211.474C106.698 211.195 106.705 210.895 106.775 210.574L107.884 204.504H103.991L102.861 210.867C102.721 211.606 102.407 212.137 101.919 212.458C101.43 212.764 100.879 212.918 100.265 212.918H97.7119L99.2398 204.504H97.084C96.498 204.504 96.0794 204.337 95.8282 204.002C95.591 203.653 95.5352 203.06 95.6608 202.223L95.9538 200.402H99.8259L100.789 195.023H96.4561L96.8957 192.637C97.0073 192.051 97.2515 191.618 97.6282 191.339C98.0189 191.06 98.6259 190.921 99.4491 190.921H101.354L102.568 184.453C102.679 183.867 102.958 183.407 103.405 183.072C103.865 182.723 104.396 182.549 104.996 182.549H107.633L106.084 190.921H109.998L111.547 182.549H114.121C114.721 182.549 115.195 182.737 115.544 183.114C115.907 183.476 116.04 183.937 115.942 184.495L114.749 190.921H118.893ZM128.147 193.432C128.775 193.307 129.375 193.216 129.947 193.16C130.533 193.104 131.099 193.076 131.643 193.076C133.233 193.076 134.636 193.321 135.85 193.809C137.078 194.283 138.103 194.939 138.926 195.776C139.764 196.613 140.391 197.597 140.81 198.727C141.229 199.858 141.438 201.072 141.438 202.369C141.438 203.988 141.152 205.467 140.58 206.806C140.008 208.132 139.212 209.276 138.194 210.239C137.189 211.188 135.982 211.927 134.573 212.458C133.178 212.988 131.65 213.253 129.989 213.253C129.026 213.253 128.106 213.148 127.226 212.939C126.347 212.744 125.524 212.478 124.757 212.144C124.003 211.795 123.299 211.397 122.643 210.951C121.987 210.504 121.401 210.037 120.885 209.548L122.664 207.12C123.04 206.604 123.529 206.346 124.129 206.346C124.506 206.346 124.875 206.458 125.238 206.681C125.601 206.904 126.013 207.155 126.473 207.434C126.933 207.699 127.471 207.944 128.085 208.167C128.699 208.39 129.445 208.502 130.324 208.502C131.231 208.502 132.019 208.355 132.689 208.062C133.359 207.755 133.91 207.344 134.343 206.827C134.789 206.297 135.117 205.676 135.326 204.965C135.55 204.239 135.661 203.465 135.661 202.641C135.661 201.065 135.208 199.851 134.301 199C133.408 198.134 132.103 197.702 130.387 197.702C128.978 197.702 127.561 197.967 126.138 198.497L122.559 197.493L125.113 182.549H140.35V184.976C140.35 185.381 140.287 185.751 140.161 186.086C140.05 186.407 139.854 186.693 139.575 186.944C139.31 187.181 138.961 187.369 138.529 187.509C138.11 187.635 137.594 187.697 136.98 187.697H129.131L128.147 193.432ZM109.433 246.023H105.519L104.556 251.402H108.47L109.433 246.023ZM118.893 241.921L118.454 244.307C118.342 244.893 118.098 245.325 117.721 245.604C117.344 245.883 116.744 246.023 115.921 246.023H114.184L113.221 251.402H115.858C116.444 251.402 116.856 251.576 117.093 251.925C117.344 252.274 117.407 252.867 117.281 253.704L116.988 255.504H112.635L111.086 263.918H108.428C108.163 263.918 107.912 263.855 107.675 263.73C107.451 263.604 107.256 263.437 107.089 263.227C106.935 263.004 106.823 262.753 106.754 262.474C106.698 262.195 106.705 261.895 106.775 261.574L107.884 255.504H103.991L102.861 261.867C102.721 262.606 102.407 263.137 101.919 263.458C101.43 263.764 100.879 263.918 100.265 263.918H97.7119L99.2398 255.504H97.084C96.498 255.504 96.0794 255.337 95.8282 255.002C95.591 254.653 95.5352 254.06 95.6608 253.223L95.9538 251.402H99.8259L100.789 246.023H96.4561L96.8957 243.637C97.0073 243.051 97.2515 242.618 97.6282 242.339C98.0189 242.06 98.6259 241.921 99.4491 241.921H101.354L102.568 235.453C102.679 234.867 102.958 234.407 103.405 234.072C103.865 233.723 104.396 233.549 104.996 233.549H107.633L106.084 241.921H109.998L111.547 233.549H114.121C114.721 233.549 115.195 233.737 115.544 234.114C115.907 234.476 116.04 234.937 115.942 235.495L114.749 241.921H118.893ZM130.638 244.453L129.717 245.562C130.247 245.325 130.819 245.144 131.433 245.018C132.047 244.893 132.71 244.83 133.422 244.83C134.552 244.83 135.654 245.018 136.729 245.395C137.803 245.772 138.759 246.337 139.596 247.09C140.433 247.844 141.103 248.793 141.605 249.937C142.122 251.067 142.38 252.399 142.38 253.934C142.38 255.344 142.115 256.676 141.584 257.932C141.068 259.188 140.329 260.283 139.366 261.218C138.417 262.153 137.273 262.892 135.933 263.437C134.608 263.981 133.129 264.253 131.496 264.253C129.836 264.253 128.35 263.995 127.038 263.478C125.727 262.948 124.61 262.209 123.689 261.26C122.768 260.311 122.064 259.181 121.575 257.869C121.087 256.544 120.843 255.086 120.843 253.495C120.843 252.03 121.129 250.544 121.701 249.037C122.287 247.53 123.173 245.981 124.359 244.39L131.412 234.888C131.692 234.525 132.103 234.211 132.647 233.946C133.192 233.681 133.812 233.549 134.51 233.549H139.638L130.638 244.453ZM131.392 259.606C132.145 259.606 132.843 259.474 133.485 259.209C134.126 258.944 134.678 258.574 135.138 258.099C135.598 257.625 135.961 257.074 136.226 256.446C136.492 255.804 136.624 255.106 136.624 254.353C136.624 253.53 136.498 252.79 136.247 252.134C135.996 251.479 135.64 250.927 135.18 250.481C134.719 250.02 134.168 249.672 133.526 249.434C132.885 249.197 132.173 249.079 131.392 249.079C130.652 249.079 129.975 249.211 129.361 249.476C128.747 249.727 128.217 250.09 127.771 250.565C127.338 251.025 126.996 251.576 126.745 252.218C126.508 252.86 126.389 253.565 126.389 254.332C126.389 255.127 126.494 255.853 126.703 256.509C126.913 257.151 127.226 257.702 127.645 258.162C128.064 258.623 128.58 258.978 129.194 259.23C129.822 259.481 130.554 259.606 131.392 259.606ZM109.433 296.023H105.519L104.556 301.402H108.47L109.433 296.023ZM118.893 291.921L118.454 294.307C118.342 294.893 118.098 295.325 117.721 295.604C117.344 295.883 116.744 296.023 115.921 296.023H114.184L113.221 301.402H115.858C116.444 301.402 116.856 301.576 117.093 301.925C117.344 302.274 117.407 302.867 117.281 303.704L116.988 305.504H112.635L111.086 313.918H108.428C108.163 313.918 107.912 313.855 107.675 313.73C107.451 313.604 107.256 313.437 107.089 313.227C106.935 313.004 106.823 312.753 106.754 312.474C106.698 312.195 106.705 311.895 106.775 311.574L107.884 305.504H103.991L102.861 311.867C102.721 312.606 102.407 313.137 101.919 313.458C101.43 313.764 100.879 313.918 100.265 313.918H97.7119L99.2398 305.504H97.084C96.498 305.504 96.0794 305.337 95.8282 305.002C95.591 304.653 95.5352 304.06 95.6608 303.223L95.9538 301.402H99.8259L100.789 296.023H96.4561L96.8957 293.637C97.0073 293.051 97.2515 292.618 97.6282 292.339C98.0189 292.06 98.6259 291.921 99.4491 291.921H101.354L102.568 285.453C102.679 284.867 102.958 284.407 103.405 284.072C103.865 283.723 104.396 283.549 104.996 283.549H107.633L106.084 291.921H109.998L111.547 283.549H114.121C114.721 283.549 115.195 283.737 115.544 284.114C115.907 284.476 116.04 284.937 115.942 285.495L114.749 291.921H118.893ZM142.254 283.549V286.018C142.254 286.744 142.171 287.33 142.003 287.776C141.85 288.223 141.696 288.6 141.543 288.907L130.492 311.992C130.213 312.523 129.836 312.976 129.361 313.353C128.887 313.73 128.245 313.918 127.436 313.918H123.25L134.573 291.376C134.852 290.846 135.138 290.365 135.431 289.932C135.724 289.5 136.052 289.088 136.415 288.697H122.413C122.078 288.697 121.771 288.565 121.492 288.3C121.227 288.035 121.094 287.735 121.094 287.4V283.549H142.254ZM109.433 346.023H105.519L104.556 351.402H108.47L109.433 346.023ZM118.893 341.921L118.454 344.307C118.342 344.893 118.098 345.325 117.721 345.604C117.344 345.883 116.744 346.023 115.921 346.023H114.184L113.221 351.402H115.858C116.444 351.402 116.856 351.576 117.093 351.925C117.344 352.274 117.407 352.867 117.281 353.704L116.988 355.504H112.635L111.086 363.918H108.428C108.163 363.918 107.912 363.855 107.675 363.73C107.451 363.604 107.256 363.437 107.089 363.227C106.935 363.004 106.823 362.753 106.754 362.474C106.698 362.195 106.705 361.895 106.775 361.574L107.884 355.504H103.991L102.861 361.867C102.721 362.606 102.407 363.137 101.919 363.458C101.43 363.764 100.879 363.918 100.265 363.918H97.7119L99.2398 355.504H97.084C96.498 355.504 96.0794 355.337 95.8282 355.002C95.591 354.653 95.5352 354.06 95.6608 353.223L95.9538 351.402H99.8259L100.789 346.023H96.4561L96.8957 343.637C97.0073 343.051 97.2515 342.618 97.6282 342.339C98.0189 342.06 98.6259 341.921 99.4491 341.921H101.354L102.568 335.453C102.679 334.867 102.958 334.407 103.405 334.072C103.865 333.723 104.396 333.549 104.996 333.549H107.633L106.084 341.921H109.998L111.547 333.549H114.121C114.721 333.549 115.195 333.737 115.544 334.114C115.907 334.476 116.04 334.937 115.942 335.495L114.749 341.921H118.893ZM131.433 359.837C132.229 359.837 132.919 359.718 133.505 359.481C134.105 359.244 134.601 358.923 134.992 358.518C135.382 358.099 135.675 357.611 135.871 357.053C136.066 356.481 136.164 355.867 136.164 355.211C136.164 353.704 135.773 352.539 134.992 351.716C134.224 350.879 133.038 350.46 131.433 350.46C129.829 350.46 128.636 350.879 127.854 351.716C127.087 352.539 126.703 353.704 126.703 355.211C126.703 355.867 126.801 356.481 126.996 357.053C127.192 357.611 127.485 358.099 127.875 358.518C128.266 358.923 128.754 359.244 129.34 359.481C129.94 359.718 130.638 359.837 131.433 359.837ZM131.433 337.483C130.722 337.483 130.108 337.595 129.592 337.818C129.089 338.042 128.671 338.342 128.336 338.718C128.015 339.081 127.778 339.507 127.624 339.995C127.471 340.483 127.394 340.993 127.394 341.523C127.394 342.095 127.457 342.653 127.582 343.197C127.708 343.727 127.924 344.202 128.231 344.621C128.538 345.039 128.95 345.374 129.466 345.625C129.982 345.876 130.638 346.002 131.433 346.002C132.229 346.002 132.885 345.876 133.401 345.625C133.917 345.374 134.329 345.039 134.636 344.621C134.943 344.202 135.159 343.727 135.285 343.197C135.41 342.653 135.473 342.095 135.473 341.523C135.473 340.993 135.396 340.483 135.243 339.995C135.089 339.507 134.845 339.081 134.51 338.718C134.189 338.342 133.771 338.042 133.254 337.818C132.752 337.595 132.145 337.483 131.433 337.483ZM136.833 348.095C138.675 348.709 140.015 349.637 140.852 350.879C141.689 352.106 142.108 353.586 142.108 355.316C142.108 356.669 141.85 357.897 141.333 358.999C140.817 360.102 140.091 361.044 139.157 361.825C138.222 362.592 137.098 363.192 135.787 363.625C134.475 364.044 133.024 364.253 131.433 364.253C129.843 364.253 128.392 364.044 127.08 363.625C125.768 363.192 124.645 362.592 123.71 361.825C122.775 361.044 122.05 360.102 121.534 358.999C121.017 357.897 120.759 356.669 120.759 355.316C120.759 353.586 121.178 352.106 122.015 350.879C122.852 349.637 124.192 348.709 126.033 348.095C124.596 347.467 123.522 346.588 122.81 345.458C122.113 344.327 121.764 342.981 121.764 341.418C121.764 340.246 122.001 339.165 122.475 338.174C122.95 337.169 123.613 336.304 124.464 335.579C125.329 334.839 126.354 334.26 127.54 333.842C128.726 333.423 130.024 333.214 131.433 333.214C132.843 333.214 134.14 333.423 135.326 333.842C136.512 334.26 137.531 334.839 138.382 335.579C139.247 336.304 139.917 337.169 140.391 338.174C140.866 339.165 141.103 340.246 141.103 341.418C141.103 342.981 140.747 344.327 140.036 345.458C139.338 346.588 138.271 347.467 136.833 348.095ZM109.433 396.023H105.519L104.556 401.402H108.47L109.433 396.023ZM118.893 391.921L118.454 394.307C118.342 394.893 118.098 395.325 117.721 395.604C117.344 395.883 116.744 396.023 115.921 396.023H114.184L113.221 401.402H115.858C116.444 401.402 116.856 401.576 117.093 401.925C117.344 402.274 117.407 402.867 117.281 403.704L116.988 405.504H112.635L111.086 413.918H108.428C108.163 413.918 107.912 413.855 107.675 413.73C107.451 413.604 107.256 413.437 107.089 413.227C106.935 413.004 106.823 412.753 106.754 412.474C106.698 412.195 106.705 411.895 106.775 411.574L107.884 405.504H103.991L102.861 411.867C102.721 412.606 102.407 413.137 101.919 413.458C101.43 413.764 100.879 413.918 100.265 413.918H97.7119L99.2398 405.504H97.084C96.498 405.504 96.0794 405.337 95.8282 405.002C95.591 404.653 95.5352 404.06 95.6608 403.223L95.9538 401.402H99.8259L100.789 396.023H96.4561L96.8957 393.637C97.0073 393.051 97.2515 392.618 97.6282 392.339C98.0189 392.06 98.6259 391.921 99.4491 391.921H101.354L102.568 385.453C102.679 384.867 102.958 384.407 103.405 384.072C103.865 383.723 104.396 383.549 104.996 383.549H107.633L106.084 391.921H109.998L111.547 383.549H114.121C114.721 383.549 115.195 383.737 115.544 384.114C115.907 384.476 116.04 384.937 115.942 385.495L114.749 391.921H118.893ZM126.62 392.737C126.62 394.341 127.01 395.562 127.792 396.4C128.587 397.237 129.745 397.655 131.266 397.655C132.033 397.655 132.717 397.537 133.317 397.3C133.931 397.048 134.44 396.707 134.845 396.274C135.25 395.841 135.557 395.325 135.766 394.725C135.989 394.125 136.101 393.469 136.101 392.758C136.101 391.962 135.982 391.265 135.745 390.665C135.508 390.051 135.173 389.535 134.74 389.116C134.322 388.697 133.819 388.383 133.233 388.174C132.647 387.951 131.999 387.839 131.287 387.839C130.561 387.839 129.913 387.965 129.34 388.216C128.768 388.453 128.28 388.795 127.875 389.241C127.471 389.674 127.157 390.19 126.933 390.79C126.724 391.39 126.62 392.039 126.62 392.737ZM132.71 402.26C132.919 401.995 133.122 401.737 133.317 401.486C133.512 401.234 133.708 400.983 133.903 400.732C133.233 401.123 132.501 401.423 131.706 401.632C130.924 401.827 130.094 401.925 129.215 401.925C128.196 401.925 127.185 401.744 126.18 401.381C125.189 401.018 124.296 400.474 123.501 399.748C122.706 399.023 122.064 398.116 121.575 397.027C121.087 395.925 120.843 394.634 120.843 393.155C120.843 391.802 121.094 390.525 121.596 389.325C122.099 388.111 122.81 387.058 123.731 386.165C124.652 385.258 125.754 384.539 127.038 384.009C128.336 383.479 129.773 383.214 131.35 383.214C132.94 383.214 134.371 383.465 135.64 383.967C136.91 384.456 137.985 385.146 138.864 386.039C139.743 386.932 140.419 388 140.894 389.241C141.368 390.469 141.605 391.823 141.605 393.302C141.605 394.265 141.529 395.179 141.375 396.044C141.222 396.909 140.998 397.732 140.705 398.513C140.412 399.295 140.057 400.055 139.638 400.795C139.233 401.534 138.773 402.26 138.257 402.972L131.496 412.62C131.217 412.983 130.812 413.29 130.282 413.541C129.766 413.792 129.173 413.918 128.503 413.918H123.187L132.71 402.26Z" fill="#FBD880"/>
</g>
<g clip-path="url(#clip2_5_167)">
<path d="M105.845 192.033H101.931L100.968 197.412H104.882L105.845 192.033ZM115.305 187.931L114.866 190.317C114.754 190.903 114.51 191.335 114.133 191.614C113.756 191.893 113.156 192.033 112.333 192.033H110.596L109.633 197.412H112.27C112.856 197.412 113.268 197.586 113.505 197.935C113.756 198.284 113.819 198.877 113.693 199.714L113.4 201.514H109.047L107.498 209.928H104.84C104.575 209.928 104.324 209.865 104.087 209.74C103.863 209.614 103.668 209.447 103.501 209.237C103.347 209.014 103.235 208.763 103.166 208.484C103.11 208.205 103.117 207.905 103.187 207.584L104.296 201.514H100.403L99.2727 207.877C99.1332 208.616 98.8192 209.147 98.3308 209.468C97.8425 209.774 97.2913 209.928 96.6774 209.928H94.1239L95.6518 201.514H93.496C92.91 201.514 92.4914 201.347 92.2402 201.012C92.003 200.663 91.9472 200.07 92.0728 199.233L92.3658 197.412H96.2378L97.2006 192.033H92.8681L93.3076 189.647C93.4193 189.061 93.6634 188.628 94.0402 188.349C94.4309 188.07 95.0379 187.931 95.8611 187.931H97.7657L98.9797 181.463C99.0913 180.877 99.3704 180.417 99.8169 180.082C100.277 179.733 100.808 179.559 101.408 179.559H104.045L102.496 187.931H106.41L107.959 179.559H110.533C111.133 179.559 111.607 179.747 111.956 180.124C112.319 180.486 112.452 180.947 112.354 181.505L111.161 187.931H115.305ZM124.559 190.442C125.187 190.317 125.787 190.226 126.359 190.17C126.945 190.114 127.511 190.086 128.055 190.086C129.645 190.086 131.048 190.331 132.262 190.819C133.49 191.293 134.515 191.949 135.338 192.786C136.176 193.624 136.803 194.607 137.222 195.737C137.641 196.868 137.85 198.082 137.85 199.379C137.85 200.998 137.564 202.477 136.992 203.816C136.42 205.142 135.624 206.286 134.606 207.249C133.601 208.198 132.394 208.937 130.985 209.468C129.59 209.998 128.062 210.263 126.401 210.263C125.438 210.263 124.518 210.158 123.638 209.949C122.759 209.754 121.936 209.488 121.169 209.154C120.415 208.805 119.711 208.407 119.055 207.961C118.399 207.514 117.813 207.047 117.297 206.558L119.076 204.13C119.452 203.614 119.941 203.356 120.541 203.356C120.918 203.356 121.287 203.468 121.65 203.691C122.013 203.914 122.425 204.165 122.885 204.444C123.345 204.709 123.883 204.954 124.497 205.177C125.111 205.4 125.857 205.512 126.736 205.512C127.643 205.512 128.431 205.365 129.101 205.072C129.771 204.765 130.322 204.354 130.755 203.837C131.201 203.307 131.529 202.686 131.738 201.975C131.962 201.249 132.073 200.475 132.073 199.651C132.073 198.075 131.62 196.861 130.713 196.01C129.82 195.144 128.515 194.712 126.799 194.712C125.39 194.712 123.973 194.977 122.55 195.507L118.971 194.503L121.525 179.559H136.762V181.986C136.762 182.391 136.699 182.761 136.573 183.096C136.462 183.417 136.266 183.703 135.987 183.954C135.722 184.191 135.373 184.379 134.941 184.519C134.522 184.645 134.006 184.707 133.392 184.707H125.543L124.559 190.442ZM105.845 243.033H101.931L100.968 248.412H104.882L105.845 243.033ZM115.305 238.931L114.866 241.317C114.754 241.903 114.51 242.335 114.133 242.614C113.756 242.893 113.156 243.033 112.333 243.033H110.596L109.633 248.412H112.27C112.856 248.412 113.268 248.586 113.505 248.935C113.756 249.284 113.819 249.877 113.693 250.714L113.4 252.514H109.047L107.498 260.928H104.84C104.575 260.928 104.324 260.865 104.087 260.74C103.863 260.614 103.668 260.447 103.501 260.237C103.347 260.014 103.235 259.763 103.166 259.484C103.11 259.205 103.117 258.905 103.187 258.584L104.296 252.514H100.403L99.2727 258.877C99.1332 259.616 98.8192 260.147 98.3308 260.468C97.8425 260.774 97.2913 260.928 96.6774 260.928H94.1239L95.6518 252.514H93.496C92.91 252.514 92.4914 252.347 92.2402 252.012C92.003 251.663 91.9472 251.07 92.0728 250.233L92.3658 248.412H96.2378L97.2006 243.033H92.8681L93.3076 240.647C93.4193 240.061 93.6634 239.628 94.0402 239.349C94.4309 239.07 95.0379 238.931 95.8611 238.931H97.7657L98.9797 232.463C99.0913 231.877 99.3704 231.417 99.8169 231.082C100.277 230.733 100.808 230.559 101.408 230.559H104.045L102.496 238.931H106.41L107.959 230.559H110.533C111.133 230.559 111.607 230.747 111.956 231.124C112.319 231.486 112.452 231.947 112.354 232.505L111.161 238.931H115.305ZM127.05 241.463L126.129 242.572C126.659 242.335 127.231 242.154 127.845 242.028C128.459 241.903 129.122 241.84 129.834 241.84C130.964 241.84 132.066 242.028 133.141 242.405C134.215 242.782 135.171 243.347 136.008 244.1C136.845 244.854 137.515 245.803 138.017 246.947C138.534 248.077 138.792 249.41 138.792 250.944C138.792 252.354 138.527 253.686 137.996 254.942C137.48 256.198 136.741 257.293 135.778 258.228C134.829 259.163 133.685 259.902 132.345 260.447C131.02 260.991 129.541 261.263 127.908 261.263C126.248 261.263 124.762 261.005 123.45 260.488C122.138 259.958 121.022 259.219 120.101 258.27C119.18 257.321 118.476 256.191 117.987 254.879C117.499 253.554 117.255 252.096 117.255 250.505C117.255 249.04 117.541 247.554 118.113 246.047C118.699 244.54 119.585 242.991 120.771 241.4L127.824 231.898C128.104 231.535 128.515 231.221 129.059 230.956C129.604 230.691 130.224 230.559 130.922 230.559H136.05L127.05 241.463ZM127.804 256.616C128.557 256.616 129.255 256.484 129.897 256.219C130.538 255.954 131.09 255.584 131.55 255.109C132.01 254.635 132.373 254.084 132.638 253.456C132.903 252.814 133.036 252.116 133.036 251.363C133.036 250.54 132.91 249.8 132.659 249.144C132.408 248.489 132.052 247.937 131.592 247.491C131.131 247.03 130.58 246.682 129.938 246.444C129.297 246.207 128.585 246.089 127.804 246.089C127.064 246.089 126.387 246.221 125.773 246.486C125.159 246.737 124.629 247.1 124.183 247.575C123.75 248.035 123.408 248.586 123.157 249.228C122.92 249.87 122.801 250.575 122.801 251.342C122.801 252.137 122.906 252.863 123.115 253.519C123.325 254.161 123.638 254.712 124.057 255.172C124.476 255.633 124.992 255.988 125.606 256.24C126.234 256.491 126.966 256.616 127.804 256.616ZM105.845 293.033H101.931L100.968 298.412H104.882L105.845 293.033ZM115.305 288.931L114.866 291.317C114.754 291.903 114.51 292.335 114.133 292.614C113.756 292.893 113.156 293.033 112.333 293.033H110.596L109.633 298.412H112.27C112.856 298.412 113.268 298.586 113.505 298.935C113.756 299.284 113.819 299.877 113.693 300.714L113.4 302.514H109.047L107.498 310.928H104.84C104.575 310.928 104.324 310.865 104.087 310.74C103.863 310.614 103.668 310.447 103.501 310.237C103.347 310.014 103.235 309.763 103.166 309.484C103.11 309.205 103.117 308.905 103.187 308.584L104.296 302.514H100.403L99.2727 308.877C99.1332 309.616 98.8192 310.147 98.3308 310.468C97.8425 310.774 97.2913 310.928 96.6774 310.928H94.1239L95.6518 302.514H93.496C92.91 302.514 92.4914 302.347 92.2402 302.012C92.003 301.663 91.9472 301.07 92.0728 300.233L92.3658 298.412H96.2378L97.2006 293.033H92.8681L93.3076 290.647C93.4193 290.061 93.6634 289.628 94.0402 289.349C94.4309 289.07 95.0379 288.931 95.8611 288.931H97.7657L98.9797 282.463C99.0913 281.877 99.3704 281.417 99.8169 281.082C100.277 280.733 100.808 280.559 101.408 280.559H104.045L102.496 288.931H106.41L107.959 280.559H110.533C111.133 280.559 111.607 280.747 111.956 281.124C112.319 281.486 112.452 281.947 112.354 282.505L111.161 288.931H115.305ZM138.666 280.559V283.028C138.666 283.754 138.582 284.34 138.415 284.786C138.262 285.233 138.108 285.61 137.955 285.917L126.904 309.002C126.624 309.533 126.248 309.986 125.773 310.363C125.299 310.74 124.657 310.928 123.848 310.928H119.662L130.985 288.386C131.264 287.856 131.55 287.375 131.843 286.942C132.136 286.51 132.464 286.098 132.827 285.707H118.825C118.49 285.707 118.183 285.575 117.904 285.31C117.639 285.045 117.506 284.745 117.506 284.41V280.559H138.666ZM105.845 343.033H101.931L100.968 348.412H104.882L105.845 343.033ZM115.305 338.931L114.866 341.317C114.754 341.903 114.51 342.335 114.133 342.614C113.756 342.893 113.156 343.033 112.333 343.033H110.596L109.633 348.412H112.27C112.856 348.412 113.268 348.586 113.505 348.935C113.756 349.284 113.819 349.877 113.693 350.714L113.4 352.514H109.047L107.498 360.928H104.84C104.575 360.928 104.324 360.865 104.087 360.74C103.863 360.614 103.668 360.447 103.501 360.237C103.347 360.014 103.235 359.763 103.166 359.484C103.11 359.205 103.117 358.905 103.187 358.584L104.296 352.514H100.403L99.2727 358.877C99.1332 359.616 98.8192 360.147 98.3308 360.468C97.8425 360.774 97.2913 360.928 96.6774 360.928H94.1239L95.6518 352.514H93.496C92.91 352.514 92.4914 352.347 92.2402 352.012C92.003 351.663 91.9472 351.07 92.0728 350.233L92.3658 348.412H96.2378L97.2006 343.033H92.8681L93.3076 340.647C93.4193 340.061 93.6634 339.628 94.0402 339.349C94.4309 339.07 95.0379 338.931 95.8611 338.931H97.7657L98.9797 332.463C99.0913 331.877 99.3704 331.417 99.8169 331.082C100.277 330.733 100.808 330.559 101.408 330.559H104.045L102.496 338.931H106.41L107.959 330.559H110.533C111.133 330.559 111.607 330.747 111.956 331.124C112.319 331.486 112.452 331.947 112.354 332.505L111.161 338.931H115.305ZM127.845 356.847C128.641 356.847 129.331 356.728 129.917 356.491C130.517 356.254 131.013 355.933 131.404 355.528C131.794 355.109 132.087 354.621 132.283 354.063C132.478 353.491 132.576 352.877 132.576 352.221C132.576 350.714 132.185 349.549 131.404 348.726C130.636 347.889 129.45 347.47 127.845 347.47C126.241 347.47 125.048 347.889 124.266 348.726C123.499 349.549 123.115 350.714 123.115 352.221C123.115 352.877 123.213 353.491 123.408 354.063C123.604 354.621 123.897 355.109 124.287 355.528C124.678 355.933 125.166 356.254 125.752 356.491C126.352 356.728 127.05 356.847 127.845 356.847ZM127.845 334.493C127.134 334.493 126.52 334.605 126.004 334.828C125.501 335.052 125.083 335.352 124.748 335.728C124.427 336.091 124.19 336.517 124.036 337.005C123.883 337.493 123.806 338.003 123.806 338.533C123.806 339.105 123.869 339.663 123.994 340.207C124.12 340.738 124.336 341.212 124.643 341.631C124.95 342.049 125.362 342.384 125.878 342.635C126.394 342.886 127.05 343.012 127.845 343.012C128.641 343.012 129.297 342.886 129.813 342.635C130.329 342.384 130.741 342.049 131.048 341.631C131.355 341.212 131.571 340.738 131.697 340.207C131.822 339.663 131.885 339.105 131.885 338.533C131.885 338.003 131.808 337.493 131.655 337.005C131.501 336.517 131.257 336.091 130.922 335.728C130.601 335.352 130.183 335.052 129.666 334.828C129.164 334.605 128.557 334.493 127.845 334.493ZM133.245 345.105C135.087 345.719 136.427 346.647 137.264 347.889C138.101 349.116 138.52 350.596 138.52 352.326C138.52 353.679 138.262 354.907 137.745 356.009C137.229 357.112 136.503 358.054 135.569 358.835C134.634 359.602 133.51 360.202 132.199 360.635C130.887 361.054 129.436 361.263 127.845 361.263C126.255 361.263 124.804 361.054 123.492 360.635C122.18 360.202 121.057 359.602 120.122 358.835C119.187 358.054 118.462 357.112 117.946 356.009C117.429 354.907 117.171 353.679 117.171 352.326C117.171 350.596 117.59 349.116 118.427 347.889C119.264 346.647 120.604 345.719 122.445 345.105C121.008 344.477 119.934 343.598 119.222 342.468C118.525 341.337 118.176 339.991 118.176 338.428C118.176 337.256 118.413 336.175 118.887 335.184C119.362 334.179 120.025 333.314 120.876 332.589C121.741 331.849 122.766 331.27 123.952 330.852C125.138 330.433 126.436 330.224 127.845 330.224C129.255 330.224 130.552 330.433 131.738 330.852C132.924 331.27 133.943 331.849 134.794 332.589C135.659 333.314 136.329 334.179 136.803 335.184C137.278 336.175 137.515 337.256 137.515 338.428C137.515 339.991 137.159 341.337 136.448 342.468C135.75 343.598 134.683 344.477 133.245 345.105ZM105.845 393.033H101.931L100.968 398.412H104.882L105.845 393.033ZM115.305 388.931L114.866 391.317C114.754 391.903 114.51 392.335 114.133 392.614C113.756 392.893 113.156 393.033 112.333 393.033H110.596L109.633 398.412H112.27C112.856 398.412 113.268 398.586 113.505 398.935C113.756 399.284 113.819 399.877 113.693 400.714L113.4 402.514H109.047L107.498 410.928H104.84C104.575 410.928 104.324 410.865 104.087 410.74C103.863 410.614 103.668 410.447 103.501 410.237C103.347 410.014 103.235 409.763 103.166 409.484C103.11 409.205 103.117 408.905 103.187 408.584L104.296 402.514H100.403L99.2727 408.877C99.1332 409.616 98.8192 410.147 98.3308 410.468C97.8425 410.774 97.2913 410.928 96.6774 410.928H94.1239L95.6518 402.514H93.496C92.91 402.514 92.4914 402.347 92.2402 402.012C92.003 401.663 91.9472 401.07 92.0728 400.233L92.3658 398.412H96.2378L97.2006 393.033H92.8681L93.3076 390.647C93.4193 390.061 93.6634 389.628 94.0402 389.349C94.4309 389.07 95.0379 388.931 95.8611 388.931H97.7657L98.9797 382.463C99.0913 381.877 99.3704 381.417 99.8169 381.082C100.277 380.733 100.808 380.559 101.408 380.559H104.045L102.496 388.931H106.41L107.959 380.559H110.533C111.133 380.559 111.607 380.747 111.956 381.124C112.319 381.486 112.452 381.947 112.354 382.505L111.161 388.931H115.305ZM123.032 389.747C123.032 391.351 123.422 392.572 124.204 393.41C124.999 394.247 126.157 394.665 127.678 394.665C128.445 394.665 129.129 394.547 129.729 394.31C130.343 394.058 130.852 393.717 131.257 393.284C131.662 392.851 131.969 392.335 132.178 391.735C132.401 391.135 132.513 390.479 132.513 389.768C132.513 388.972 132.394 388.275 132.157 387.675C131.92 387.061 131.585 386.545 131.152 386.126C130.734 385.707 130.231 385.393 129.645 385.184C129.059 384.961 128.411 384.849 127.699 384.849C126.973 384.849 126.324 384.975 125.752 385.226C125.18 385.463 124.692 385.805 124.287 386.252C123.883 386.684 123.569 387.2 123.345 387.8C123.136 388.4 123.032 389.049 123.032 389.747ZM129.122 399.27C129.331 399.005 129.534 398.747 129.729 398.496C129.924 398.244 130.12 397.993 130.315 397.742C129.645 398.133 128.913 398.433 128.118 398.642C127.336 398.837 126.506 398.935 125.627 398.935C124.608 398.935 123.597 398.754 122.592 398.391C121.601 398.028 120.708 397.484 119.913 396.758C119.118 396.033 118.476 395.126 117.987 394.037C117.499 392.935 117.255 391.644 117.255 390.165C117.255 388.812 117.506 387.535 118.008 386.335C118.511 385.121 119.222 384.068 120.143 383.175C121.064 382.268 122.166 381.549 123.45 381.019C124.748 380.489 126.185 380.224 127.762 380.224C129.352 380.224 130.783 380.475 132.052 380.977C133.322 381.466 134.397 382.156 135.276 383.049C136.155 383.942 136.831 385.01 137.306 386.252C137.78 387.479 138.017 388.833 138.017 390.312C138.017 391.275 137.941 392.189 137.787 393.054C137.634 393.919 137.41 394.742 137.117 395.523C136.824 396.305 136.469 397.065 136.05 397.805C135.645 398.544 135.185 399.27 134.669 399.982L127.908 409.63C127.629 409.993 127.224 410.3 126.694 410.551C126.178 410.802 125.585 410.928 124.915 410.928H119.599L129.122 399.27Z" fill="#232323"/>
</g>
<defs>
<clipPath id="clip0_5_167">
<rect width="105.846" height="105.846" fill="white" transform="translate(64.577 12.252)"/>
</clipPath>
<clipPath id="clip1_5_167">
<rect width="106.444" height="50.83" fill="white" transform="translate(66.072 171.918)"/>
</clipPath>
<clipPath id="clip2_5_167">
<rect width="106.444" height="50.83" fill="white" transform="translate(62.484 168.928)"/>
</clipPath>
</defs>
</svg>
