<svg width="18" height="18" viewBox="0 0 18 18" fill="none" xmlns="http://www.w3.org/2000/svg">
<g clip-path="url(#clip0_5_345)">
<g clip-path="url(#clip1_5_345)">
<path d="M16.6327 9.50572C16.6327 4.94122 12.909 1.24072 8.31675 1.24072C3.72225 1.24072 0 4.94122 0 9.50572C0 13.6307 3.04125 17.0507 7.017 17.671V11.8952H4.905V9.50572H7.017V7.68472C7.017 5.61397 8.25825 4.46947 10.158 4.46947C11.0677 4.46947 12.0195 4.63072 12.0195 4.63072V6.66472H10.971C9.93825 6.66472 9.61575 7.30222 9.61575 7.95622V9.50572H11.922L11.5538 11.8952H9.615V17.6702C13.5907 17.0507 16.6327 13.6315 16.6327 9.50572Z" fill="white" fill-opacity="0.9"/>
</g>
</g>
<defs>
<clipPath id="clip0_5_345">
<rect width="17.25" height="17.25" fill="white" transform="translate(0 0.75)"/>
</clipPath>
<clipPath id="clip1_5_345">
<rect width="17.25" height="17.25" fill="white" transform="translate(0 0.75)"/>
</clipPath>
</defs>
</svg>
