<svg width="18" height="18" viewBox="0 0 18 18" fill="none" xmlns="http://www.w3.org/2000/svg">
<path d="M8.62497 0.75C13.3887 0.75 17.25 4.61184 17.25 9.37503C17.25 14.1382 13.3887 18 8.62497 18C3.86125 18 0 14.1382 0 9.37503C0 4.6119 3.86131 0.75 8.62497 0.75Z" fill="black"/>
<path d="M8.62497 1.5C12.9744 1.5 16.5 5.02602 16.5 9.37503C16.5 13.724 12.9745 17.25 8.62497 17.25C4.2755 17.25 0.75 13.724 0.75 9.37503C0.75 5.02608 4.27556 1.5 8.62497 1.5Z" stroke="white" stroke-opacity="0.9" stroke-width="1.5"/>
<path d="M4.86021 12.6007H6.47525V7.21763H4.86021V12.6007ZM11.1522 7.03117C10.3684 7.03117 9.66704 7.31741 9.16952 7.94921V7.19993H7.54856V12.6008H9.16952V9.68014C9.16952 9.0629 9.73501 8.46076 10.4433 8.46076C11.1516 8.46076 11.3263 9.0629 11.3263 9.66504V12.6003H12.9414V9.54484C12.9413 7.42251 11.9365 7.03117 11.1522 7.03117ZM5.66018 6.67968C6.10653 6.67968 6.4688 6.31741 6.4688 5.87106C6.4688 5.42471 6.10653 5.0625 5.66018 5.0625C5.21383 5.0625 4.85156 5.42477 4.85156 5.87112C4.85156 6.31747 5.21383 6.67968 5.66018 6.67968Z" fill="white" fill-opacity="0.9"/>
</svg>
