<svg width="18" height="18" viewBox="0 0 18 18" fill="none" xmlns="http://www.w3.org/2000/svg">
<g clip-path="url(#clip0_5_358)">
<g clip-path="url(#clip1_5_358)">
<path d="M9.23863 2.72947C11.4466 2.72947 11.7084 2.73922 12.5761 2.77747C13.3839 2.81347 13.8196 2.94847 14.1106 3.06247C14.4946 3.21022 14.7721 3.39097 15.0594 3.67822C15.3504 3.96922 15.5274 4.24372 15.6766 4.62772C15.7891 4.91797 15.9241 5.35747 15.9601 6.16147C15.9991 7.03297 16.0089 7.29397 16.0089 9.49897C16.0089 11.7077 15.9991 11.9695 15.9601 12.838C15.9249 13.645 15.7891 14.0807 15.6766 14.371C15.5274 14.7557 15.3466 15.0332 15.0594 15.3205C14.7935 15.5946 14.4692 15.8053 14.1106 15.937C13.8196 16.0502 13.3809 16.186 12.5769 16.222C11.7054 16.2595 11.4436 16.27 9.23863 16.27C7.02988 16.27 6.76888 16.2602 5.90038 16.2212C5.09338 16.186 4.65763 16.0502 4.36663 15.937C4.00803 15.805 3.68357 15.5944 3.41713 15.3205C3.14298 15.0545 2.93226 14.7303 2.80063 14.3717C2.68813 14.0807 2.55238 13.642 2.51638 12.838C2.47813 11.9657 2.46838 11.7047 2.46838 9.49972C2.46838 7.29097 2.47813 7.02997 2.51638 6.16147C2.55238 5.35372 2.68813 4.91797 2.80138 4.62772C2.94913 4.24372 3.12988 3.96547 3.41713 3.67822C3.68328 3.40398 4.00782 3.19325 4.36663 3.06172C4.65763 2.94922 5.09638 2.81347 5.90038 2.77747C6.76888 2.73922 7.03063 2.72947 9.23863 2.72947ZM9.23863 1.24072C6.99463 1.24072 6.71413 1.25047 5.83213 1.28947C4.95463 1.32847 4.35088 1.46947 3.82738 1.67347C3.27487 1.88094 2.77461 2.20711 2.36188 2.62897C1.94078 3.04116 1.6147 3.54027 1.40638 4.09147C1.20238 4.61797 1.06138 5.21872 1.02163 6.09697C0.983383 6.98197 0.973633 7.26247 0.973633 9.50572C0.973633 11.7497 0.983383 12.031 1.02163 12.9122C1.06063 13.7897 1.20238 14.3942 1.40638 14.917C1.61383 15.4695 1.94 15.9698 2.36188 16.3825C2.77406 16.8029 3.27323 17.128 3.82438 17.335C4.35088 17.5382 4.95088 17.68 5.82913 17.719C6.71038 17.758 6.99163 17.7677 9.23563 17.7677C11.4789 17.7677 11.7601 17.758 12.6414 17.719C13.5189 17.6807 14.1234 17.539 14.6461 17.335C15.1972 17.1278 15.6964 16.8027 16.1086 16.3825C16.5289 15.9702 16.854 15.471 17.0611 14.92C17.2644 14.3942 17.4061 13.7935 17.4451 12.9152C17.4841 12.034 17.4939 11.7527 17.4939 9.50947C17.4939 7.26547 17.4841 6.98422 17.4451 6.10297C17.4069 5.22547 17.2651 4.62097 17.0611 4.09822C16.862 3.54279 16.5385 3.04024 16.1154 2.62897C15.7031 2.20871 15.204 1.88363 14.6529 1.67647C14.1264 1.47397 13.5249 1.33147 12.6474 1.29247C11.7624 1.25047 11.4826 1.24072 9.23863 1.24072Z" fill="white" fill-opacity="0.9"/>
<path d="M9.23877 5.26051C8.11305 5.26091 7.03355 5.70828 6.23755 6.50428C5.44154 7.30029 4.99417 8.37979 4.99377 9.50551C4.99397 10.6314 5.44125 11.7111 6.23728 12.5072C7.03331 13.3034 8.11292 13.7509 9.23877 13.7513C10.3645 13.7509 11.444 13.3035 12.24 12.5075C13.036 11.7115 13.4834 10.632 13.4838 9.50626C13.4836 8.38041 13.0363 7.30072 12.2403 6.50455C11.4442 5.70838 10.3646 5.26091 9.23877 5.26051ZM9.23877 12.2595C8.87706 12.2595 8.51891 12.1882 8.18475 12.0497C7.85059 11.9112 7.54698 11.7083 7.29125 11.4525C6.77477 10.9359 6.48467 10.2353 6.48477 9.50476C6.48487 8.77426 6.77516 8.07371 7.29178 7.55724C7.80839 7.04076 8.50902 6.75066 9.23952 6.75076C9.97003 6.75086 10.6706 7.04115 11.1871 7.55777C11.7035 8.07438 11.9936 8.77501 11.9935 9.50551C11.9934 10.236 11.7031 10.9366 11.1865 11.453C10.6699 11.9695 9.96928 12.2596 9.23877 12.2595ZM14.6425 5.09251C14.6425 5.35548 14.5381 5.60767 14.3521 5.79361C14.1662 5.97955 13.914 6.08401 13.651 6.08401C13.3881 6.08401 13.1359 5.97955 12.9499 5.79361C12.764 5.60767 12.6595 5.35548 12.6595 5.09251C12.6595 4.82955 12.764 4.57736 12.9499 4.39142C13.1359 4.20547 13.3881 4.10101 13.651 4.10101C13.914 4.10101 14.1662 4.20547 14.3521 4.39142C14.5381 4.57736 14.6425 4.82955 14.6425 5.09251Z" fill="white" fill-opacity="0.9"/>
</g>
</g>
<defs>
<clipPath id="clip0_5_358">
<rect width="17.25" height="17.25" fill="white" transform="translate(0.25 0.75)"/>
</clipPath>
<clipPath id="clip1_5_358">
<rect width="17.25" height="17.25" fill="white" transform="translate(0.25 0.75)"/>
</clipPath>
</defs>
</svg>
