<svg width="12" height="17" viewBox="0 0 12 17" fill="none" xmlns="http://www.w3.org/2000/svg">
<g clip-path="url(#clip0_5_334)">
<path d="M6.00014 16.1635C5.84494 15.9828 5.63207 15.7302 5.37985 15.4195C4.83781 14.7516 4.1157 13.8167 3.39434 12.7475C2.67225 11.6773 1.95554 10.4793 1.42049 9.28503C0.883245 8.08581 0.541809 6.9178 0.541809 5.89992C0.541809 2.88203 2.98225 0.441589 6.00014 0.441589C9.01802 0.441589 11.4585 2.88203 11.4585 5.89992C11.4585 6.9178 11.117 8.08581 10.5798 9.28503C10.0447 10.4793 9.32802 11.6773 8.60593 12.7475C7.88457 13.8167 7.16246 14.7516 6.62042 15.4195C6.36821 15.7302 6.15533 15.9828 6.00014 16.1635ZM3.54181 5.89992C3.54181 7.25703 4.64303 8.35826 6.00014 8.35826C7.35725 8.35826 8.45845 7.25702 8.45845 5.89992C8.45845 4.54282 7.35725 3.44159 6.00014 3.44159C4.64303 3.44159 3.54181 4.54282 3.54181 5.89992Z" fill="black" stroke="white" stroke-width="0.75"/>
</g>
<defs>
<clipPath id="clip0_5_334">
<rect width="12" height="16.8" fill="white"/>
</clipPath>
</defs>
</svg>
