<svg width="17" height="17" viewBox="0 0 17 17" fill="none" xmlns="http://www.w3.org/2000/svg">
<path d="M4.78608 7.15296L4.59354 7.3455L4.71703 7.58819C5.74331 9.60512 7.39589 11.2501 9.41088 12.2825L9.65393 12.407L9.84704 12.2139L11.3595 10.7014C11.4442 10.6167 11.5693 10.5901 11.674 10.626L11.678 10.6273C12.4859 10.8942 13.3574 11.0381 14.25 11.0381C14.421 11.0381 14.5625 11.1796 14.5625 11.3506V13.75C14.5625 13.921 14.421 14.0625 14.25 14.0625C8.00148 14.0625 2.9375 8.99852 2.9375 2.75C2.9375 2.57898 3.07898 2.4375 3.25 2.4375H5.65625C5.82727 2.4375 5.96875 2.57898 5.96875 2.75C5.96875 3.64845 6.11235 4.51209 6.37853 5.31891C6.41316 5.43157 6.38742 5.55162 6.29858 5.64046L4.78608 7.15296Z" fill="black" stroke="white" stroke-width="0.75"/>
</svg>
