<svg width="19" height="20" viewBox="0 0 19 20" fill="none" xmlns="http://www.w3.org/2000/svg">
<circle cx="9.504" cy="10.0001" r="8.976" stroke="white" stroke-width="1.056"/>
<path d="M11.7704 11.4047H11.3268L11.1696 11.2536C11.7198 10.6156 12.0511 9.7872 12.0511 8.88608C12.0511 6.87677 10.4172 5.24805 8.40153 5.24805C6.38584 5.24805 4.75195 6.87677 4.75195 8.88608C4.75195 10.8954 6.38584 12.5241 8.40153 12.5241C9.3055 12.5241 10.1365 12.1939 10.7766 11.6454L10.9282 11.8021V12.2443L13.7355 15.0372L14.5721 14.2032L11.7704 11.4047ZM8.40153 11.4047C7.00346 11.4047 5.8749 10.2797 5.8749 8.88608C5.8749 7.49244 7.00346 6.36744 8.40153 6.36744C9.7996 6.36744 10.9282 7.49244 10.9282 8.88608C10.9282 10.2797 9.7996 11.4047 8.40153 11.4047Z" fill="white"/>
</svg>
