<svg width="26" height="150" viewBox="0 0 26 150" fill="none" xmlns="http://www.w3.org/2000/svg">
<g clip-path="url(#clip0_5_71)">
<path d="M25.825 12.9002C25.825 5.81697 20.0833 0.0751953 13 0.0751953C5.91682 0.0751953 0.175049 5.81697 0.175049 12.9002C0.175049 18.9151 4.31584 23.9614 9.90189 25.3478V16.8193H7.25727V12.9002H9.90189V11.2115C9.90189 6.84599 11.8773 4.82271 16.1627 4.82271C16.9755 4.82271 18.3775 4.98246 18.9509 5.1417V8.6944C18.6481 8.66265 18.1225 8.64653 17.4694 8.64653C15.3665 8.64653 14.5537 9.44324 14.5537 11.5144V12.9002H18.7428L18.0232 16.8193H14.5537V25.6315C20.9042 24.8645 25.825 19.4573 25.825 12.9002Z" fill="#0866FF"/>
<path d="M18.0233 16.8193L18.7429 12.9002H14.5537V11.5144C14.5537 9.44328 15.3666 8.64657 17.4695 8.64657C18.1225 8.64657 18.6481 8.66269 18.951 8.69444V5.14174C18.3775 4.9825 16.9756 4.82275 16.1628 4.82275C11.8773 4.82275 9.90195 6.84653 9.90195 11.2116V12.9002H7.25732V16.8193H9.90195V25.3478C10.8942 25.5937 11.9318 25.7252 13.0001 25.7252C13.5262 25.7252 14.0442 25.693 14.5537 25.6315V16.8193H18.0233Z" fill="white"/>
</g>
<g clip-path="url(#clip1_5_71)">
<path fill-rule="evenodd" clip-rule="evenodd" d="M13 31.125C20.0831 31.125 25.825 36.8669 25.825 43.95C25.825 51.0331 20.0831 56.775 13 56.775C5.91699 56.775 0.175049 51.0331 0.175049 43.95C0.175049 36.8669 5.91699 31.125 13 31.125Z" fill="black"/>
<path d="M16.1381 39.0181H17.8114L14.1556 43.1966L18.4565 48.8824H15.0889L12.4514 45.4339L9.43339 48.8824H7.75898L11.6692 44.4131L7.54346 39.0181H10.9964L13.3805 42.1701L16.1381 39.0181ZM15.5508 47.8807H16.4781L10.4926 39.9671H9.49767L15.5508 47.8807Z" fill="white"/>
</g>
<g clip-path="url(#clip2_5_71)">
<path d="M13 62.1753C20.0835 62.1753 25.825 67.9177 25.825 75.0003C25.825 82.083 20.0835 87.8253 13 87.8253C5.91656 87.8253 0.175049 82.0829 0.175049 75.0003C0.175049 67.9178 5.91665 62.1753 13 62.1753Z" fill="#0E76A8"/>
<path d="M7.40189 79.7969H9.8034V71.7925H7.40189V79.7969ZM16.7578 71.5152C15.5923 71.5152 14.5494 71.9408 13.8097 72.8803V71.7662H11.3994V79.797H13.8097V75.4541C13.8097 74.5363 14.6505 73.641 15.7037 73.641C16.757 73.641 17.0167 74.5363 17.0167 75.4317V79.7962H19.4182V75.2529C19.4181 72.0971 17.924 71.5152 16.7578 71.5152ZM8.59142 70.9926C9.25512 70.9926 9.7938 70.4539 9.7938 69.7902C9.7938 69.1265 9.25512 68.5879 8.59142 68.5879C7.92771 68.5879 7.38904 69.1266 7.38904 69.7903C7.38904 70.454 7.92771 70.9926 8.59142 70.9926Z" fill="white"/>
</g>
<path d="M12.9705 118.875C5.90283 118.875 0.175049 113.147 0.175049 106.08C0.175049 102.687 1.52276 99.4272 3.92044 97.0295C8.88817 91.9991 16.9901 91.9521 22.0205 96.9198C27.0509 101.888 27.098 109.989 22.1302 115.02C22.0911 115.059 22.0597 115.09 22.0205 115.13C19.6229 117.535 16.3633 118.891 12.9705 118.875ZM12.7354 113.084C12.9862 113.084 13.2291 113.084 13.4798 113.092C13.7305 113.1 13.9734 113.1 14.2163 113.1C16.5278 113.1 18.6826 112.912 19.5837 110.593C19.9441 109.284 20.0773 107.929 19.9676 106.581C19.9676 106.346 19.9676 106.111 19.9676 105.86C19.9676 105.586 19.9676 105.327 19.9676 105.077C19.9833 102.671 19.9911 101.08 18.7531 99.8424C17.6248 98.7141 16.1282 98.6201 14.2869 98.6201C14.0518 98.6201 13.8089 98.6201 13.5581 98.6201C13.2917 98.6201 13.0175 98.6201 12.7354 98.6201C12.4925 98.6201 12.2574 98.6201 12.0224 98.6201C11.7873 98.6201 11.5523 98.6201 11.325 98.6201C8.88033 98.6201 6.78824 98.8081 5.88716 101.12C5.52672 102.428 5.39352 103.792 5.50322 105.147C5.50322 105.374 5.50322 105.617 5.50322 105.86C5.50322 106.056 5.50322 106.252 5.50322 106.44V106.456C5.40135 107.85 5.53456 109.245 5.88716 110.593C6.78824 112.904 8.88817 113.092 11.3329 113.092C11.5601 113.092 11.7952 113.092 12.0302 113.092C12.2575 113.092 12.5004 113.084 12.7354 113.084ZM14.3809 111.792C14.1301 111.792 13.8716 111.792 13.5973 111.784C13.3231 111.776 13.0332 111.776 12.7433 111.776C6.98413 111.776 6.81959 111.611 6.81959 105.844C6.81959 102.883 6.93712 101.449 7.65015 100.697C8.36319 99.9443 9.59337 99.9208 12.1007 99.9208H12.2653C12.6179 99.9208 12.947 99.9208 13.2604 99.913C13.613 99.913 13.9499 99.9051 14.2633 99.9051C16.0969 99.9051 17.1468 100.03 17.805 100.712C18.7845 101.731 18.8471 104.019 18.6356 108.767C18.4945 111.572 16.708 111.792 14.3809 111.792ZM12.7354 102.138C10.6825 102.138 9.02137 103.799 9.02137 105.852C9.02137 107.905 10.6825 109.566 12.7354 109.566C14.7883 109.566 16.4495 107.905 16.4495 105.852C16.4495 103.807 14.7883 102.138 12.7354 102.138ZM16.5983 101.127C16.1204 101.127 15.7286 101.519 15.7286 101.997C15.7286 102.475 16.1204 102.867 16.5983 102.867C17.0763 102.867 17.4681 102.475 17.4681 101.997C17.4681 101.511 17.0763 101.127 16.5983 101.127ZM12.7354 108.266C11.4661 108.313 10.3926 107.325 10.3456 106.056C10.3456 105.986 10.3456 105.923 10.3456 105.852C10.3377 105.249 10.5493 104.653 10.9411 104.199C11.3955 103.698 12.0537 103.423 12.7354 103.447C14.0048 103.4 15.0782 104.387 15.1253 105.656C15.1253 105.727 15.1253 105.79 15.1253 105.86C15.1331 106.463 14.9215 107.059 14.5298 107.513C14.0753 108.015 13.4171 108.289 12.7354 108.266Z" fill="url(#paint0_linear_5_71)"/>
<g clip-path="url(#clip3_5_71)">
<path d="M12.997 149.925C15.5337 149.926 18.0136 149.174 20.1231 147.765C22.2326 146.356 23.8769 144.353 24.8481 142.01C25.8192 139.667 26.0734 137.088 25.5786 134.6C25.0842 132.112 23.8631 129.827 22.0697 128.033C20.2762 126.239 17.9912 125.017 15.5034 124.522C13.0155 124.027 10.4367 124.281 8.09298 125.251C5.74919 126.222 3.74595 127.866 2.33676 129.975C0.927385 132.084 0.175101 134.564 0.175049 137.1C0.175049 138.784 0.506194 140.452 1.15045 142.008C1.79444 143.564 2.73874 144.978 3.92937 146.169C5.12006 147.36 6.53366 148.304 8.08948 148.949C9.64535 149.593 11.313 149.925 12.997 149.925Z" fill="#FF0000"/>
<path d="M12.9971 130.348C14.3337 130.347 15.6403 130.742 16.7524 131.483C17.8645 132.224 18.7317 133.279 19.2443 134.513C19.7568 135.747 19.8915 137.106 19.6315 138.417C19.3723 139.728 18.7292 140.932 17.7839 141.877C16.8394 142.823 15.6355 143.467 14.3247 143.729C13.0139 143.989 11.6552 143.855 10.4206 143.344C9.18591 142.832 8.13074 141.966 7.38867 140.855C6.64634 139.744 6.25023 138.437 6.25045 137.101C6.25345 135.312 6.96434 133.596 8.2288 132.331C9.4933 131.065 11.208 130.352 12.9971 130.348ZM10.5213 140.89L17.0806 137.101L10.5213 133.314V140.89ZM12.9971 129.315C11.4566 129.315 9.95066 129.772 8.66966 130.628C7.38891 131.484 6.39079 132.7 5.80157 134.124C5.21208 135.547 5.05796 137.113 5.35871 138.624C5.65958 140.134 6.40155 141.522 7.49087 142.611C8.58048 143.7 9.96859 144.442 11.4796 144.742C12.9905 145.042 14.5565 144.888 15.9794 144.298C17.4025 143.708 18.6186 142.709 19.4737 141.428C20.3292 140.147 20.7855 138.641 20.7848 137.101C20.7848 136.078 20.5834 135.065 20.1921 134.12C19.8006 133.176 19.227 132.317 18.5038 131.594C17.7804 130.872 16.9218 130.298 15.9769 129.907C15.0321 129.516 14.0196 129.315 12.9971 129.315Z" fill="white"/>
</g>
<defs>
<linearGradient id="paint0_linear_5_71" x1="21.6065" y1="94.6181" x2="4.08662" y2="117.884" gradientUnits="userSpaceOnUse">
<stop stop-color="#7D4292"/>
<stop offset="0.551" stop-color="#EC663A"/>
<stop offset="1" stop-color="#FBBD3F"/>
</linearGradient>
<clipPath id="clip0_5_71">
<rect width="25.65" height="25.65" fill="white" transform="translate(0.175049 0.0751953)"/>
</clipPath>
<clipPath id="clip1_5_71">
<rect width="25.65" height="25.65" fill="white" transform="translate(0.175049 31.125)"/>
</clipPath>
<clipPath id="clip2_5_71">
<rect width="25.65" height="25.65" fill="white" transform="translate(0.175049 62.1753)"/>
</clipPath>
<clipPath id="clip3_5_71">
<rect width="25.65" height="25.65" fill="white" transform="translate(0.175049 124.275)"/>
</clipPath>
</defs>
</svg>
