<svg width="22" height="16" viewBox="0 0 22 16" fill="none" xmlns="http://www.w3.org/2000/svg">
<g clip-path="url(#clip0_5_363)">
<g clip-path="url(#clip1_5_363)">
<path d="M21.5002 8.0576C21.5002 8.00474 21.5002 7.94339 21.4974 7.87353L21.4856 7.22125C21.4687 6.559 21.4343 5.89736 21.3824 5.23705C21.3121 4.36199 21.2089 3.63326 21.0683 3.08576C20.9198 2.51441 20.6289 1.99333 20.2247 1.57458C19.8205 1.15583 19.317 0.854068 18.7647 0.699424C18.1018 0.514407 16.8035 0.400188 14.9756 0.330335C13.7657 0.284024 12.5551 0.258219 11.3444 0.25293H10.6551C10.383 0.255762 10.0807 0.257649 9.75479 0.262369C8.8244 0.274641 7.89401 0.296352 7.02388 0.330335C5.19596 0.40302 3.89488 0.517239 3.23383 0.69848C2.68145 0.852834 2.17799 1.15452 1.77386 1.57333C1.36973 1.99213 1.07912 2.51336 0.931137 3.08481C0.788702 3.63231 0.687355 4.36199 0.61705 5.23705C0.565677 5.89739 0.531274 6.55902 0.513876 7.22125C0.506572 7.4563 0.504746 7.67719 0.502007 7.87353C0.502007 7.94339 0.499268 8.00474 0.499268 8.0576V8.19353C0.499268 8.2464 0.499268 8.30775 0.502007 8.37761L0.513876 9.02988C0.53305 9.70576 0.565007 10.3797 0.61705 11.0141C0.687355 11.8891 0.790528 12.6179 0.931137 13.1654C1.07912 13.737 1.36983 14.2583 1.77414 14.6772C2.17845 15.096 2.68215 15.3976 3.23475 15.5517C3.89579 15.7358 5.19688 15.85 7.02479 15.9199C8.23469 15.9662 9.44524 15.992 10.656 15.9973H11.3453C11.6174 15.9944 11.9196 15.9925 12.2456 15.9878C13.176 15.9756 14.1064 15.9538 14.9765 15.9199C16.8044 15.8472 18.1055 15.733 18.7665 15.5517C19.3194 15.3981 19.8233 15.0967 20.2277 14.6778C20.6321 14.2589 20.9227 13.7372 21.0701 13.1654C21.2135 12.6179 21.3139 11.8882 21.3842 11.0141C21.4354 10.3788 21.4682 9.70576 21.4874 9.02988C21.4947 8.79484 21.4965 8.57395 21.4993 8.37761C21.4993 8.30775 21.502 8.2464 21.502 8.19353V8.0576H21.5002ZM19.8129 8.18315C19.8129 8.23413 19.8129 8.28982 19.8101 8.35495L19.7983 8.97797C19.783 9.60813 19.7501 10.2377 19.6997 10.8659C19.6367 11.6465 19.5472 12.2856 19.4376 12.7151C19.3662 12.9908 19.2259 13.2422 19.0309 13.4441C18.8359 13.6461 18.5929 13.7915 18.3264 13.8658C17.8343 14.0017 16.5944 14.1103 14.9089 14.1764C13.7182 14.2221 12.5268 14.2473 11.3353 14.2519H10.6651L9.77944 14.2443C8.8832 14.2333 7.98713 14.2106 7.09144 14.1764C5.40596 14.1084 4.16422 14.0017 3.67392 13.8658C3.40771 13.7909 3.16509 13.6453 2.97016 13.4434C2.77523 13.2415 2.63478 12.9905 2.56275 12.7151C2.45227 12.2866 2.3637 11.6465 2.3007 10.8659C2.25161 10.2376 2.21873 9.60807 2.20209 8.97797C2.19479 8.75236 2.19296 8.54186 2.19022 8.35495C2.19022 8.28982 2.18749 8.23129 2.18749 8.18315V8.06704C2.18749 8.01607 2.18749 7.96038 2.19022 7.89524L2.20209 7.27223C2.21853 6.6275 2.2514 5.98278 2.3007 5.38431C2.3637 4.60365 2.45318 3.96459 2.56275 3.53508C2.63419 3.25944 2.77445 3.00804 2.96947 2.80609C3.16449 2.60413 3.40742 2.45871 3.67392 2.38439C4.16605 2.24846 5.40596 2.13991 7.09144 2.07383C8.28217 2.02807 9.47355 2.0029 10.6651 1.99831H11.3353L12.2209 2.00587C13.1376 2.01814 14.0534 2.03985 14.9089 2.07383C16.5944 2.1418 17.8361 2.24846 18.3264 2.38439C18.8651 2.53448 19.2924 2.97532 19.4376 3.53508C19.5481 3.96364 19.6367 4.60365 19.6997 5.38431C19.749 5.98278 19.7791 6.6275 19.7983 7.27223C19.8056 7.49784 19.8074 7.70834 19.8101 7.89524C19.8101 7.96038 19.8129 8.0189 19.8129 8.06704V8.18315ZM8.91388 11.3719L14.3511 8.10103L8.91388 4.87834V11.3719Z" fill="white" fill-opacity="0.9"/>
</g>
</g>
<defs>
<clipPath id="clip0_5_363">
<rect width="21.75" height="15.75" fill="white" transform="translate(0.5 0.25)"/>
</clipPath>
<clipPath id="clip1_5_363">
<rect width="21" height="15.75" fill="white" transform="translate(0.5 0.25)"/>
</clipPath>
</defs>
</svg>
