<svg width="124" height="14" viewBox="0 0 124 14" fill="none" xmlns="http://www.w3.org/2000/svg">
<path d="M3.67875 4.745C3.50625 4.5425 3.27375 4.44125 2.98125 4.44125C2.68875 4.44125 2.4525 4.535 2.2725 4.7225C2.0925 4.9025 2.0025 5.1275 2.0025 5.3975C2.0025 5.9075 2.34375 6.3575 3.02625 6.7475C3.28125 6.59 3.495 6.395 3.6675 6.1625C3.8475 5.93 3.9375 5.68625 3.9375 5.43125C3.9375 5.16875 3.85125 4.94 3.67875 4.745ZM5.8725 3.7775H8.0775V4.53125H6.7725V11H5.8725V8.615L2.9925 11.0338L2.295 10.5275L4.93875 8.33375C4.22625 8.12375 3.61875 7.90625 3.11625 7.68125L1.04625 9.155L0.34875 8.615L2.3175 7.2425C1.5225 6.725 1.125 6.10625 1.125 5.38625C1.125 4.94375 1.29 4.55375 1.62 4.21625C1.9575 3.87875 2.39625 3.71 2.93625 3.71C3.51375 3.71 3.97125 3.875 4.30875 4.205C4.64625 4.5275 4.815 4.92875 4.815 5.40875C4.815 6.03875 4.46625 6.605 3.76875 7.1075C4.38375 7.355 5.085 7.5725 5.8725 7.76V3.7775ZM8.48575 4.53125V3.7775H15.4158V4.53125H14.122V11H13.2445V7.85H10.882V9.38H10.117L9.83575 8.75C9.63325 8.27 9.532 7.9325 9.532 7.7375C9.532 7.5875 9.57325 7.46 9.65575 7.355C9.74575 7.25 9.862 7.17875 10.0045 7.14125V4.53125H8.48575ZM13.2445 4.53125H10.882V7.1075H13.2445V4.53125ZM14.125 2.61875C14.005 2.50625 13.945 2.36375 13.945 2.19125C13.945 2.01875 14.005 1.8725 14.125 1.7525C14.2375 1.6325 14.38 1.5725 14.5525 1.5725C14.725 1.5725 14.8712 1.6325 14.9912 1.7525C15.1112 1.8725 15.1712 2.01875 15.1712 2.19125C15.1712 2.36375 15.1112 2.50625 14.9912 2.61875C14.8712 2.73125 14.725 2.7875 14.5525 2.7875C14.38 2.7875 14.2375 2.73125 14.125 2.61875ZM23.8128 0.90875C24.8478 0.90875 25.7816 1.01375 26.6141 1.22375C27.4541 1.42625 28.3353 1.715 29.2578 2.09V2.9675C27.4353 2.12 25.6278 1.69625 23.8353 1.69625C23.4303 1.69625 23.1153 1.80125 22.8903 2.01125C22.6653 2.21375 22.5528 2.49875 22.5528 2.86625V3.7775H23.8466V4.53125H22.5528V11H21.6753V4.53125H20.3703V3.7775H21.6753V2.855C21.6753 2.27 21.8703 1.80125 22.2603 1.44875C22.6503 1.08875 23.1678 0.90875 23.8128 0.90875ZM31.2001 3.7775V4.53125H29.8951V11H29.0176V9.1325C28.6276 9.695 28.0276 9.97625 27.2176 9.97625C26.6176 9.97625 26.1001 9.785 25.6651 9.4025C25.2376 9.0125 25.0239 8.4875 25.0239 7.8275C25.0239 7.2125 25.2301 6.7025 25.6426 6.2975C26.0626 5.885 26.5989 5.67875 27.2514 5.67875C27.5289 5.67875 27.7651 5.70875 27.9601 5.76875V6.545C27.7726 6.4775 27.5514 6.44375 27.2964 6.44375C26.8989 6.44375 26.5689 6.57125 26.3064 6.82625C26.0439 7.07375 25.9126 7.40375 25.9126 7.81625C25.9126 8.25125 26.0439 8.6 26.3064 8.8625C26.5764 9.125 26.9101 9.25625 27.3076 9.25625C27.8326 9.25625 28.2489 9.08 28.5564 8.7275C28.8639 8.375 29.0176 7.95875 29.0176 7.47875V4.53125H24.2476V3.7775H31.2001ZM31.6076 3.7775H37.6151V4.53125H36.3213V11H35.4326V7.29875H33.4413C33.3063 7.29875 33.2126 7.3325 33.1601 7.4C33.1076 7.4675 33.0813 7.58 33.0813 7.7375C33.0813 8 33.1301 8.2775 33.2276 8.57H32.4851C32.2751 8.15 32.1701 7.76 32.1701 7.4C32.1701 6.8375 32.4963 6.55625 33.1488 6.55625H35.4326V4.53125H31.6076V3.7775ZM38.0227 4.53125V3.7775H41.5102V4.53125H40.2052V11H39.3277V4.53125H38.0227ZM45.5576 3.7775H51.5651V4.53125H50.2713V11H49.3826V7.29875H47.3913C47.2563 7.29875 47.1626 7.3325 47.1101 7.4C47.0576 7.4675 47.0313 7.58 47.0313 7.7375C47.0313 8 47.0801 8.2775 47.1776 8.57H46.4351C46.2251 8.15 46.1201 7.76 46.1201 7.4C46.1201 6.8375 46.4463 6.55625 47.0988 6.55625H49.3826V4.53125H45.5576V3.7775ZM58.9943 0.90875C59.7743 0.90875 60.4943 1.01 61.1543 1.2125C61.8218 1.415 62.553 1.7075 63.348 2.09V2.9675C61.7805 2.12 60.3368 1.69625 59.0168 1.69625C58.6343 1.69625 58.3343 1.80125 58.1168 2.01125C57.9068 2.21375 57.8018 2.495 57.8018 2.855V3.7775H59.0955V4.53125H57.8018V11H56.9243V4.53125H55.6193V3.7775H56.9243V2.84375C56.9243 2.26625 57.1155 1.80125 57.498 1.44875C57.8805 1.08875 58.3793 0.90875 58.9943 0.90875ZM68.6653 4.53125H64.5253V6.14C64.8703 5.78 65.3091 5.6 65.8416 5.6C66.4566 5.6 66.9553 5.7875 67.3378 6.1625C67.7203 6.5375 67.9116 7.02875 67.9116 7.63625C67.9116 8.28875 67.6978 8.81 67.2703 9.2C66.8428 9.59 66.3103 9.785 65.6728 9.785C65.5903 9.785 65.5041 9.7775 65.4141 9.7625V9.00875C65.4891 9.02375 65.5641 9.03125 65.6391 9.03125C66.0366 9.03125 66.3666 8.9075 66.6291 8.66C66.8916 8.4125 67.0228 8.07125 67.0228 7.63625C67.0228 7.25375 66.9028 6.9425 66.6628 6.7025C66.4303 6.455 66.1228 6.33125 65.7403 6.33125C65.4103 6.33125 65.1253 6.4475 64.8853 6.68C64.6453 6.905 64.5253 7.19 64.5253 7.535V11H63.6366V9.38C63.3066 9.725 62.8716 9.8975 62.3316 9.8975C61.7166 9.8975 61.2178 9.71375 60.8353 9.34625C60.4528 8.97125 60.2616 8.48 60.2616 7.8725C60.2616 7.22 60.4753 6.69875 60.9028 6.30875C61.3303 5.91125 61.8591 5.7125 62.4891 5.7125C62.6091 5.7125 62.6953 5.72375 62.7478 5.74625V6.48875C62.7103 6.48125 62.6391 6.4775 62.5341 6.4775C62.1291 6.4775 61.7953 6.60125 61.5328 6.84875C61.2703 7.09625 61.1391 7.43375 61.1391 7.86125C61.1391 8.24375 61.2591 8.55875 61.4991 8.80625C61.7391 9.05375 62.0503 9.1775 62.4328 9.1775C62.7628 9.1775 63.0441 9.06125 63.2766 8.82875C63.5166 8.59625 63.6366 8.3075 63.6366 7.9625V4.53125H59.4966V3.7775H68.6653V4.53125ZM69.0758 4.53125V3.7775H76.0058V4.53125H74.712V11H73.8345V7.85H71.472V9.38H70.707L70.4258 8.75C70.2233 8.27 70.122 7.9325 70.122 7.7375C70.122 7.5875 70.1633 7.46 70.2458 7.355C70.3358 7.25 70.452 7.17875 70.5945 7.14125V4.53125H69.0758ZM73.8345 4.53125H71.472V7.1075H73.8345V4.53125ZM79.8225 0.90875C80.73 0.90875 81.5588 1.01 82.3088 1.2125C83.0588 1.415 83.8613 1.7075 84.7163 2.09V2.9675C83.0213 2.12 81.3975 1.69625 79.845 1.69625C79.4475 1.69625 79.14 1.80125 78.9225 2.01125C78.705 2.21375 78.5963 2.49875 78.5963 2.86625V3.7775H79.89V4.53125H78.5963V11H77.7188V4.53125H76.4138V3.7775H77.7188V2.84375C77.7188 2.26625 77.91 1.80125 78.2925 1.44875C78.6825 1.08875 79.1925 0.90875 79.8225 0.90875ZM84.8248 6.7025V4.53125H82.1923V6.7925C82.1923 7.325 82.2898 7.71125 82.4848 7.95125C82.6798 8.18375 82.9798 8.3 83.3848 8.3C83.7823 8.3 84.1198 8.1575 84.3973 7.8725C84.6823 7.58 84.8248 7.19 84.8248 6.7025ZM87.0073 3.7775V4.53125H85.7136V11H84.8248V8.3225C84.4798 8.78 83.9811 9.0125 83.3286 9.02C81.9786 9.02 81.3036 8.27375 81.3036 6.78125V4.53125H80.2911V3.7775H87.0073ZM94.0372 7.25375H96.5234V4.53125H94.3409V6.14C94.3409 6.6125 94.2397 6.98375 94.0372 7.25375ZM98.6947 3.7775V4.53125H97.4009V11H96.5234V8.01875H94.6334C93.8009 8.01875 93.1634 7.985 92.7209 7.9175L94.7909 11H93.7222L91.6184 7.8275V7.13H92.3609C92.7884 7.13 93.0772 7.0475 93.2272 6.8825C93.3847 6.71 93.4634 6.44 93.4634 6.0725V4.53125H91.0559V3.7775H98.6947ZM99.097 4.53125V3.7775H102.585V4.53125H101.28V11H100.402V4.53125H99.097ZM112.784 7.2425V4.53125H110.68C110.868 4.81625 110.962 5.165 110.962 5.5775C110.962 6.4625 110.407 7.0775 109.297 7.4225C109.387 7.835 109.589 8.17625 109.904 8.44625C110.227 8.70875 110.609 8.84 111.052 8.84C111.569 8.84 111.985 8.6975 112.3 8.4125C112.623 8.12 112.784 7.73 112.784 7.2425ZM108.059 3.7775H114.967V4.53125H113.662V11H112.784V8.8175C112.409 9.335 111.802 9.59375 110.962 9.59375C110.287 9.59375 109.713 9.38 109.24 8.9525C108.445 9.8375 107.467 10.28 106.304 10.28C105.584 10.28 105.01 10.1112 104.583 9.77375C104.155 9.42875 103.942 8.9975 103.942 8.48C103.942 8.06 104.073 7.72625 104.335 7.47875C104.598 7.22375 104.943 7.07 105.37 7.0175C104.95 6.9725 104.617 6.8375 104.369 6.6125C104.122 6.3875 103.998 6.0725 103.998 5.6675C103.998 5.15 104.23 4.77125 104.695 4.53125H102.985V3.7775H106.473V4.53125H106.462C105.967 4.53125 105.58 4.63625 105.303 4.84625C105.025 5.05625 104.887 5.32625 104.887 5.65625C104.887 5.99375 105.029 6.245 105.314 6.41C105.599 6.5675 105.967 6.64625 106.417 6.64625H106.979V7.4H106.315C105.858 7.4 105.498 7.4975 105.235 7.6925C104.973 7.88 104.842 8.1425 104.842 8.48C104.842 8.7875 104.977 9.03875 105.247 9.23375C105.517 9.42875 105.884 9.52625 106.349 9.52625C107.287 9.52625 108.089 9.13625 108.757 8.35625C108.502 7.94375 108.337 7.44875 108.262 6.87125C108.862 6.78125 109.315 6.61625 109.623 6.37625C109.93 6.13625 110.084 5.855 110.084 5.5325C110.084 5.15 109.972 4.81625 109.747 4.53125H108.059V3.7775ZM115.377 4.53125V3.7775H122.307V4.53125H121.013V11H120.136V7.85H117.773V9.38H117.008L116.727 8.75C116.525 8.27 116.423 7.9325 116.423 7.7375C116.423 7.5875 116.465 7.46 116.547 7.355C116.637 7.25 116.753 7.17875 116.896 7.14125V4.53125H115.377ZM120.136 4.53125H117.773V7.1075H120.136V4.53125ZM123.615 13.6213H122.524L121.14 11.765H122.04L123.615 13.6213Z" fill="white"/>
</svg>
